<svg xmlns="http://www.w3.org/2000/svg" width="40" height="40" viewBox="0 0 40 40"><defs><style>.a{fill:#bce7f7;}.b{fill:#a7d9e8;}.c{fill:#93cbd8;}.d{fill:#a6d96b;}.e{fill:#87ba50;}.f{fill:#9ba3d1;}.g{fill:#8a95c4;}.h{fill:#73b03e;}.i{fill:#fff;}.j{fill:#7987b2;}.k{fill:#fff8cc;}.l{fill:#bac1dd;}.m{fill:#e3f0f4;}.n{fill:#c5e1a5;}</style></defs><path class="a" d="M69.589,54.21H64V48.621A.621.621,0,0,1,64.621,48h4.968Z" transform="translate(-59.032 -44.274)"/><path class="a" d="M381.589,54.21H376V48h4.968a.621.621,0,0,1,.621.621Z" transform="translate(-346.557 -44.274)"/><path class="b" d="M378.329,48H376v6.21h5.589V51.6A6.856,6.856,0,0,1,378.329,48Z" transform="translate(-346.557 -44.274)"/><path class="b" d="M67.881,48A6.853,6.853,0,0,1,64,51.881V54.21h5.589V48Z" transform="translate(-59.032 -44.274)"/><path class="c" d="M376,80h5.589v1.242H376Z" transform="translate(-346.557 -73.79)"/><path class="c" d="M64,80h5.589v1.242H64Z" transform="translate(-59.032 -73.79)"/><path class="a" d="M142.292,9.936H121V.621A.625.625,0,0,1,121.629,0h20.035a.625.625,0,0,1,.629.621Z" transform="translate(-111.607 0)"/><path class="b" d="M200.528,0h-3.586a18.361,18.361,0,0,1-11.855,9.936h16.062V.621A.621.621,0,0,0,200.528,0Z" transform="translate(-170.565)"/><path class="c" d="M184.621,9.936A.621.621,0,0,1,184,9.315V.621a.621.621,0,0,1,1.242,0V9.315A.621.621,0,0,1,184.621,9.936Z" transform="translate(-169.622)"/><path class="c" d="M248.621,9.936A.621.621,0,0,1,248,9.315V.621a.621.621,0,0,1,1.242,0V9.315A.621.621,0,0,1,248.621,9.936Z" transform="translate(-228.621)"/><path class="c" d="M312.621,9.936A.621.621,0,0,1,312,9.315V.621a.621.621,0,0,1,1.242,0V9.315A.621.621,0,0,1,312.621,9.936Z" transform="translate(-287.62)"/><path class="d" d="M73.79,112.621v10.557H40V112.621a.623.623,0,0,1,.626-.621H73.164A.623.623,0,0,1,73.79,112.621Z" transform="translate(-36.895 -103.228)"/><path class="e" d="M151.486,112h-12.6a20.849,20.849,0,0,1-13.7,11.178h26.922V112.621A.621.621,0,0,0,151.486,112Z" transform="translate(-115.212 -103.228)"/><path class="a" d="M53.516,261.115H16V240.621a.623.623,0,0,1,.625-.621H52.891a.623.623,0,0,1,.625.621Z" transform="translate(-14.758 -221.115)"/><path class="b" d="M52.891,240H43.059A34.723,34.723,0,0,1,16,257.842v3.273H53.516V240.621A.623.623,0,0,0,52.891,240Z" transform="translate(-14.758 -221.115)"/><path class="f" d="M168.146,423.452H152v-6.831a.621.621,0,0,1,.621-.621h14.9a.621.621,0,0,1,.621.621Z" transform="translate(-140.073 -383.452)"/><path class="g" d="M185.354,416h-6.046a15.9,15.9,0,0,1-7.979,7.452h14.646v-6.831A.621.621,0,0,0,185.354,416Z" transform="translate(-157.894 -383.452)"/><path class="h" d="M40,152H73.79v1.242H40Z" transform="translate(-36.895 -140.123)"/><path class="h" d="M40,200H73.79v1.242H40Z" transform="translate(-36.895 -184.372)"/><path class="c" d="M16,288H53.516v1.242H16Z" transform="translate(-14.758 -265.495)"/><path class="c" d="M16,336H53.516v1.242H16Z" transform="translate(-14.758 -309.745)"/><path class="c" d="M16,384H53.516v1.242H16Z" transform="translate(-14.758 -353.994)"/><path class="i" d="M107.105,152.474A1.864,1.864,0,0,0,104,153.861v2.484a.621.621,0,1,0,1.242,0v-2.484a.621.621,0,0,1,1.242,0v2.484a.621.621,0,1,0,1.242,0v-2.484a.621.621,0,0,1,1.242,0v2.484a.621.621,0,1,0,1.242,0v-2.484A1.864,1.864,0,0,0,107.105,152.474Z" transform="translate(-95.865 -140.112)"/><path class="i" d="M202.484,152A2.487,2.487,0,0,0,200,154.484v1.863a.621.621,0,0,0,1.242,0v-.621h2.484v.621a.621.621,0,1,0,1.242,0v-1.863A2.487,2.487,0,0,0,202.484,152Zm-1.242,2.484a1.242,1.242,0,1,1,2.484,0Z" transform="translate(-184.361 -140.114)"/><path class="i" d="M283.726,155.726h-2.484v-3.105a.621.621,0,1,0-1.242,0v3.726a.621.621,0,0,0,.621.621h3.105a.621.621,0,1,0,0-1.242Z" transform="translate(-258.108 -140.114)"/><path class="i" d="M355.726,155.726h-2.484v-3.105a.621.621,0,1,0-1.242,0v3.726a.621.621,0,0,0,.621.621h3.105a.621.621,0,1,0,0-1.242Z" transform="translate(-324.478 -140.114)"/><path class="j" d="M248,416h1.242v7.452H248Z" transform="translate(-228.621 -383.452)"/><path class="f" d="M84.347,423.452H80v-6.831a.621.621,0,0,1,.621-.621h3.105a.621.621,0,0,1,.621.621Z" transform="translate(-73.745 -383.452)"/><path class="g" d="M80,437.728v2.927h4.347v-6A9.02,9.02,0,0,1,80,437.728Z" transform="translate(-73.745 -400.654)"/><path class="j" d="M39.375,497.242H.625a.621.621,0,1,1,0-1.242h38.75a.621.621,0,1,1,0,1.242Z" transform="translate(0 -457.242)"/><ellipse class="k" cx="1" cy="2" rx="1" ry="2" transform="translate(30.01 21.964)"/><ellipse class="k" cx="1" cy="0.5" rx="1" ry="0.5" transform="translate(32.064 24.972)"/><circle class="l" cx="1" cy="1" r="1" transform="translate(11.888 33.064)"/><ellipse class="l" cx="1" cy="0.5" rx="1" ry="0.5" transform="translate(14.909 35.064)"/><g transform="translate(4.809 1.809)"><ellipse class="m" cx="1" cy="1.5" rx="1" ry="1.5" transform="translate(0 17)"/><circle class="m" cx="0.5" cy="0.5" r="0.5" transform="translate(3 19)"/><ellipse class="m" cx="1.5" cy="1" rx="1.5" ry="1" transform="translate(5)"/><ellipse class="m" cx="1" cy="0.5" rx="1" ry="0.5" transform="translate(6 3)"/><circle class="m" cx="1" cy="1" r="1" transform="translate(11)"/><ellipse class="m" cy="0.5" ry="0.5" transform="translate(13 3)"/></g><ellipse class="l" cx="0.5" cy="1" rx="0.5" ry="1" transform="translate(6.809 33.064)"/><circle class="n" cx="1" cy="1" r="1" transform="translate(3.809 8.868)"/></svg>