<svg xmlns="http://www.w3.org/2000/svg" xmlns:xlink="http://www.w3.org/1999/xlink" width="146.232" height="87.928" viewBox="0 0 146.232 87.928"><defs><style>.a{fill:none;}.b{clip-path:url(#a);}.c{fill:#1a1718;}.d{fill:#6b1370;}</style><clipPath id="a"><rect class="a" width="146.232" height="87.928"/></clipPath></defs><g transform="translate(73.116 43.964)"><g class="b" transform="translate(-73.116 -43.964)"><path class="c" d="M22.691,0A43.964,43.964,0,0,1,36.558,2.364V8.824A44.122,44.122,0,0,0,22.691,5.673a12.764,12.764,0,0,0-8.982,3.152c-3.624,3.309-4.1,8.667-4.1,13.709s.63,10.243,4.1,13.709a12.449,12.449,0,0,0,8.509,3.152c4.885,0,9.77-2.364,14.34-4.727v7.249a32.461,32.461,0,0,1-14.024,3.152C7.406,45.382,0,34.982,0,22.691S7.406,0,22.691,0"/><path class="c" d="M24.8,8.118V1.5h8.036Zm0,34.667V13.633h8.036V42.785Z" transform="translate(14.279 0.864)"/><path class="c" d="M54.279,9.2h6.776L50.34,38.352H42.3L30.8,9.2h8.194l7.879,20.327Z" transform="translate(17.734 5.297)"/><path class="c" d="M50.8,7.961V1.5h8.036V7.961Zm0,34.825V13.633h8.036V42.785Z" transform="translate(29.249 0.864)"/><path class="c" d="M74.818,34.788A40.5,40.5,0,0,0,84.746,32.9v5.83a38.607,38.607,0,0,1-9.927,1.418C63.158,40.146,57.8,33.37,57.8,24.073S61.267,8,74.976,8a44.437,44.437,0,0,1,9.77,1.261v5.673a49.479,49.479,0,0,0-9.77-1.418c-7.249,0-9.139,5.358-9.139,10.715s1.891,10.558,8.982,10.558" transform="translate(33.28 4.606)"/><path class="c" d="M102.646,20.3V39.2H94.452V36.053a14.5,14.5,0,0,1-9.612,4.1A8.667,8.667,0,0,1,75.7,31.326a8.352,8.352,0,0,1,4.57-7.564c3.782-2.206,8.982-2.679,14.182-2.836V19.035c0-2.994-.158-5.673-5.358-5.673a25.212,25.212,0,0,0-10.4,2.836V10.21A25.527,25.527,0,0,1,89.883,8c12.606,0,12.606,6.3,12.606,12.291m-8.036,5.042a16.231,16.231,0,0,0-8.194,1.576,4.885,4.885,0,0,0-2.364,4.1c0,2.206,1.418,3.782,4.255,3.782a10.558,10.558,0,0,0,6.3-2.521Z" transform="translate(43.585 4.602)"/><path class="d" d="M71.425,66.209H67.17v-16.7l.158-7.879h0L58.5,66.209H54.721L45.9,41.627h0l.315,7.879v16.7H41.8V36.9h7.091l5.673,17.176,2.049,6.933h.158l2.049-6.933L64.491,36.9h6.933Z" transform="translate(24.067 21.246)"/><path class="d" d="M85.407,60.471l-.315,3.152a6.618,6.618,0,0,1-2.679.473,5.358,5.358,0,0,1-2.994-.788A3.624,3.624,0,0,1,78,60.787a6.618,6.618,0,0,1-2.994,2.364,11.03,11.03,0,0,1-4.412.788,8.352,8.352,0,0,1-5.2-1.418A5.042,5.042,0,0,1,63.5,58.265a5.515,5.515,0,0,1,2.206-4.412,13.709,13.709,0,0,1,6.461-2.521l5.515-.945v-1.1a4.255,4.255,0,0,0-1.1-3.152,4.412,4.412,0,0,0-3.309-1.1A5.358,5.358,0,0,0,67.6,48.968l-3.939-1.891a7.249,7.249,0,0,1,3.152-4.1A11.03,11.03,0,0,1,72.8,41.4a10.558,10.558,0,0,1,6.776,2.049,6.933,6.933,0,0,1,2.521,5.83v9.927a1.423,1.423,0,0,0,1.576,1.733h1.576M75.479,60A3.467,3.467,0,0,0,77.213,57V53.7l-4.727.945A8.667,8.667,0,0,0,69.176,55.9a2.521,2.521,0,0,0-1.1,2.049,2.206,2.206,0,0,0,.788,1.891,3.939,3.939,0,0,0,2.364.63,7.564,7.564,0,0,0,4.1-1.1" transform="translate(36.558 23.832)"/><path class="d" d="M83.635,60.77a3.939,3.939,0,0,0,.473,2.206,2.206,2.206,0,0,0,1.733.63H87.26l1.418-.473-.473,3.782a8.036,8.036,0,0,1-3.624.788,5.673,5.673,0,0,1-4.255-1.418,6.776,6.776,0,0,1-1.418-4.727V35.4h4.727Z" transform="translate(45.42 20.382)"/><path class="d" d="M91.236,60.77a3.939,3.939,0,0,0,.473,2.206,2.206,2.206,0,0,0,1.733.63H94.86l1.418-.473-.473,3.782a8.036,8.036,0,0,1-3.624.788,5.673,5.673,0,0,1-4.255-1.418,6.776,6.776,0,0,1-1.418-4.727V35.4h4.727Z" transform="translate(49.796 20.382)"/></g></g></svg>