<svg xmlns="http://www.w3.org/2000/svg" width="32" height="32" viewBox="0 0 32 32"><defs><style>.a{fill:#fff;}</style></defs><path class="a" d="M375.416,0h-4.479a.938.938,0,0,0,0,1.875h4.479A1.586,1.586,0,0,1,377,3.459V7.938a.938.938,0,1,0,1.875,0V3.459A3.463,3.463,0,0,0,375.416,0Z" transform="translate(-346.875)"/><path class="a" d="M.937,8.875a.938.938,0,0,0,.937-.938V3.459A1.586,1.586,0,0,1,3.459,1.875H7.937A.938.938,0,0,0,7.937,0H3.459A3.463,3.463,0,0,0,0,3.459V7.938a.938.938,0,0,0,.938.938Z" transform="translate(0 0)"/><path class="a" d="M7.937,377H3.459a1.586,1.586,0,0,1-1.584-1.584v-4.479a.937.937,0,1,0-1.875,0v4.479a3.463,3.463,0,0,0,3.459,3.459H7.937a.938.938,0,0,0,0-1.875Z" transform="translate(0 -346.875)"/><path class="a" d="M377.938,370a.938.938,0,0,0-.937.938v4.479A1.586,1.586,0,0,1,375.416,377h-4.479a.938.938,0,0,0,0,1.875h4.479a3.463,3.463,0,0,0,3.459-3.459v-4.479A.938.938,0,0,0,377.938,370Z" transform="translate(-346.875 -346.875)"/><path class="a" d="M327.581,81.875h2.973a.737.737,0,0,1,.736.736v2.973a.938.938,0,0,0,1.875,0V82.611A2.614,2.614,0,0,0,330.554,80h-2.973a.938.938,0,0,0,0,1.875Z" transform="translate(-306.228 -75)"/><path class="a" d="M81,82.611v2.973a.938.938,0,0,0,1.875,0V82.611a.737.737,0,0,1,.736-.736h2.973a.938.938,0,0,0,0-1.875H83.611A2.614,2.614,0,0,0,81,82.611Z" transform="translate(-75.938 -75)"/><path class="a" d="M86.585,330.291H83.611a.737.737,0,0,1-.736-.736v-2.973a.938.938,0,0,0-1.875,0v2.973a2.614,2.614,0,0,0,2.611,2.611h2.973a.938.938,0,0,0,0-1.875Z" transform="translate(-75.938 -305.291)"/><path class="a" d="M333.165,329.555v-2.973a.938.938,0,1,0-1.875,0v2.973a.737.737,0,0,1-.736.736h-2.973a.938.938,0,1,0,0,1.875h2.973A2.614,2.614,0,0,0,333.165,329.555Z" transform="translate(-306.228 -305.291)"/><path class="a" d="M1,241.938a.938.938,0,0,0,.938.938h30a.938.938,0,1,0,0-1.875h-30A.938.938,0,0,0,1,241.938Z" transform="translate(-0.938 -225.938)"/></svg>