<svg xmlns="http://www.w3.org/2000/svg" xmlns:xlink="http://www.w3.org/1999/xlink" viewBox="0 0 1080 1080"><defs><style>.cls-1{fill:none;}.cls-2{fill:#f9c402;}.cls-3{fill:#7e2081;}.cls-4{fill:#231f20;}.cls-5{fill:#57115b;}.cls-6{fill:#dad7db;}.cls-7{fill:#fff;}.cls-8{fill:#c7bece;}.cls-9{opacity:0.35;}.cls-10{fill:#431447;}.cls-11{clip-path:url(#clip-path);}.cls-12{fill:#e7dde8;}.cls-13{fill:#bc5bbc;}.cls-14{clip-path:url(#clip-path-2);}.cls-15{fill:#e2dcde;}</style><clipPath id="clip-path"><ellipse class="cls-1" cx="611.67" cy="374.79" rx="115.36" ry="110.12" transform="matrix(0.5, -0.87, 0.87, 0.5, -18.74, 717.12)"/></clipPath><clipPath id="clip-path-2"><path class="cls-1" d="M957.88,340.56c0-144.73-117.33-262-262.06-262a261.9,261.9,0,0,0-224.13,126.2h0s-85,98.45-49,371.49c40.23,192.66,132,272.33,225.53,267.79a92.07,92.07,0,0,0,92.07-92.07S752.54,643.56,866.07,539.8h0A261.45,261.45,0,0,0,957.88,340.56Z"/></clipPath></defs><title>Historial</title><g id="Sin_resultados_de_busqueda" data-name="Sin resultados de busqueda"><circle class="cls-2" cx="540" cy="540" r="488.68"/><path class="cls-3" d="M957.88,340.56c0-144.73-117.33-262-262.06-262a261.9,261.9,0,0,0-224.13,126.2h0s-85,98.45-49,371.49c40.23,192.66,132,272.33,225.53,267.79a92.07,92.07,0,0,0,92.07-92.07S752.54,643.56,866.07,539.8h0A261.45,261.45,0,0,0,957.88,340.56Z"/><path class="cls-4" d="M526.41,234.13c.36-1.83.78-3.66,1.22-5.5a54,54,0,0,1,1.52-5.47,92.4,92.4,0,0,1,4.1-10.65c.8-1.74,1.57-3.51,2.44-5.24l2.84-5a52.47,52.47,0,0,1,3.05-5c1.09-1.61,2.21-3.2,3.33-4.81l.84-1.21.92-1.14,1.86-2.28c1.25-1.52,2.49-3.05,3.81-4.53s2.73-2.84,4.12-4.26l2.08-2.13c.71-.69,1.48-1.32,2.22-2,1.5-1.3,3-2.63,4.51-3.93.75-.67,1.55-1.27,2.35-1.86l2.41-1.8c1.62-1.17,3.21-2.41,4.9-3.51s3.4-2.14,5.13-3.19l2.58-1.59c.89-.49,1.79-.95,2.69-1.41l5.42-2.77a25.57,25.57,0,0,1,2.77-1.26l2.81-1.17c1.89-.76,3.76-1.61,5.68-2.28a131.65,131.65,0,0,1,23.79-6c2-.3,4.06-.62,6.1-.89s4.09-.3,6.14-.44,4.11-.33,6.17-.3l6.17,0c2.06.09,4.11.24,6.17.37,1,.05,2.06.15,3.08.28l3.08.34c1,.13,2,.23,3.07.4l3.06.53c2,.35,4.07.69,6.08,1.18a130.36,130.36,0,0,1,45.21,19.47,127.87,127.87,0,0,1,34.36,34.38,119.53,119.53,0,0,1,18.33,43.77c.33,1.93.74,3.83,1,5.77s.49,3.86.68,5.79l.33,5.79c.14,1.92,0,3.86,0,5.77a93.61,93.61,0,0,1-3.1,22.48c-2.06-7.24-4.23-14.17-6.8-20.8l-1-2.47c-.33-.82-.62-1.64-1-2.45l-2.12-4.8c-.8-1.56-1.54-3.12-2.29-4.67s-1.63-3-2.42-4.55a143.62,143.62,0,0,0-23.74-31.89,132.21,132.21,0,0,0-65.26-36.45c-1.51-.4-3-.66-4.58-.94l-2.3-.43c-.76-.14-1.54-.2-2.31-.33l-2.32-.33c-.77-.13-1.55-.23-2.33-.29l-4.67-.45-4.69-.25c-.79-.06-1.57,0-2.35,0h-7.08c-1.56.12-3.13.2-4.7.3-3.17.08-6.27.61-9.42.95-.78.11-1.58.15-2.36.31l-2.33.45-4.69.86c-1.56.33-3.09.76-4.64,1.14l-2.34.57a23.44,23.44,0,0,0-2.32.64l-4.6,1.45c-.76.25-1.55.47-2.31.73l-2.26.87c-1.51.58-3,1.17-4.57,1.73s-3,1.33-4.48,2l-2.25,1a24.08,24.08,0,0,0-2.23,1.07c-1.45.78-2.93,1.53-4.41,2.3-.73.39-1.49.74-2.21,1.16l-2.14,1.29-4.34,2.56c-1.43.9-2.78,1.9-4.21,2.83l-2.13,1.42-1.06.72-1,.77c-2.68,2.1-5.57,4.07-8.15,6.39l-4,3.39-3.85,3.64c-2.67,2.38-5.05,5-7.6,7.66-1.34,1.27-2.45,2.7-3.68,4.07S527.7,232.74,526.41,234.13Z"/><path class="cls-5" d="M685.83,976.65l-.55,0c-.79-.09-19.44-2.48-30-15.38-1.88-2.3-6.89-8.42-9.88-64.18-1.44-26.93-1.72-52.76-1.72-53a4.5,4.5,0,0,1,4.45-4.55h0a4.51,4.51,0,0,1,4.5,4.45c.51,49.74,4.23,105.08,9.57,111.6,8.29,10.13,24,12.13,24.11,12.15a4.5,4.5,0,0,1-.53,9Z"/><path class="cls-5" d="M549.23,967.5a20.23,20.23,0,0,1-4.85-.51,4.5,4.5,0,0,1,2.18-8.73c5.78,1.44,23.5-3.44,32-5.79l4.38-1.19c2.38-10.48-4.45-68.81-12.78-121.49a4.5,4.5,0,1,1,8.89-1.4c0,.31,5,31.43,8.76,62.42,2.24,18.25,3.67,32.91,4.24,43.56,1,18.07-.25,24-5.25,25.21-1.5.37-3.51.93-5.85,1.57C568.76,964.51,557.15,967.5,549.23,967.5Z"/><path class="cls-5" d="M353.83,646.3a4.5,4.5,0,0,1-3-7.86c10-8.87,69.9-19.89,81.81-22a4.5,4.5,0,0,1,1.58,8.86c-28.58,5.09-71.49,14.62-77.41,19.87A4.42,4.42,0,0,1,353.83,646.3Z"/><path class="cls-6" d="M333.17,1007.48l-.47,0c-.75.07-1.52.1-2.29.1a27,27,0,0,1-7.93-1.19h0l-.1,0-.91-.31-.61-.22a26.8,26.8,0,0,1-4.17-2c-.26-.15-.52-.31-.77-.48a25.24,25.24,0,0,1-2.71-2c-.48-.4-.95-.82-1.4-1.25a1.06,1.06,0,0,0-.15-.15c-.41-.41-.82-.83-1.21-1.27a26.72,26.72,0,0,1-2.85-3.82c-.32-.51-.62-1-.89-1.56l-.17-.32c-.19-.38-.38-.77-.56-1.17a3.79,3.79,0,0,1-.18-.42c-.28-.62-.52-1.25-.74-1.9a26.31,26.31,0,0,1-1.12-4.55c-.1-.63-.18-1.27-.23-1.91s-.09-1.48-.09-2.23c-1.28-7.12,5.89-37.32,9-51.2,0-.07,0-.14.05-.21s.09-.4.13-.59c.08-.38.15-.74.21-1.09.17-.91.28-1.7.34-2.36.08-.82.12-1.64.12-2.48a26.83,26.83,0,0,0-17.88-25.3l-.08,0-3.75-1L287,895.24c9.75-20.7,10.44-38.47,10.44-38.47a26.39,26.39,0,0,0,10.35-4.46c1.21-1,2.24-1.78,3.26-2.74.31-.28.59-.57.87-.87s.58-.64.85-1,.4-.48.58-.72.25-.31.37-.48a8,8,0,0,0,.48-.66c.16-.23.33-.47.5-.73s.35-.52.51-.79a.13.13,0,0,0,0-.05l0,0a26.41,26.41,0,0,0,2.32-5v0c16.67-40,25.81-157,26-159.33v0h0a26.83,26.83,0,0,1,40.05-22l.06,0c.54.32,1.07.65,1.58,1l.06,0a26.08,26.08,0,0,1,3.39,2.7A26.7,26.7,0,0,1,397,677.48c.07,1.16.16,2.66.25,4.48.21,3.7.46,8.71.73,14.82C401.14,770.19,405.38,1001.53,333.17,1007.48Z"/><path class="cls-7" d="M383.67,657.94a26.83,26.83,0,0,0-40.05,22h0v0c-.19,2.33-9.33,119.34-26,159.33v0c-.76,1.82-1.53,3.48-2.32,5l0,0a.13.13,0,0,1,0,.05c-.16.27-.33.53-.51.79s-.34.5-.5.73a8,8,0,0,1-.48.66c-.12.17-.24.33-.37.48s-.38.49-.58.72-.56.65-.85,1-.56.59-.87.87c-1,1-2.05,1.76-3.26,2.74a26.39,26.39,0,0,1-10.35,4.46,16.5,16.5,0,0,0-2.63.38l-1.11.09h-.06q-2.3,0-4.41-.15h0c-31.36-1.39-28.57-3.7-28.57-3.7,6.89.33,5.29-7.51,8.73-9,7.71-3.29,8.21-9.19,8.21-9.19-3.67,1.17-7.37,2.11-11,2.88h0a156.92,156.92,0,0,1-36.87,3.16c10.82-11.76,10.35-28.63,10.35-28.63-7.53,10.35-30.24,14.47-30.24,14.47,6.12-6.59,10-20.52,10-20.52-12.23,5.71-28.23-1-21.56-.07S208.53,798,208.53,798c-10.33,0-16.74-6.43-19.6-10.18,4.21,2.76,9.28,3.78,14.66,4.36,19.06,2.08,24.61-14.09,26.2-22.31.75-3.84,1.55-7.68,2.56-11.47,11-41.56,19.25-114.65,21.94-141.15a22.06,22.06,0,0,1-.11-2.31c0-.46,0-.92,0-1.37,0-.18,0-.27,0-.27a26.51,26.51,0,0,1,1-5.74,26.82,26.82,0,0,1,38.56-16.2,26.48,26.48,0,0,1,6,4.42l58.58,43.36Z"/><path class="cls-1" d="M289.26,857.09q2.12.1,4.41.15l-1.38,0A25.16,25.16,0,0,1,289.26,857.09Z"/><path class="cls-1" d="M294.84,857.15a16.5,16.5,0,0,1,2.63-.38A25.23,25.23,0,0,1,294.84,857.15Z"/><path class="cls-1" d="M317.61,839.31a26.41,26.41,0,0,1-2.32,5C316.08,842.79,316.85,841.13,317.61,839.31Z"/><path class="cls-8" d="M322.35,1006.39c-2.68-.69-46.25-12.1-64.75-26.59,2-23.53,1.93-53,2.22-56.93A25.59,25.59,0,0,1,260,920c0-.48.11-1,.19-1.42s.17-.94.27-1.4.19-.83.3-1.23.16-.56.25-.84a18.6,18.6,0,0,1,.63-1.82c.15-.41.32-.81.5-1.2a2.18,2.18,0,0,1,.09-.23l.07-.17,0,0a26.85,26.85,0,0,1,29.46-15.06l3.75,1,.08,0a26.83,26.83,0,0,1,17.88,25.3c0,.84,0,1.66-.12,2.48-.06.66-.17,1.45-.34,2.36-.06.35-.13.71-.21,1.09,0,.19-.08.39-.13.59s0,.14-.05.21c-3.14,13.88-10.31,44.08-9,51.2,0,.75,0,1.49.09,2.23s.13,1.28.23,1.91a26.31,26.31,0,0,0,1.12,4.55c.22.65.46,1.28.74,1.9a3.79,3.79,0,0,0,.18.42c.18.4.37.79.56,1.17l.17.32c.27.53.57,1.05.89,1.56a26.72,26.72,0,0,0,2.85,3.82c.39.44.8.86,1.21,1.27a1.06,1.06,0,0,1,.15.15c.45.43.92.85,1.4,1.25a25.24,25.24,0,0,0,2.71,2c.25.17.51.33.77.48a26.8,26.8,0,0,0,4.17,2l.61.22Z"/><path class="cls-7" d="M291.76,896.53a26.85,26.85,0,0,0-29.46,15.06l0,0-.07.17a2.18,2.18,0,0,0-.09.23,10.47,10.47,0,0,0-.5,1.2,18.6,18.6,0,0,0-.63,1.82c-.1.28-.18.56-.25.84s-.21.82-.3,1.23-.19.93-.27,1.4-.14.94-.19,1.42a25.59,25.59,0,0,0-.16,2.92c-.29,3.94-.18,33.4-2.22,56.93,0,0,0,.06,0,.09-.82,9.38-2,17.82-3.67,23.3-.07.24-.14.48-.23.71a15.78,15.78,0,0,1-14.85,10.52c-.28,0-.55,0-.82,0a16.11,16.11,0,0,1-8.6-3.11h0a15.73,15.73,0,0,1-6.26-11.69c0-.29,0-.58,0-.88s0-.61,0-.91,0-.62.08-.93.05-.45.09-.68c1.36-9.34,9.44-21,9.44-21a20,20,0,0,0-18.35,5.59s-6.82-14.06,0-25.36c0,0-15.76,1.65-18.82,20.24-8.94-9.18-3.77-26-3.77-26a10,10,0,0,0-6.17-.1c1.27-21,1.23-43.07,1.47-46.44,0-.66.11-1.31.19-1.93,0-.19.05-.38.08-.57.15-1.16.35-2.24.56-3.22.09-.41.18-.8.28-1.18s.19-.73.28-1.07l.09-.32c.05-.18.1-.34.15-.5.27-.93.52-1.62.67-2,0-.09.07-.17.09-.23a1.44,1.44,0,0,1,.07-.16,26.81,26.81,0,0,1,24.36-15.6,26.42,26.42,0,0,1,7.43,1h0L287,895.24Z"/><path class="cls-1" d="M238,1014.39c-.44,0-.87-.06-1.3-.12h0a15.6,15.6,0,0,1-7.27-3A16.11,16.11,0,0,0,238,1014.39Z"/><polyline class="cls-1" points="383.67 657.94 383.73 657.97 388.76 661.7"/><path class="cls-1" d="M311.08,849.57a25.16,25.16,0,0,1-3.26,2.74C309,851.33,310.06,850.53,311.08,849.57Z"/><path class="cls-1" d="M293.73,857.24a5.94,5.94,0,0,0,1.11-.09"/><path class="cls-1" d="M187.19,785.22s.24.45.72,1.18h0c.27.4.61.9,1,1.44"/><path class="cls-1" d="M189.42,892.32c-.15.42-.4,1.11-.67,2-.05.16-.1.32-.15.5l-.09.32c-.09.34-.19.69-.28,1.07s-.19.77-.28,1.18c-.21,1-.41,2.06-.56,3.22a5.58,5.58,0,0,0-.08.57c-.08.62-.14,1.27-.19,1.93A26.32,26.32,0,0,1,189.42,892.32Z"/><path class="cls-8" d="M238.24,1014.42C203.74,1015.83,164.48,996,159,993l-.69-.38A15.71,15.71,0,0,1,150.41,979s-4.12-22.36,13.53-31.89c0,0-4.59,13.54,6,15.95,0,0,7.33-11.1,15.71-13.45a10,10,0,0,1,6.17.1s-5.17,16.81,3.77,26c3.06-18.59,18.82-20.24,18.82-20.24-6.82,11.3,0,25.36,0,25.36a20,20,0,0,1,18.35-5.59s-8.08,11.63-9.44,21c0,.23-.07.46-.09.68s-.06.62-.08.93,0,.61,0,.91,0,.59,0,.88a15.73,15.73,0,0,0,6.26,11.69h0a16.11,16.11,0,0,0,8.6,3.11Z"/><path class="cls-1" d="M189.6,891.87l0,.06"/><path class="cls-5" d="M598.7,598.1a4.49,4.49,0,0,1-4.33-3.28c-.13-.48-13.65-47.34-44-50.19-6.83-.64-12.09,1-16.11,5-9,8.84-9.52,27.77-9,34.31a4.5,4.5,0,0,1-9,.74c-.09-1.14-2.12-27.87,11.62-41.45,6-5.88,13.78-8.41,23.28-7.52,36.55,3.43,51.25,54.55,51.86,56.72a4.51,4.51,0,0,1-3.13,5.55A4.57,4.57,0,0,1,598.7,598.1Z"/><path class="cls-5" d="M502.72,713.13c-35.93,0-74.47-4.69-115-14a4.5,4.5,0,1,1,2-8.77C504.7,716.79,581.13,700,625,681.21c47.42-20.28,68.07-47.14,68.28-47.41a4.5,4.5,0,1,1,7.19,5.41c-.87,1.16-21.93,28.73-71.3,50C600.37,701.63,567.8,709.3,532.4,712Q517.88,713.13,502.72,713.13Z"/><g class="cls-9"><ellipse class="cls-10" cx="618.53" cy="343.15" rx="149.23" ry="127.51" transform="translate(171.32 891.18) rotate(-79.81)"/></g><ellipse class="cls-7" cx="611.67" cy="374.79" rx="115.36" ry="110.12" transform="matrix(0.5, -0.87, 0.87, 0.5, -18.74, 717.12)"/><g class="cls-11"><path class="cls-12" d="M513.41,325.06s-31.8,165.2,159,142.85l13.46,17.18L540,511.92l-73.59-62.83v-132Z"/></g><path class="cls-4" d="M569.65,378.86a48.88,48.88,0,1,0,48.88,48.88A48.88,48.88,0,0,0,569.65,378.86Zm29.05,51.7a13,13,0,1,1,13-13A13,13,0,0,1,598.7,430.56Z"/><path class="cls-13" d="M888.18,256.45c-12,7.46-15.26-7.84-25.77-24.8s-24.34-29.15-12.32-36.6,30.29.24,40.81,17.2S900.2,249,888.18,256.45Z"/><g class="cls-14"><g class="cls-9"><path class="cls-10" d="M422.65,576.2s65.64,273.13,282.7,224.42c0,0,27.1-6.16,38.44-66.61l32.5,105.3-270,42.84L399.38,704.27,386.22,534.86Z"/></g></g><path class="cls-15" d="M328.76,660.44a2.49,2.49,0,0,1-1.44-.46L275.08,622.9a2.5,2.5,0,0,1,2.9-4.08l52.23,37.08a2.5,2.5,0,0,1-1.45,4.54Z"/><path class="cls-15" d="M321,688a2.46,2.46,0,0,1-1.45-.47L267.28,650.4a2.5,2.5,0,1,1,2.89-4.07l52.24,37.08A2.5,2.5,0,0,1,321,688Z"/><path class="cls-15" d="M315.38,718.25a2.52,2.52,0,0,1-1.45-.46L261.7,680.71a2.5,2.5,0,1,1,2.89-4.08l52.24,37.08a2.5,2.5,0,0,1-1.45,4.54Z"/><path class="cls-15" d="M312.42,745.74a2.52,2.52,0,0,1-1.45-.46L258.74,708.2a2.5,2.5,0,1,1,2.89-4.08l52.24,37.08a2.5,2.5,0,0,1-1.45,4.54Z"/><path class="cls-15" d="M302.65,772.86a2.49,2.49,0,0,1-1.45-.46L249,735.32a2.5,2.5,0,1,1,2.9-4.08l52.23,37.08a2.5,2.5,0,0,1-1.44,4.54Z"/><path class="cls-15" d="M297.47,798.54a2.52,2.52,0,0,1-1.45-.46L243.79,761a2.5,2.5,0,0,1,2.89-4.08L298.92,794a2.5,2.5,0,0,1-1.45,4.54Z"/><path class="cls-15" d="M292,817.08a2.49,2.49,0,0,1-1.45-.46l-52.23-37.08a2.5,2.5,0,1,1,2.89-4.08l52.24,37.08a2.5,2.5,0,0,1-1.45,4.54Z"/><path class="cls-15" d="M250.41,905.65a2.68,2.68,0,0,1-.62-.07l-42.35-10.84a2.5,2.5,0,1,1,1.24-4.84L251,900.73a2.5,2.5,0,0,1-.62,4.92Z"/><path class="cls-15" d="M242.73,924.85a2.7,2.7,0,0,1-.62-.08l-42.35-10.83A2.5,2.5,0,1,1,201,909.1l42.35,10.83a2.5,2.5,0,0,1-.62,4.92Z"/><path class="cls-15" d="M239.73,947.88a2.7,2.7,0,0,1-.62-.08L196.76,937a2.5,2.5,0,1,1,1.24-4.84L240.35,943a2.5,2.5,0,0,1-.62,4.92Z"/><g class="cls-9"><ellipse class="cls-10" cx="615.9" cy="968.39" rx="126.55" ry="17.17"/></g></g></svg>