<svg id="Lista_de_deseados" data-name="Lista de deseados" xmlns="http://www.w3.org/2000/svg" xmlns:xlink="http://www.w3.org/1999/xlink" viewBox="0 0 1080 1080"><defs><style>.cls-1{fill:none;}.cls-2{fill:#f9c402;}.cls-3{opacity:0.35;}.cls-4{fill:#431447;}.cls-5{fill:#57115b;}.cls-6{fill:#7e2081;}.cls-7{clip-path:url(#clip-path);}.cls-8{fill:#231f20;}.cls-9{fill:#fff;}.cls-10{fill:#dad7db;}.cls-11{fill:#e2dcde;}.cls-12{fill:#bc5bbc;}.cls-13{fill:#e7dde8;}</style><clipPath id="clip-path"><path class="cls-1" d="M1058.17,369.73c0-169-137-305.91-305.91-305.91s-305.91,137-305.91,305.91c0,0-62,443.47,244.38,607.31a144.32,144.32,0,0,0,17.94,9.09l0,0h0a150.49,150.49,0,0,0,58.56,11.72c1.44,0,2.86,0,4.28-.07s3.06.07,4.6.07c95.09,0,172.18-91.18,172.18-203.67a239.58,239.58,0,0,0-4.91-48.4C941.87,704,936,671.16,965.78,623.05c33.76-54.53,55.11-101.42,67.26-131.77a302.94,302.94,0,0,0,12.72-35.1c.31-1,.46-1.51.46-1.51h0A305.92,305.92,0,0,0,1058.17,369.73Z"/></clipPath></defs><title>Lista de deseados</title><circle class="cls-2" cx="511.12" cy="536" r="489.28"/><g class="cls-3"><ellipse class="cls-4" cx="598.66" cy="967.72" rx="321.54" ry="65.56"/></g><path class="cls-5" d="M336.4,713.91a8.63,8.63,0,0,1-8.23-11.28c10.52-32.78,36.62-56.24,75.48-67.81a186.73,186.73,0,0,1,54.9-7.59,8.64,8.64,0,0,1-.66,17.27h0c-.92,0-92.08-2.64-113.27,63.41A8.64,8.64,0,0,1,336.4,713.91Z"/><path class="cls-6" d="M1058.17,369.73c0-169-137-305.91-305.91-305.91-165.55,0-300.38,131.5-305.74,295.74-.22,6.64-.61,13.27-1.31,19.87-6.88,65.77-34,448.1,245.52,597.61a144.32,144.32,0,0,0,17.94,9.09l0,0h0a150.49,150.49,0,0,0,58.56,11.72c1.44,0,2.86,0,4.28-.07s3.06.07,4.6.07c95.09,0,172.18-91.18,172.18-203.67A240.75,240.75,0,0,0,945.9,760c-1.58-11-2.82-22.08-3.36-33.19-1.64-33.39-1.88-63.12,23.24-103.71,33.76-54.53,55.11-101.42,67.26-131.77a302.94,302.94,0,0,0,12.72-35.1c.31-1,.46-1.51.46-1.51h0A305.92,305.92,0,0,0,1058.17,369.73Z"/><g class="cls-7"><g class="cls-3"><path class="cls-4" d="M478.88,713.15s68.32,192.9,216.6,231c63.12,16.23,157.38-6.47,238.48-68.4l-35.75,135.62-282,59.8L347.44,647.75Z"/></g></g><g class="cls-3"><path class="cls-4" d="M725.55,662.1a38.15,38.15,0,0,1-64.71-21.35,38.15,38.15,0,1,0,74.22,5.52A38,38,0,0,1,725.55,662.1Z"/></g><path class="cls-5" d="M693.24,696.51a44.63,44.63,0,0,1-25.52-81.24,6.48,6.48,0,1,1,7.42,10.62,31.67,31.67,0,1,0,38.72,50,6.48,6.48,0,0,1,8.45,9.83A44.65,44.65,0,0,1,693.24,696.51Z"/><path class="cls-5" d="M608.3,736.82a73.64,73.64,0,0,1-57.7-28.2,6.48,6.48,0,1,1,10.13-8.08,60.75,60.75,0,0,0,47.57,23.33c25.73,0,49.06-17,58-42.18A6.48,6.48,0,0,1,678.54,686C667.73,716.41,639.5,736.82,608.3,736.82Z"/><path class="cls-8" d="M503.93,238.94a8.28,8.28,0,0,0,1.06-3c.25-1.05.46-2.11.67-3.19.42-2.14.88-4.28,1.34-6.45,1-4.3,2.07-8.64,3.45-12.92a126.8,126.8,0,0,1,11-25.21A111,111,0,0,1,539,165.24a102.24,102.24,0,0,1,24.41-18,107.85,107.85,0,0,1,29.26-10.4,117.76,117.76,0,0,1,15.32-2,121.12,121.12,0,0,1,15.23-.16c1.26,0,2.51.12,3.76.22s2.55.17,3.69.31l7,.81c2.35.24,4.71.71,7.07,1.09l3.53.6,3.54.74c4.73.93,9.44,2.28,14.15,3.59,2.35.75,4.69,1.56,7,2.34s4.65,1.78,7,2.67,4.59,2,6.87,3.06c1.14.54,2.28,1,3.41,1.62l3.35,1.77,3.34,1.82c1.09.64,2.17,1.33,3.26,2,2.16,1.34,4.34,2.63,6.41,4.15a134,134,0,0,1,23,20.06c13.68,15,23.22,32.56,29.49,50.2a176.12,176.12,0,0,1,7.25,26.71,207.78,207.78,0,0,1,3.47,26.71,228.52,228.52,0,0,1,.28,26.55A193.48,193.48,0,0,1,767.28,338c-4.15-7.93-7.7-15.86-11.35-23.64l-5.37-11.6c-1.87-3.8-3.55-7.64-5.4-11.37-3.57-7.51-7.23-14.83-11-21.89s-7.68-13.89-11.83-20.29C714,236.42,705,225.1,694.71,216.12a122.05,122.05,0,0,0-34.42-21.22,151.34,151.34,0,0,0-20.16-6.75l-2.63-.74-2.69-.62-2.69-.62c-.89-.23-1.79-.45-2.71-.62l-5.5-1.12c-1.79-.32-3.43-.68-5.14-.92-13.6-2.16-26.74-2.07-39.7,1.23a91.46,91.46,0,0,0-19.33,7.42,120.25,120.25,0,0,0-18.83,12.29,201.82,201.82,0,0,0-18.11,16.28c-2.94,3-5.93,6.06-8.92,9.23-1.53,1.56-3,3.17-4.61,4.75-.8.78-1.61,1.57-2.46,2.33-.43.38-.87.75-1.34,1.1A4.06,4.06,0,0,1,503.93,238.94Z"/><path class="cls-5" d="M504.19,1020a63.75,63.75,0,0,1-20.28-3.61A8.64,8.64,0,0,1,489.4,1000c33.68,11.31,44.54-13.84,60.84-59.26,15.3-42.61,34.33-95.64,92.91-95.64,21.35,0,38.1,7.17,49.79,21.31,26.45,32,16,88.19,15.6,90.57a8.64,8.64,0,0,1-17-3.25c.14-.73,9.26-50.71-12-76.35-8.36-10.1-20.29-15-36.45-15-46.42,0-61.79,42.81-76.65,84.21-7.76,21.62-15.08,42-26.71,55.95C530.08,1014.14,518.16,1020,504.19,1020Z"/><path class="cls-5" d="M376.38,941.15a63.74,63.74,0,0,1-20.27-3.61,8.64,8.64,0,0,1,5.49-16.38c33.68,11.31,44.54-13.84,60.84-59.25,15.29-42.62,34.33-95.65,92.9-95.65,21.76,0,39.62,7.22,53.08,21.45,29.16,30.84,26.57,83.57,26.45,85.8a8.64,8.64,0,0,1-17.25-1h0c0-.48,2.26-47.65-21.79-73-10.21-10.77-23.45-16-40.49-16-46.42,0-61.78,42.81-76.64,84.21-7.76,21.62-15.09,42-26.71,56C402.28,935.32,390.36,941.15,376.38,941.15Z"/><path class="cls-9" d="M298.51,704C238,708.94,186.19,736.13,157.3,774.68c.08-1.65.11-3.32.11-5,0-61.43-47.56-112.23-109.35-120.45,25.31-8.55,54.13-13.38,84.72-13.38C206.37,635.86,269.77,663.81,298.51,704Z"/><path class="cls-10" d="M510.94,857.07q.18,3.06.18,6.17c0,43.34-25.31,82.13-65.22,108.2a.89.89,0,0,0,.08-.17,33.84,33.84,0,0,0-.25-22.53c-5.56-16.37-22-32-44.4-40-25.3-9-50.84-5.75-64.94,6.68,14-49.46,61.06-85.82,116.9-85.82a125,125,0,0,1,41.2,6.92c3.17,1.09,6.26,2.33,9.3,3.67,0,0,0,0,0,0h0a18.34,18.34,0,0,1,6.37,8.72,17.39,17.39,0,0,1,.93,5.65A16.76,16.76,0,0,1,510.94,857.07Z"/><path class="cls-9" d="M510.19,849a18.34,18.34,0,0,0-6.37-8.72h0s0,0,0,0c-3-1.34-6.13-2.58-9.3-3.67a125,125,0,0,0-41.2-6.92c-55.84,0-102.87,36.36-116.9,85.82-.1.38-.21.77-.31,1.14.06-.33.11-.68.17-1A118.87,118.87,0,0,0,338,895c0-35.95-16-68.35-41.68-91.21a136.64,136.64,0,0,0-91.05-34.13A140,140,0,0,0,184,771.3a138.12,138.12,0,0,0-24.13,5.93,1.93,1.93,0,0,1-2.57-1.9v0a2,2,0,0,1,.39-1.09c29-38.3,80.59-65.28,140.85-70.19q9.78-.79,19.85-.8c87.64,0,161.1,46.55,180.54,109.14a1.22,1.22,0,0,0,.1.24,116.07,116.07,0,0,1,10.2,30.16C509.59,844.8,509.92,846.88,510.19,849Z"/><path class="cls-5" d="M594.24,939.45c-33.31,0-58.36-6.8-74.84-20.38-24.14-19.9-23.81-48.57-23.66-62.35,0-2,.05-4.56-.06-5.52A8.64,8.64,0,0,1,512,845.57c1.11,2.9,1.07,6.26,1,11.34-.15,12.79-.39,34.19,17.37,48.83,23.29,19.2,69.88,21.76,138.45,7.61,75.75-15.63,132.46-49.22,164-97.14,23.79-36.12,25.2-68.13,25.21-68.45a8.64,8.64,0,0,1,17.27.54c-.05,1.47-1.39,36.42-27.43,76.47-23.73,36.5-73.45,84.42-175.58,105.5Q627.81,939.45,594.24,939.45Zm-98.38-87.74h0Z"/><path class="cls-11" d="M390.12,833.22a3.62,3.62,0,0,1-3.35-2.28c-18.94-48.07-50.52-78.25-93.85-89.72-32.33-8.55-59.28-2.93-59.55-2.87a3.6,3.6,0,0,1-1.51-7c1.16-.25,28.92-6,62.9,3,31.4,8.3,74,31.36,98.71,94a3.6,3.6,0,0,1-3.35,4.92Z"/><path class="cls-11" d="M433.25,813.49a3.59,3.59,0,0,1-3.35-2.28c-18.9-48-50.38-78.11-93.56-89.63-32.36-8.64-59.57-3-59.84-3a3.6,3.6,0,1,1-1.51-7c1.16-.25,28.92-6,62.9,2.95,31.4,8.31,74,31.36,98.71,94a3.6,3.6,0,0,1-3.35,4.92Z"/><path class="cls-11" d="M207.89,727.59a3.6,3.6,0,0,1-3.39-2.39c-.26-.73-26.48-72.66-76.13-76.2a3.6,3.6,0,0,1,.51-7.18c54.35,3.87,81.28,77.82,82.4,81a3.59,3.59,0,0,1-2.18,4.59A3.67,3.67,0,0,1,207.89,727.59Z"/><path class="cls-11" d="M252.54,713.44a3.6,3.6,0,0,1-3.49-2.73c-.14-.58-15.1-58.19-64.45-61.71a3.6,3.6,0,0,1,.51-7.18c54.61,3.89,70.77,66.53,70.93,67.16a3.59,3.59,0,0,1-2.63,4.35A3.24,3.24,0,0,1,252.54,713.44Z"/><ellipse class="cls-12" cx="695.48" cy="635.86" rx="16.77" ry="11.89"/><path class="cls-12" d="M960.84,227c-7.91,10.73-16.09-1.53-31.22-12.7s-31.49-17-23.57-27.74,26.6-10.37,41.73.8S968.76,216.28,960.84,227Z"/><g class="cls-3"><path class="cls-4" d="M487.87,365.73s6.1-140.85,98.46-146.1c77.14-4.38,150,34.55,145,182.91S487.87,365.73,487.87,365.73Z"/></g><ellipse class="cls-9" cx="603.98" cy="428.03" rx="127.4" ry="151.16"/><path class="cls-13" d="M551.93,550c-49.61-25.66-55.27-46.54-73.08-93.46,11.22,69.87,63,122.69,125.13,122.69,50.31,0,93.79-34.59,114.5-84.82-32.63,41.71-61.61,58.67-90,65.42A111,111,0,0,1,551.93,550Z"/><path class="cls-8" d="M574.47,370.45c-28.62,0-51.82,37.7-51.82,84.22s23.2,84.21,51.82,84.21,51.83-37.7,51.83-84.21S603.09,370.45,574.47,370.45Zm20.88,84.94a20.88,20.88,0,1,1,20.87-20.88A20.88,20.88,0,0,1,595.35,455.39Z"/></svg>