<svg xmlns="http://www.w3.org/2000/svg" width="32" height="32" viewBox="0 0 32 32"><defs><style>.a{fill:none;}.b{fill:#00a09c;}</style></defs><path class="a" d="M0,0H32V32H0Z"/><path class="b" d="M26.111,7.9H23.222A7.071,7.071,0,0,0,16,1,7.071,7.071,0,0,0,8.778,7.9H5.889a2.823,2.823,0,0,0-2.874,2.762L3,27.238A2.836,2.836,0,0,0,5.889,30H26.111A2.836,2.836,0,0,0,29,27.238V10.667A2.836,2.836,0,0,0,26.111,7.9ZM16,3.762A4.236,4.236,0,0,1,20.333,7.9H11.667A4.236,4.236,0,0,1,16,3.762Zm0,13.81a7.071,7.071,0,0,1-7.222-6.9h2.889A4.236,4.236,0,0,0,16,14.81a4.236,4.236,0,0,0,4.333-4.143h2.889A7.071,7.071,0,0,1,16,17.571Z" transform="translate(0)"/></svg>