<svg xmlns="http://www.w3.org/2000/svg" xmlns:xlink="http://www.w3.org/1999/xlink" viewBox="0 0 1080 1080"><defs><style>.cls-1{fill:none;}.cls-2{fill:#f9c402;}.cls-3{fill:#7e2081;}.cls-4{fill:#231f20;}.cls-5{fill:#ffe092;}.cls-6{fill:#3b4144;}.cls-7{fill:#57115b;}.cls-8{fill:#0e646b;}.cls-9{fill:#36c1c1;}.cls-10{fill:#00918b;}.cls-11{fill:#474d51;}.cls-12{fill:#9ba3a8;}.cls-13{clip-path:url(#clip-path);}.cls-14{fill:#f78484;}.cls-15{clip-path:url(#clip-path-2);}.cls-16{fill:#efc47f;}.cls-17{opacity:0.35;}.cls-18{fill:#431447;}.cls-19{clip-path:url(#clip-path-3);}</style><clipPath id="clip-path"><path class="cls-1" d="M757.59,464.41l-228.5,45.78S545.72,674.7,677.33,639.65,757.59,464.41,757.59,464.41Z"/></clipPath><clipPath id="clip-path-2"><path class="cls-1" d="M737.52,230.61h0c-25,34.47-56.82,57.86-57.54,58.4h0v0c-.21-.4-4-7.7-16.38-11.48-16.71-5.13-49-3.82-109.12,29.71-15.33,8.54-32.48,19.19-51.64,32.38-72.33,39.16-131.89,58.95-179.91,66.53-1.55.24-3.08.48-4.6.69-145.46,20.92-182.1-71.51-146-68.3,48.28,4.3,112.65-4.28,112.65-4.28l1.12,4.62,6.4,26.48c20.5-2.68,40.56-10.88,60.23-23A228.57,228.57,0,0,1,439.51,266c19.05-20.78,37.72-43.1,56.05-65.2,79.77-96.15,153.38-188.31,224-132.67C790.33,123.94,769.57,186.39,737.52,230.61Z"/></clipPath><clipPath id="clip-path-3"><path class="cls-1" d="M770.21,573C764.64,667.28,740,789.39,657.08,858.51l0,0A83.42,83.42,0,0,1,641.37,871c-15.42,9.58-34.89,15.29-56.06,15.29a113.21,113.21,0,0,1-29.93-4h0c-25-6.87-44.94-22.1-54.5-41.44-16.65-29.76-15.82-70.13-62.44-127.53q-3.66-4.5-7.16-8.88C402.14,668,380,636.33,363.93,611.66c-21.46-33-31.92-53.61-33.29-56.65l-.06-.13a1,1,0,0,0,0-.1,226.88,226.88,0,0,1-12.81-44,229.39,229.39,0,0,1,4-100.56c.37-1.38.75-2.76,1.16-4.13,48-7.58,107.58-27.37,179.91-66.53,19.16-13.19,36.31-23.84,51.64-32.38,60.09-33.53,92.41-34.84,109.12-29.71Q672,282.91,680,289v0h0a227.31,227.31,0,0,1,86.65,148.24c.2,1.32.37,2.63.53,4,0,0,0,.3.11.88,0,.2,0,.43.08.68s.06.55.11.87c.39,3.47,1.15,10.54,1.9,20.49q.24,3.21.49,6.81A825.09,825.09,0,0,1,770.21,573Z"/></clipPath></defs><title>Mesa de trabajo 5</title><g id="Visitados"><circle class="cls-2" cx="540" cy="616.72" r="426.85"/><path class="cls-3" d="M770.21,573C764.64,667.28,740,789.39,657.08,858.51l0,0A83.42,83.42,0,0,1,641.37,871c-15.42,9.58-34.89,15.29-56.06,15.29a113.21,113.21,0,0,1-29.93-4h0c-25-6.87-44.94-22.1-54.5-41.44-16.65-29.76-15.82-70.13-62.44-127.53q-3.66-4.5-7.16-8.88C402.14,668,380,636.33,363.93,611.66c-21.46-33-31.92-53.61-33.29-56.65l-.06-.13a1,1,0,0,0,0-.1,226.88,226.88,0,0,1-12.81-44,229.39,229.39,0,0,1,4-100.56c.37-1.38.75-2.76,1.16-4.13,48-7.58,107.58-27.37,179.91-66.53,19.16-13.19,36.31-23.84,51.64-32.38,60.09-33.53,92.41-34.84,109.12-29.71Q672,282.91,680,289v0h0a227.31,227.31,0,0,1,86.65,148.24c.2,1.32.37,2.63.53,4,0,0,0,.3.11.88,0,.2,0,.43.08.68s.06.55.11.87c.39,3.47,1.15,10.54,1.9,20.49q.24,3.21.49,6.81A825.09,825.09,0,0,1,770.21,573Z"/><path class="cls-1" d="M363.93,611.66a226.88,226.88,0,0,1-33.35-56.78C331.68,557.41,342.12,578.11,363.93,611.66Z"/><path class="cls-1" d="M767.34,442.77c0-.25-.06-.48-.08-.68"/><path class="cls-4" d="M712,424.36a109.35,109.35,0,0,0-10.09-7.77,67.85,67.85,0,0,0-9.73-5.51c-.77-.38-1.57-.7-2.36-1a23,23,0,0,0-2.3-.87c-.78-.24-1.53-.5-2.25-.75s-1.52-.35-2.24-.54a10.58,10.58,0,0,0-1.08-.26l-1.1-.17c-.72-.11-1.39-.29-2.11-.35-1.44-.08-2.74-.32-4.13-.27a61.31,61.31,0,0,0-16.18,2,154,154,0,0,0-17.56,5.83c-12.25,5-25.25,11.37-39.19,17.78-3.53,1.51-7,3.25-10.67,4.8-1.8.8-3.68,1.52-5.53,2.31s-3.71,1.59-5.61,2.36c-3.79,1.53-7.77,2.92-11.77,4.37a105.17,105.17,0,0,1-12.74,3.74,91.62,91.62,0,0,1,4.88-12.44,97.74,97.74,0,0,1,6.21-11.41c1.13-1.83,2.28-3.64,3.47-5.42s2.51-3.47,3.82-5.16a109,109,0,0,1,8.28-9.81,116.1,116.1,0,0,1,9.27-9,112.82,112.82,0,0,1,10.29-8.13c1.79-1.29,3.64-2.5,5.48-3.74s3.9-2.26,5.85-3.4,3.93-2.19,6.07-3.13l6.36-2.81a91.09,91.09,0,0,1,28.57-6.33,70.09,70.09,0,0,1,7.8.08c1.32.11,2.64.23,3.95.39l2,.23c.66.1,1.33.25,2,.38a54.93,54.93,0,0,1,7.85,2l3.83,1.36c1.25.55,2.48,1.16,3.7,1.75a54.33,54.33,0,0,1,7,4.14c1.1.76,2.12,1.65,3.16,2.48a28.48,28.48,0,0,1,2.94,2.65c.93.93,1.84,1.87,2.71,2.82s1.63,2,2.4,3a29.75,29.75,0,0,1,2.13,3.13,30.6,30.6,0,0,1,1.87,3.22,45.54,45.54,0,0,1,4.69,13.54A36.51,36.51,0,0,1,712,424.36Z"/><path class="cls-5" d="M737.52,230.61h0c-25,34.47-56.82,57.86-57.54,58.4h0v0c-.21-.4-4-7.7-16.38-11.48-16.71-5.13-49-3.82-109.12,29.71-15.33,8.54-32.48,19.19-51.64,32.38-72.33,39.16-131.89,58.95-179.91,66.53-1.55.24-3.08.48-4.6.69-145.46,20.92-182.1-71.51-146-68.3,48.28,4.3,112.65-4.28,112.65-4.28l1.12,4.62,6.4,26.48c20.5-2.68,40.56-10.88,60.23-23A228.57,228.57,0,0,1,439.51,266c19.05-20.78,37.72-43.1,56.05-65.2,79.77-96.15,153.38-188.31,224-132.67C790.33,123.94,769.57,186.39,737.52,230.61Z"/><path class="cls-5" d="M352.75,342.35c-19.67,12.11-39.73,20.31-60.23,23l-6.4-26.48c-6-48.18,16.7-99.61,62.36-130.46,46.68-31.53,104.3-32.73,147.08-7.58-18.33,22.1-37,44.42-56.05,65.2A228.57,228.57,0,0,0,352.75,342.35Z"/><path class="cls-1" d="M554.45,307.22c-.93,42.59-23.28,85.39-63.27,112.41-55.44,37.45-126.34,32.11-169.44-9.37-1.16-1.11-2.31-2.27-3.44-3.44,1.52-.21,3.05-.45,4.6-.69,48-7.58,107.58-27.37,179.91-66.53C522,326.41,539.12,315.76,554.45,307.22Z"/><path class="cls-6" d="M466.43,533.77c-.27,0-.54,0-.82,0h-138a13.6,13.6,0,0,1,0-27.19H461.09a16.75,16.75,0,0,0-4.79,11.72,17.08,17.08,0,0,0,.38,3.6A16.8,16.8,0,0,0,466.43,533.77Z"/><path class="cls-7" d="M568.87,762.05a5.26,5.26,0,1,1,0-10.52,26.5,26.5,0,0,0,26.48-26.47,5.26,5.26,0,0,1,10.52,0A37,37,0,0,1,568.87,762.05Z"/><path class="cls-7" d="M634.06,762.05c-18.48,0-35.27-5.31-43.82-13.85a5.26,5.26,0,0,1,7.44-7.44c6.55,6.54,20.83,10.77,36.38,10.77,34.58,0,49.46-29.54,49.46-38.92a5.26,5.26,0,1,1,10.52,0c0,7.31-4.55,19.51-14.72,30.27C671.07,751.63,656.52,762.05,634.06,762.05Z"/><path class="cls-7" d="M785.1,512.43a39.29,39.29,0,0,1-7.05-.63,5.26,5.26,0,0,1,.86-10.45h0a5.2,5.2,0,0,1,1,.09c10.78,2,37.76.17,55.81-60,17.23-71.12,5.87-127.27-33.75-166.9-29.62-29.61-64.22-38.42-65.68-38.78l2.53-10.21c1.57.39,38.92,9.9,70.58,41.56A147.79,147.79,0,0,1,847.92,334c8.61,31.94,7.92,69-2,110,0,.09,0,.18-.07.27C828.31,502.77,801.13,512.43,785.1,512.43Z"/><path class="cls-7" d="M416.78,792.5c-6,0-13.37-2.78-22.9-8.5-37.83-22.7-54.23-41.37-54.91-42.15a5.26,5.26,0,1,1,7.95-6.89c.15.17,16.14,18.28,52.37,40,12.6,7.56,17.88,7.66,20.08,6.4,6.54-3.72,6.44-27.6,6.33-55.24q0-6.46,0-13.53c0-19.23,5.14-31.48,15.27-36.4,18.27-8.87,44,10.72,46.89,13a5.26,5.26,0,0,1-6.51,8.27c-6.39-5-25.27-16.9-35.79-11.78-7.72,3.75-9.34,16.72-9.34,26.93q0,7,0,13.49c.15,37.18.24,57.66-11.65,64.43A15.44,15.44,0,0,1,416.78,792.5Z"/><path class="cls-7" d="M502.8,1048.68a5.26,5.26,0,0,1-1-10.41c3.94-.79,18.05-8.82,34.27-79,9-38.78,14.07-77.27,14.12-77.66A5.26,5.26,0,0,1,560.59,883c-.05.39-5.23,39.38-14.3,78.65-17,73.73-32.39,84.94-42.45,86.95A5.31,5.31,0,0,1,502.8,1048.68Z"/><path class="cls-7" d="M659.45,1043.32a5.6,5.6,0,0,1-1.55-.23,70,70,0,0,1-28.08-18.64c-2.9-3.17-9-9.77-2-83.83,3.37-35.57,8.24-70,8.29-70.36a5.26,5.26,0,0,1,10.42,1.48c-.05.33-4.82,34-8.16,69.08-6.26,65.71-1.77,75.3-.81,76.55A59.25,59.25,0,0,0,661,1033a5.26,5.26,0,0,1-1.55,10.29Z"/><polygon class="cls-8" points="440.89 870.01 366.76 832.25 382.42 832.9 396.59 810.32 470.72 848.08 455.64 871.33 440.89 870.01"/><polygon class="cls-1" points="440.89 956.59 366.76 918.83 396.59 870.01 470.72 934.66 440.89 956.59"/><polygon class="cls-9" points="440.89 956.59 440.89 870.01 455.64 871.33 470.72 848.08 470.72 934.66 440.89 956.59"/><polygon class="cls-10" points="366.76 832.25 366.76 918.83 440.89 956.59 440.89 870.01 366.76 832.25"/><path class="cls-4" d="M455.64,874.25a2.92,2.92,0,0,1-2.92-2.77c-1.25-24.12-9.82-87-34.15-88.48a19.9,19.9,0,0,0-15.49,5.46c-13.84,12.85-14.45,43.53-14.45,43.83a2.92,2.92,0,0,1-2.92,2.88h0a2.91,2.91,0,0,1-2.88-3c0-1.36.64-33.46,16.3-48a25.92,25.92,0,0,1,19.82-7c34.5,2,39.45,90.26,39.65,94a2.93,2.93,0,0,1-2.77,3.07Z"/><path class="cls-11" d="M757.59,464.41l-228.5,45.78S545.72,674.7,677.33,639.65,757.59,464.41,757.59,464.41Z"/><path class="cls-4" d="M642.46,645.12c-20.11,0-38.09-5.41-53.72-16.22-51.27-35.44-60.15-117.83-60.23-118.65l0-.53.52-.1,229-45.88.17.47c.25.66,24,67-3.26,119.37-14.44,27.75-40.47,46.81-77.39,56.64A136.32,136.32,0,0,1,642.46,645.12ZM529.73,510.66c.85,7.11,11,83.63,59.67,117.28,23.93,16.54,53.46,20.29,87.78,11.15,36.59-9.75,62.38-28.6,76.66-56.05,25.81-49.63,5.44-111.92,3.36-118Z"/><path class="cls-12" d="M674.86,638.26a11.37,11.37,0,0,1-10.58-15.5l29.41-75.36-49.24,9.7,24.82-74.79a11.37,11.37,0,1,1,21.58,7.16l-12.55,37.8,51.62-10.17L685.45,631A11.36,11.36,0,0,1,674.86,638.26Z"/><g class="cls-13"><path class="cls-12" d="M557,608.54a13.14,13.14,0,0,1-12.23-17.91l34-87.06-56.89,11.2,28.67-86.4a13.13,13.13,0,1,1,24.93,8.27L561,480.31l59.64-11.74L569.27,600.18A13.14,13.14,0,0,1,557,608.54Z"/></g><path d="M790.94,470.39q-1.47-6.78-3.44-13.36a16.62,16.62,0,0,0,.38-3.54,17.12,17.12,0,0,0-.38-3.59,16.82,16.82,0,0,0-20-12.84l-26.12,5.68-200.25,43.6-37.68,8.2-33.92,7.39a16.83,16.83,0,0,0-13.23,16.4,17.08,17.08,0,0,0,.38,3.6,16.84,16.84,0,0,0,20,12.85l30.11-6.56c.26,1.29.52,2.58.8,3.86C516.68,573.81,539.72,610,572.45,634c25.25,18.49,53.94,28.09,83,28.09a132.4,132.4,0,0,0,28.21-3c38.27-8.33,70.48-32.84,90.71-69C794.14,554.6,800,512.12,790.94,470.39Zm-115.29,152a93.84,93.84,0,0,1-20,2.15c-50.92,0-98.57-41.34-111.44-100.43-.28-1.29-.54-2.59-.79-3.87l210-45.72c.33,1.27.62,2.55.9,3.85C768.85,545.16,733.57,609.77,675.65,622.39Z"/><path class="cls-14" d="M285,334.24s56.69-7,100.77-30.67a319.53,319.53,0,0,0-33,38.78c-9.45,5.5-24.82,16.56-60.23,23C290.13,355.47,285,334.24,285,334.24Z"/><g class="cls-15"><path class="cls-16" d="M697.08,303.57S824.68,196.9,659.45,154,576.72,380,242.21,407.19l20.26,67.33Z"/></g><g class="cls-17"><ellipse class="cls-18" cx="577.08" cy="1038.06" rx="134.94" ry="23.31"/></g><g class="cls-19"><g class="cls-17"><path class="cls-18" d="M261,450.1s186.44,4.3,307.91-105.83S913.09,444.8,913.09,444.8L543.44,41.1Z"/></g><g class="cls-17"><path class="cls-18" d="M330.58,631.36s80.61-43,154,122S703.06,807.1,703.06,807.1L751,927.54,430.49,962.86,293.13,740.92Z"/></g></g></g></svg>