<svg xmlns="http://www.w3.org/2000/svg" width="32" height="32" viewBox="0 0 32 32"><defs><style>.a{fill:none;}.b{fill:#00a09c;}</style></defs><path class="a" d="M0,0H32V32H0Z"/><path class="b" d="M16,14.659c-1.995,0-6,.942-6,2.813V17.7a8.249,8.249,0,0,0,12,0v-.225C22,15.6,17.995,14.659,16,14.659Zm0-1.407a2.92,2.92,0,0,0,3-2.813,2.92,2.92,0,0,0-3-2.813,2.92,2.92,0,0,0-3,2.813A2.92,2.92,0,0,0,16,13.252ZM16,2c6.3,0,12,4.529,12,11.534q0,6.709-11.01,15.8a1.6,1.6,0,0,1-2,0Q4.015,20.236,4,13.534C4,6.529,9.7,2,16,2Z"/></svg>