<svg xmlns="http://www.w3.org/2000/svg" width="40" height="40" viewBox="0 0 40 40"><defs><style>.a{fill:#ff8659;}.b{fill:#ff6326;}.c{fill:#fff16b;}.d{fill:#ffb454;}.e{fill:#ff7038;}.f{fill:#ff405c;}.g{fill:#00429b;}.h{fill:#002659;}</style></defs><path class="a" d="M203.484,97.156H186.3a4.3,4.3,0,0,1-4.3-4.3V72.547a1.172,1.172,0,0,1,.234-.7l7.031-9.375A1.172,1.172,0,0,1,190.2,62h9.375a1.172,1.172,0,0,1,.938.469l7.031,9.375a1.172,1.172,0,0,1,.234.7V92.859A4.3,4.3,0,0,1,203.484,97.156Z" transform="translate(-167.781 -57.156)"/><path class="b" d="M359.656,71.844l-7.031-9.375a1.172,1.172,0,0,0-.937-.469H347V97.156h8.594a4.3,4.3,0,0,0,4.3-4.3V72.547A1.172,1.172,0,0,0,359.656,71.844Z" transform="translate(-319.891 -57.156)"/><path class="c" d="M13.409,34.595,1.256,22.441a4.3,4.3,0,0,1,0-6.077L15.619,2a1.172,1.172,0,0,1,.663-.331L27.883.013a1.172,1.172,0,0,1,.994.331l6.629,6.629a1.172,1.172,0,0,1,.331.994l-1.657,11.6a1.172,1.172,0,0,1-.331.663L19.486,34.595a4.3,4.3,0,0,1-6.077,0Z" transform="translate(0.001 -0.001)"/><path class="d" d="M120.713,62.732l1.657-11.6a1.172,1.172,0,0,0-.331-.994l-3.315-3.315L93.865,71.681l6.077,6.077a4.3,4.3,0,0,0,6.077,0l14.363-14.363A1.172,1.172,0,0,0,120.713,62.732Z" transform="translate(-86.532 -43.164)"/><path class="e" d="M174.665,131.709a1.172,1.172,0,0,1-.284-1.2l5.524-16.573a1.172,1.172,0,1,1,2.223.741L176.6,131.25a1.172,1.172,0,0,1-1.94.459Z" transform="translate(-160.702 -104.296)"/><path class="f" d="M277.606,190.233a3.517,3.517,0,1,0,0,4.974A3.521,3.521,0,0,0,277.606,190.233Zm-1.658,3.316a1.172,1.172,0,1,1,0-1.658A1.174,1.174,0,0,1,275.948,193.549Z" transform="translate(-250.384 -174.423)"/><path class="e" d="M93.759,190.233a3.517,3.517,0,1,0,0,4.974A3.521,3.521,0,0,0,93.759,190.233ZM92.1,193.549a1.172,1.172,0,1,1,0-1.658A1.174,1.174,0,0,1,92.1,193.549Z" transform="translate(-80.9 -174.423)"/><path class="f" d="M176.6,221l3.5-10.51-3.706,3.706-2.021,6.063A1.172,1.172,0,0,0,176.6,221Z" transform="translate(-160.701 -194.043)"/><g transform="translate(27.221)"><path class="g" d="M356.71.343a1.172,1.172,0,0,0-1.657,0l-6.629,6.629,1.657,1.657L356.71,2a1.172,1.172,0,0,0,0-1.657Z" transform="translate(-348.424 0)"/><path class="h" d="M366.488,6.05a1.172,1.172,0,0,0,0-1.657l-7.458,7.458.829.829Z" transform="translate(-358.201 -4.05)"/></g><g transform="translate(25.22 4.972)"><path class="a" d="M327.3,69.3a1.168,1.168,0,0,1-.829-.343l-3.315-3.315a1.172,1.172,0,0,1,1.657-1.657l3.315,3.315a1.172,1.172,0,0,1-.829,2Z" transform="translate(-322.818 -63.639)"/><path class="b" d="M351.74,90.9l-1.657-1.657L348.425,90.9l1.657,1.657A1.172,1.172,0,0,0,351.74,90.9Z" transform="translate(-346.424 -87.245)"/></g></svg>