<svg xmlns="http://www.w3.org/2000/svg" xmlns:xlink="http://www.w3.org/1999/xlink" viewBox="0 0 1080 1080"><defs><style>.cls-1{fill:none;}.cls-2{fill:#f9c402;}.cls-3{fill:#ffe092;}.cls-4{fill:#b78d55;}.cls-5{fill:#7e2081;}.cls-6{opacity:0.35;}.cls-7{fill:#431447;}.cls-8{fill:#efc47f;}.cls-9{fill:#57115b;}.cls-10{fill:#231f20;}.cls-11{fill:#fff;}.cls-12{fill:#bc5bbc;}.cls-13{clip-path:url(#clip-path);}.cls-14{fill:#e7dde8;}</style><clipPath id="clip-path"><path class="cls-1" d="M478.18,314.81c-45.72-3-85.78,40.59-89.48,97.31-2,30.11,6.71,57.87,22.12,77.75a62.61,62.61,0,0,1-.86-10.36c0-27,16.87-48.86,37.67-48.86s37.67,21.88,37.67,48.86c0,17.09-6.76,32.12-17,40.85,44.24.59,82.35-42.18,86-97.44C558,366.2,523.9,317.8,478.18,314.81Z"/></clipPath></defs><title>Producto no disponible</title><g id="Producto_no_disponible" data-name="Producto no disponible"><circle class="cls-2" cx="571.62" cy="481.62" r="372.52"/><polygon class="cls-3" points="353.15 416.48 221.26 508.52 221.26 698.78 353.15 606.74 353.15 416.48"/><polygon class="cls-3" points="162.9 356.47 353.15 416.51 353.15 606.77 162.9 546.73 162.9 356.47"/><polygon class="cls-3" points="162.9 356.47 31 448.52 31 638.77 162.9 546.73 162.9 356.47"/><polygon class="cls-4" points="31 448.48 221.26 508.52 221.26 698.78 31 638.74 31 448.48"/><path class="cls-5" d="M754.53,420.72h0a205.16,205.16,0,0,0,1.09-21c0-111.1-90.07-201.17-201.18-201.17-110.06,0-199.47,88.39-201.13,198.05h0S342.64,693.24,528.11,770.38c1.29.57,2.61,1.11,3.94,1.6l0,0h0A71.4,71.4,0,0,0,628,705h0s10.28-69,63.29-129c36-40.7,52.22-97.56,59-130a198.92,198.92,0,0,0,4.13-24.09C754.49,421.13,754.53,420.72,754.53,420.72Z"/><g class="cls-6"><path class="cls-7" d="M575,406.15c0,56.53-41.77,102.35-93.29,102.35s-93.28-45.82-93.28-102.35,33.94-115.33,85.46-115.33S575,349.63,575,406.15Z"/></g><polygon class="cls-4" points="362.36 621.17 552.61 681.21 552.61 871.47 362.36 811.43 362.36 621.17"/><polygon class="cls-3" points="362.36 621.17 230.46 713.21 230.46 903.47 362.36 811.43 362.36 621.17"/><polygon class="cls-4" points="230.46 713.18 420.71 773.22 420.71 963.48 230.46 903.44 230.46 713.18"/><polygon class="cls-3" points="552.61 681.17 420.71 773.22 420.71 963.48 552.61 871.43 552.61 681.17"/><polygon class="cls-4" points="420.71 773.22 465.68 853 554.53 789.33 552.61 770.62 420.71 773.22"/><polygon class="cls-8" points="184.45 792.96 230.46 713.21 420.71 773.22 374.71 853 184.45 792.96"/><polygon class="cls-3" points="552.61 681.17 607.72 738.65 475.82 830.66 420.71 773.22 552.61 681.17"/><path class="cls-9" d="M493.49,599.89a4.92,4.92,0,0,1-3.29-1.25c-9-7.94-16.93-11.68-22.4-10.54a8.87,8.87,0,0,0-5.81,4.24,5,5,0,0,1-9-4.2,18.83,18.83,0,0,1,12.79-9.77c8.87-1.85,19.31,2.47,31,12.82a5,5,0,0,1-3.3,8.7Z"/><path class="cls-9" d="M596.46,731.89a4.89,4.89,0,0,1-2.35-.6,5,5,0,0,1-2-6.73C653.27,611.23,648.88,573,640.83,560.32c-4.88-7.68-12.35-7.49-12.43-7.48a5,5,0,0,1-.55-9.93A25,25,0,0,1,649.22,555c16.39,25.82.11,84.46-48.38,174.29A5,5,0,0,1,596.46,731.89Z"/><path class="cls-9" d="M272.35,689a5,5,0,0,1-2.85-9.05c.59-.41,59.54-42,69.16-86.07,10.46-47.84,27.41-50.84,30.71-51l.35,9.93a.67.67,0,0,0,.31,0c-.13,0-12.79,2.64-21.65,43.17-10.46,47.84-70.64,90.32-73.19,92.1A4.93,4.93,0,0,1,272.35,689Z"/><path class="cls-10" d="M414,307.38a79.8,79.8,0,0,1,.13-19.47,96.31,96.31,0,0,1,4.4-19.37,99.92,99.92,0,0,1,20.89-35.36A95.45,95.45,0,0,1,455.65,219a88.82,88.82,0,0,1,19.89-10.25,84,84,0,0,1,22.63-4.87,82.85,82.85,0,0,1,11.79,0c2,.12,3.93.43,5.89.65s3.88.7,5.82,1.07,3.83,1,5.72,1.52,3.76,1.2,5.6,1.91a86.07,86.07,0,0,1,10.68,5,84.11,84.11,0,0,1,18.38,14.06,91.33,91.33,0,0,1,22.26,37.58,99.82,99.82,0,0,1,3.76,40.91A96.84,96.84,0,0,1,583.75,326a79.77,79.77,0,0,1-8.23,17.65c-.86-6.44-1.7-12.58-2.82-18.52A174,174,0,0,0,568.57,308a127.33,127.33,0,0,0-13-30,83.17,83.17,0,0,0-19.09-22.17,56.66,56.66,0,0,0-49.62-11.18,83.4,83.4,0,0,0-26.76,11.87,126.61,126.61,0,0,0-24.61,21.55,172.93,172.93,0,0,0-11.06,13.75C420.84,296.73,417.47,301.92,414,307.38Z"/><path class="cls-1" d="M473.76,469.46c-.77-6.13-5-10.64-9.47-10.08s-7.45,6-6.69,12.11,5,10.64,9.48,10.08S474.53,475.59,473.76,469.46Z"/><path class="cls-11" d="M478.18,314.81c-45.72-3-85.78,40.59-89.48,97.31-2,30.11,6.71,57.87,22.12,77.75a62.61,62.61,0,0,1-.86-10.36c0-27,16.87-48.86,37.67-48.86s37.67,21.88,37.67,48.86c0,17.09-6.76,32.12-17,40.85,44.24.59,82.35-42.18,86-97.44C558,366.2,523.9,317.8,478.18,314.81Z"/><path class="cls-10" d="M485.3,479.51c0-27-16.86-48.86-37.67-48.86S410,452.53,410,479.51a62.61,62.61,0,0,0,.86,10.36c13.62,17.56,32.5,29,53.95,30.36,1.19.08,2.36.12,3.53.13C478.54,511.63,485.3,496.6,485.3,479.51Z"/><path class="cls-11" d="M457.6,471.49c-.76-6.13,2.23-11.55,6.69-12.11s8.7,3.95,9.47,10.08-2.22,11.55-6.68,12.11S458.37,477.62,457.6,471.49Z"/><polygon class="cls-3" points="1049 541.63 917.1 633.67 917.1 823.93 1049 731.88 1049 541.63"/><polygon class="cls-3" points="858.74 481.62 1049 541.66 1049 731.92 858.74 671.88 858.74 481.62"/><polygon class="cls-3" points="858.74 481.62 726.85 573.67 726.85 763.92 858.74 671.88 858.74 481.62"/><polygon class="cls-4" points="726.85 573.63 917.1 633.67 917.1 823.93 726.85 763.89 726.85 573.63"/><polygon class="cls-3" points="893.77 688.6 761.87 780.64 761.87 970.9 893.77 878.86 893.77 688.6"/><polygon class="cls-3" points="703.51 628.59 893.77 688.63 893.77 878.89 703.51 818.85 703.51 628.59"/><polygon class="cls-3" points="703.51 628.59 571.62 720.64 571.62 910.9 703.51 818.85 703.51 628.59"/><polygon class="cls-4" points="571.62 720.6 761.87 780.64 761.87 970.9 571.62 910.86 571.62 720.6"/><path class="cls-12" d="M692.47,367.52A11,11,0,0,1,681.69,354c7.67-33.55-26.26-61.65-26.6-61.93A11,11,0,0,1,669,274.9c1.84,1.48,45,36.94,34.24,84A11.05,11.05,0,0,1,692.47,367.52Z"/><g class="cls-13"><path class="cls-14" d="M389.68,438.3S426,518.58,514.22,504.18c0,0-24.41,59.31-62.27,53.45C452,557.63,357.09,504.94,389.68,438.3Z"/></g></g></svg>