<svg xmlns="http://www.w3.org/2000/svg" width="32" height="32" viewBox="0 0 32 32"><defs><style>.a{fill:none;}.b{fill:#00a09c;}</style></defs><path class="a" d="M0,0H32V32H0Z"/><path class="b" d="M29,2.214a.686.686,0,0,0-.506.211L27.353,3.538a.728.728,0,0,1-1.026,0L25.187,2.425a.728.728,0,0,0-1.026,0L23.02,3.538a.728.728,0,0,1-1.026,0L20.853,2.425a.728.728,0,0,0-1.026,0L18.687,3.538a.728.728,0,0,1-1.026,0L16.52,2.425a.728.728,0,0,0-1.026,0L14.353,3.538a.728.728,0,0,1-1.026,0L12.172,2.411a.728.728,0,0,0-1.026,0L10.006,3.538a.728.728,0,0,1-1.026,0L7.839,2.411a.728.728,0,0,0-1.026,0L5.672,3.538a.728.728,0,0,1-1.026,0L3.506,2.411A.732.732,0,0,0,3,2.214V29.8a.686.686,0,0,0,.506-.211l1.141-1.112a.728.728,0,0,1,1.026,0l1.141,1.112a.728.728,0,0,0,1.026,0L8.98,28.476a.728.728,0,0,1,1.026,0l1.141,1.112a.728.728,0,0,0,1.026,0l1.141-1.112a.728.728,0,0,1,1.026,0l1.141,1.112a.728.728,0,0,0,1.026,0l1.141-1.112a.728.728,0,0,1,1.026,0l1.141,1.112a.728.728,0,0,0,1.026,0l1.141-1.112a.728.728,0,0,1,1.026,0l1.141,1.112a.728.728,0,0,0,1.026,0l1.141-1.112a.728.728,0,0,1,1.026,0l1.141,1.112a.735.735,0,0,0,.506.211V2.214ZM23.222,23.041H8.778a1.409,1.409,0,1,1,0-2.816H23.222a1.409,1.409,0,1,1,0,2.816Zm0-5.633H8.778a1.409,1.409,0,1,1,0-2.816H23.222a1.409,1.409,0,1,1,0,2.816Zm0-5.633H8.778a1.409,1.409,0,1,1,0-2.816H23.222a1.409,1.409,0,1,1,0,2.816Z" transform="translate(0 -0.2)"/></svg>