<svg xmlns="http://www.w3.org/2000/svg" width="42" height="42" viewBox="0 0 42 42"><defs><style>.a{fill:#db5c6e;}.b{fill:#d64553;}.c{fill:#407093;}.d{fill:#365e7d;}.e{fill:#ffd064;}.f{fill:#ffc250;}</style></defs><path class="a" d="M49.216,144.455a3.131,3.131,0,0,1-3.15,3.026H19.234a3.13,3.13,0,0,1-3.149-3.026,80.043,80.043,0,0,1,4.026-27.678,2.808,2.808,0,0,1,2.66-1.87H42.53a2.808,2.808,0,0,1,2.661,1.87A72.951,72.951,0,0,1,48.176,128.9,83.7,83.7,0,0,1,49.216,144.455Z" transform="translate(-16.055 -105.482)"/><path class="b" d="M154.881,301.089a3.131,3.131,0,0,1-3.15,3.026H136.866a2.58,2.58,0,0,1-2.321-1.434,32.758,32.758,0,0,1-3.212-14.637,2.561,2.561,0,0,1,2.577-2.506h19.932A83.694,83.694,0,0,1,154.881,301.089Z" transform="translate(-119.72 -262.115)"/><path class="b" d="M25.5,114.908a2.192,2.192,0,0,0-1.926,1.87,108.193,108.193,0,0,0-2.914,27.678c.032,1.682,1.042,3.026,2.28,3.026h-3.7a3.13,3.13,0,0,1-3.149-3.026,80.049,80.049,0,0,1,4.025-27.678,2.808,2.808,0,0,1,2.661-1.87Z" transform="translate(-16.055 -105.482)"/><path class="c" d="M132.277,17.345a1.382,1.382,0,0,1-1.392-1.37V8.021a5.366,5.366,0,0,0-10.731,0v7.953a1.393,1.393,0,0,1-2.785,0V8.021a8.151,8.151,0,0,1,16.3,0v7.953A1.382,1.382,0,0,1,132.277,17.345Z" transform="translate(-108.924 0)"/><g transform="translate(8.445)"><path class="d" d="M229.751,46.644V38.691a5.33,5.33,0,0,0-5.366-5.281,5.474,5.474,0,0,0-.711.048,5.317,5.317,0,0,1,4.655,5.233v7.953a1.382,1.382,0,0,0,1.392,1.37,1.4,1.4,0,0,0,.711-.193A1.364,1.364,0,0,1,229.751,46.644Z" transform="translate(-214.814 -30.669)"/><path class="d" d="M118.79,15.974V8.021a8.084,8.084,0,0,1,7.44-7.99C126,.011,125.759,0,125.519,0a8.1,8.1,0,0,0-8.15,8.021v7.953a1.381,1.381,0,0,0,1.392,1.37,1.4,1.4,0,0,0,.711-.193A1.364,1.364,0,0,1,118.79,15.974Z" transform="translate(-117.369 0)"/></g><path class="e" d="M165.3,302.684a32.773,32.773,0,0,1-3.212-14.637,2.561,2.561,0,0,1,2.578-2.505h22.665a2.561,2.561,0,0,1,2.578,2.505,32.774,32.774,0,0,1-3.212,14.637,2.581,2.581,0,0,1-2.321,1.434H167.626A2.581,2.581,0,0,1,165.3,302.684Z" transform="translate(-147.917 -262.119)"/><path class="f" d="M170.234,304.113h-2.61a2.581,2.581,0,0,1-2.321-1.434,32.782,32.782,0,0,1-3.212-14.637,2.561,2.561,0,0,1,2.578-2.506H168.2c-.971,0-1.76,1.118-1.774,2.506a45.314,45.314,0,0,0,2.211,14.637,1.844,1.844,0,0,0,1.6,1.434Z" transform="translate(-147.915 -262.113)"/><path class="c" d="M271.432,327.365a5.668,5.668,0,0,1-5.706-5.616v-2.84a1.119,1.119,0,0,1,2.237,0v2.84a3.47,3.47,0,0,0,6.939,0v-2.84a1.119,1.119,0,0,1,2.237,0v2.84A5.668,5.668,0,0,1,271.432,327.365Z" transform="translate(-242.915 -291.739)"/><g transform="translate(22.811 26.07)"><path class="d" d="M340.985,325.165a3.446,3.446,0,0,0,3.47-3.415v-2.84a1.1,1.1,0,0,1,.6-.973,1.126,1.126,0,0,0-.523-.128,1.11,1.11,0,0,0-1.118,1.1v2.84a3.437,3.437,0,0,1-2.947,3.376A3.544,3.544,0,0,0,340.985,325.165Z" transform="translate(-334.233 -317.81)"/><path class="d" d="M266.772,321.75v-2.84a1.1,1.1,0,0,1,.6-.973,1.127,1.127,0,0,0-.523-.128,1.11,1.11,0,0,0-1.118,1.1v2.84a5.668,5.668,0,0,0,5.706,5.616c.176,0,.351-.009.523-.025A5.659,5.659,0,0,1,266.772,321.75Z" transform="translate(-265.726 -317.81)"/></g></svg>