<svg xmlns="http://www.w3.org/2000/svg" xmlns:xlink="http://www.w3.org/1999/xlink" viewBox="0 0 1080 1080"><defs><style>.cls-1{fill:none;}.cls-2{fill:#f9c402;}.cls-3{fill:#7e2081;}.cls-4{fill:#ddebf2;}.cls-5{fill:#84b2d8;}.cls-6{fill:#9babb2;}.cls-7{fill:#231f20;}.cls-8{fill:#3b4144;}.cls-9{fill:#57115b;}.cls-10{fill:#bc5bbc;}.cls-11{opacity:0.35;}.cls-12{fill:#431447;}.cls-13{fill:#fff;}.cls-14{clip-path:url(#clip-path);}.cls-15{fill:#e7dde8;}.cls-16{clip-path:url(#clip-path-2);}.cls-17{fill:#c7e8ff;}</style><clipPath id="clip-path"><ellipse class="cls-1" cx="490.03" cy="397.29" rx="124.82" ry="164.28"/></clipPath><clipPath id="clip-path-2"><path class="cls-1" d="M814,321.84q0,9.29-.53,18.44h0c-1.35,64-13.15,175.84-72,268.62C670.43,721,619.56,819.81,561.63,853.29a.15.15,0,0,1-.07.05,91.54,91.54,0,0,1-24.08,9.9c-.55.14-1.1.26-1.66.38l-.13,0a83.87,83.87,0,0,1-17.29,1.78c-2.7,0-5.38-.13-8-.37a82.5,82.5,0,0,1-9.4-1.43c-.69-.15-1.38-.3-2.07-.47a89.35,89.35,0,0,1-13.73-4.61l-.92-.4C395.57,819.4,312.12,631,288.13,483.36c-15.37-94.53-2.34-179.23,3.9-211,21.49-135,129.29-237.57,259-237.57,134.83,0,246,110.82,261.17,253.58,0,0,0,.13,0,.37a2.46,2.46,0,0,0,0,.26,1.93,1.93,0,0,1,0,.33A309,309,0,0,1,814,321.84Z"/></clipPath></defs><title>Sin resultados de busqueda</title><g id="Sin_resultados_de_busqueda" data-name="Sin resultados de busqueda"><circle class="cls-2" cx="546.02" cy="571.67" r="473.57"/><path class="cls-3" d="M814,321.84q0,9.29-.53,18.44h0c-1.35,64-13.15,175.84-72,268.62C670.43,721,619.56,819.81,561.63,853.29a.15.15,0,0,1-.07.05,91.54,91.54,0,0,1-24.08,9.9c-.55.14-1.1.26-1.66.38l-.13,0a83.87,83.87,0,0,1-17.29,1.78c-2.7,0-5.38-.13-8-.37a82.5,82.5,0,0,1-9.4-1.43c-.69-.15-1.38-.3-2.07-.47a89.35,89.35,0,0,1-13.73-4.61l-.92-.4C395.57,819.4,312.12,631,288.13,483.36c-15.37-94.53-2.34-179.23,3.9-211,21.49-135,129.29-237.57,259-237.57,134.83,0,246,110.82,261.17,253.58,0,0,0,.13,0,.37a2.46,2.46,0,0,0,0,.26,1.93,1.93,0,0,1,0,.33A309,309,0,0,1,814,321.84Z"/><path class="cls-4" d="M186.92,473.18c-20.45-38.82-53.87-61.86-76.45-53.47l-.06,0c-.13,0-.39.15-.77.32l-.31.14c-.33.14-.71.31-1.15.52l-.15.06a5.46,5.46,0,0,0-.64.32c-6.22,3.27-10.79,8.89-13.71,16.17-7.61,19.06-3.82,49.47,11.65,78.87,15.18,28.81,37.48,48.92,57.2,54,8.11,2.07,15.77,1.6,22.34-1.86C207.39,556.38,208.31,513.83,186.92,473.18Zm-11.45,90.59a21.35,21.35,0,0,1-12,2.18c-18-1.62-41-21.78-56.73-51.59s-19.28-60.24-10.39-76a21.22,21.22,0,0,1,8.56-8.6c18.46-9.71,49.22,12.4,68.7,49.4S193.93,554,175.47,563.77Z"/><path class="cls-5" d="M175.47,563.77a21.35,21.35,0,0,1-12,2.18c-18-1.62-41-21.78-56.73-51.59s-19.28-60.24-10.39-76a21.22,21.22,0,0,1,8.56-8.6c18.46-9.71,49.22,12.4,68.7,49.4S193.93,554,175.47,563.77Z"/><path class="cls-6" d="M184.87,568.24,176,572.82c-.69-1.5-7.35,1.06-15.17,4.64-.64.28-1.25.57-1.85.87-6.88,3.34-11.73,6.92-11.1,8.29,0,.08.06.15.1.23C128.63,592.45,98.33,568,78,529.43c-21.54-40.93-23.63-82.21-4.66-92.21l1.27-.6C80,434,100.84,424.09,108,420.77a5.46,5.46,0,0,0-.64.32c-6.22,3.27-10.79,8.89-13.71,16.17-7.61,19.06-3.82,49.47,11.65,78.87,15.18,28.81,37.48,48.92,57.2,54C170.64,572.17,178.3,571.7,184.87,568.24Z"/><path class="cls-7" d="M196.46,682.93c-10,3.76-18.51,5.55-19.1,4a.42.42,0,0,0,0-.07.57.57,0,0,0,0-.12c.06-1.69,7.46-5.77,17-9.39s17.91-5.41,19-4.13a.67.67,0,0,1,.09.14C214,674.89,206.42,679.18,196.46,682.93Z"/><path class="cls-8" d="M213.35,673.22c-1.08-1.28-9.37.52-19,4.13s-17,7.7-17,9.39a398.26,398.26,0,0,0-29.4-99.89s0,0,.05,0a.8.8,0,0,1-.15-.21c-.63-1.37,4.22-5,11.1-8.29.6-.3,1.21-.59,1.85-.87,7.82-3.58,14.48-6.14,15.17-4.64a1.46,1.46,0,0,0,0,.2C188,630.65,211.75,670.56,213.35,673.22Z"/><path class="cls-9" d="M537.47,693.34a5.8,5.8,0,0,1-3.52-1.18l-28.59-21.57A13,13,0,0,0,491,669.7l-32.37,18.62a5.85,5.85,0,1,1-5.83-10.14l32.37-18.63a24.71,24.71,0,0,1,27.24,1.7L541,682.82a5.85,5.85,0,0,1-3.53,10.52Z"/><path class="cls-7" d="M392.81,188.35a113.22,113.22,0,0,1,2.94-23.66,137.48,137.48,0,0,1,7.35-23.05,135.8,135.8,0,0,1,27.33-41.73,125,125,0,0,1,20-16.86,114.64,114.64,0,0,1,24.15-12.32,107.32,107.32,0,0,1,27.19-6.22,108.88,108.88,0,0,1,14.11-.36l3.53.17c1.18.09,2.35.23,3.52.35l3.51.39,3.5.57c1.16.2,2.32.4,3.48.64l3.44.81c2.31.51,4.56,1.19,6.81,1.87A111.17,111.17,0,0,1,580.2,88.51a128.41,128.41,0,0,1,33,40.48,145.41,145.41,0,0,1,15.12,47.19,139.44,139.44,0,0,1,1.32,24.1,118.1,118.1,0,0,1-3,23.65c-3.37-7.23-6.51-14.22-9.82-21s-6.75-13.27-10.38-19.51a218.72,218.72,0,0,0-24-34,133.37,133.37,0,0,0-28.57-25,88.32,88.32,0,0,0-32-12.65,81.54,81.54,0,0,0-33.9,1.24A102.55,102.55,0,0,0,471,118.84,130.68,130.68,0,0,0,454.11,128a188.08,188.08,0,0,0-31.82,26.16q-7.59,7.67-14.89,16.26C402.54,176.11,397.8,182.13,392.81,188.35Z"/><path class="cls-9" d="M752.52,706.92a5.86,5.86,0,0,1-5.69-7.22c.18-.77,18.09-77.09-13.61-109-5-5-10.38-7-16.54-6.22-22.59,3-49.67,42.52-58.2,57.49a5.85,5.85,0,1,1-10.17-5.79c1.37-2.4,33.87-58.9,66.81-63.3,9.9-1.31,18.77,1.9,26.4,9.57,23.26,23.38,23.9,64.65,21.14,92.18,15.36-21.28,41.24-51.15,73-64.36a5.85,5.85,0,0,1,4.5,10.8C793,640.76,758,703.27,757.64,703.9A5.86,5.86,0,0,1,752.52,706.92Z"/><path class="cls-9" d="M643.76,1034.57a5.64,5.64,0,0,1-1.61-.23L623.3,1029A22.28,22.28,0,0,1,607.45,1011c-2.74-17.54-9.74-62.65-15.65-102.36-3.25-21.9-5.74-39.25-7.4-51.57-3.4-25.26-3.18-25.46-.54-27.88a5.85,5.85,0,0,1,9.7,5.4c.15,7.89,10.06,75.95,25.45,174.61a10.57,10.57,0,0,0,7.51,8.49l18.85,5.38a5.85,5.85,0,0,1-1.61,11.48Zm-52-196.74h0Zm0,0h0Zm0,0h0Zm0,0h0Zm0,0h0Zm0,0Zm0,0Zm0,0Zm0,0Z"/><path class="cls-9" d="M433.13,1019.43a5.86,5.86,0,0,1,0-11.71c3.65,0,17.61-6.85,29.65-13.84L449.88,841a5.86,5.86,0,0,1,11.67-1l13.2,156.51a5.83,5.83,0,0,1-2.82,5.51C465.15,1006.14,442.3,1019.43,433.13,1019.43Z"/><path class="cls-9" d="M270.68,720.69a5.84,5.84,0,0,1-5.71-4.61c0-.07,0-.13-.05-.19-.67-3-14.33-60.57-71.47-80.81a5.86,5.86,0,0,1,3.91-11c31.75,11.25,51.24,32.36,62.92,51.28-.66-39.23,9.83-74.93,28.59-91.24a21.33,21.33,0,0,1,18.36-5.18c23,4.19,44.68,43.43,47.08,47.89A5.85,5.85,0,0,1,344,632.33c-5.79-10.74-24.06-39.22-38.88-41.92a9.64,9.64,0,0,0-8.57,2.5c-21.76,18.91-30.62,71.65-20.25,120.23.06.25.1.43.12.53a5.86,5.86,0,0,1-4.53,6.9A6.28,6.28,0,0,1,270.68,720.69Z"/><path class="cls-10" d="M734.6,224a13,13,0,0,1-12.89-11.42c-4.07-33.3-26.9-45.11-27.13-45.22a13,13,0,0,1,11.24-23.46c1.46.7,35.86,17.7,41.7,65.52a13,13,0,0,1-11.32,14.49A14.44,14.44,0,0,1,734.6,224Z"/><g class="cls-11"><ellipse class="cls-12" cx="499.7" cy="347.61" rx="126.99" ry="170.59"/></g><ellipse class="cls-13" cx="490.03" cy="397.29" rx="124.82" ry="164.28"/><path class="cls-7" d="M502.88,323.87c-29.4,0-53.23,33.07-53.23,73.88s23.83,73.88,53.23,73.88,53.23-33.08,53.23-73.88S532.28,323.87,502.88,323.87Zm26.88,64.24c-9.78,0-17.7-9.45-17.7-21.11s7.92-21.11,17.7-21.11,17.7,9.45,17.7,21.11S539.54,388.11,529.76,388.11Z"/><g class="cls-14"><path class="cls-15" d="M492.05,527.34c-78.92,0-123.84-79.53-126.84-153.91-7.6,16.84-18.35,51.17-18.35,70.66,0,76.9,55.37,151.74,135.37,140.28,113.85-16.31,127.13-136.64,127.06-138.44C586.9,495.53,552.38,527.34,492.05,527.34Z"/></g><g class="cls-16"><g class="cls-11"><path class="cls-12" d="M356.82,701.07c6.53,13.35,96.12,166.31,178.87,132.45S776.4,539.3,776.4,539.3L814,872.52l-287,145.5S361.54,911.24,349.15,903.9,356.82,701.07,356.82,701.07Z"/></g></g><path class="cls-17" d="M173.85,541.26a5.85,5.85,0,0,1-5.84-5.64C165.85,473,130.38,451.17,130,451a5.85,5.85,0,0,1,6-10.06c1.69,1,41.32,25.37,43.7,94.31a5.85,5.85,0,0,1-5.65,6Z"/><g class="cls-11"><ellipse class="cls-12" cx="537.5" cy="1024.74" rx="170.04" ry="17.44"/></g></g></svg>