<svg xmlns="http://www.w3.org/2000/svg" width="40" height="30.625" viewBox="0 0 40 30.625"><defs><style>.a{fill:#ffe1b2;}.b{fill:#ffb980;}.c{fill:#7e5c62;}.d{fill:#5c546a;}.e{fill:#ff4f19;}.f{fill:#e9001e;}.g{fill:#53dcff;}.h{fill:#b3f4ff;}.i{fill:#fff;}</style></defs><g transform="translate(2.407 4.833)"><rect class="a" width="35.185" height="25.679" transform="translate(0 0)"/></g><g transform="translate(2.407 26.5)"><rect class="b" width="35.185" height="4.012" transform="translate(0 0)"/></g><g transform="translate(2.407 4.125)"><rect class="b" width="35.185" height="4.815" transform="translate(0 0)"/></g><g transform="translate(5.642 9.936)"><path class="c" d="M81.4,188H72.627a.627.627,0,0,0-.627.627v18.808H82.031V188.627A.627.627,0,0,0,81.4,188Z" transform="translate(-72 -188)"/></g><g transform="translate(0 29.371)"><path class="d" d="M39.375,437.254H.625a.627.627,0,0,1,0-1.254h38.75a.627.627,0,0,1,0,1.254Z" transform="translate(0 -436)"/></g><g transform="translate(13.124 19.37)"><path class="d" d="M168.627,310.508a.627.627,0,0,1-.627-.627v-1.254a.627.627,0,0,1,1.254,0v1.254A.627.627,0,0,1,168.627,310.508Z" transform="translate(-168 -308)"/></g><g transform="translate(1.254)"><path class="e" d="M17.881,67.523h0A1.881,1.881,0,0,1,16,65.642V61.254A1.254,1.254,0,0,1,17.254,60h2.508v5.642A1.881,1.881,0,0,1,17.881,67.523Z" transform="translate(-16 -60)"/></g><g transform="translate(5.015)"><path class="f" d="M65.881,67.523h0A1.881,1.881,0,0,1,64,65.642V60h3.762v5.642A1.881,1.881,0,0,1,65.881,67.523Z" transform="translate(-64 -60)"/></g><g transform="translate(8.747)"><path class="e" d="M113.881,67.523h0A1.881,1.881,0,0,1,112,65.642V60h3.762v5.642A1.881,1.881,0,0,1,113.881,67.523Z" transform="translate(-112 -60)"/></g><g transform="translate(12.496)"><path class="f" d="M161.881,67.523h0A1.881,1.881,0,0,1,160,65.642V60h3.762v5.642A1.881,1.881,0,0,1,161.881,67.523Z" transform="translate(-160 -60)"/></g><g transform="translate(16.245)"><path class="e" d="M209.881,67.523h0A1.881,1.881,0,0,1,208,65.642V60h3.762v5.642A1.881,1.881,0,0,1,209.881,67.523Z" transform="translate(-208 -60)"/></g><g transform="translate(19.994)"><path class="f" d="M257.881,67.523h0A1.881,1.881,0,0,1,256,65.642V60h3.762v5.642A1.881,1.881,0,0,1,257.881,67.523Z" transform="translate(-256 -60)"/></g><g transform="translate(23.742)"><path class="e" d="M305.881,67.523h0A1.881,1.881,0,0,1,304,65.642V60h3.762v5.642A1.881,1.881,0,0,1,305.881,67.523Z" transform="translate(-304 -60)"/></g><g transform="translate(27.491)"><path class="f" d="M353.881,67.523h0A1.881,1.881,0,0,1,352,65.642V60h3.762v5.642A1.881,1.881,0,0,1,353.881,67.523Z" transform="translate(-352 -60)"/></g><g transform="translate(31.223)"><path class="e" d="M401.881,67.523h0A1.881,1.881,0,0,1,400,65.642V60h3.762v5.642A1.881,1.881,0,0,1,401.881,67.523Z" transform="translate(-400 -60)"/></g><g transform="translate(34.985)"><path class="f" d="M449.881,67.523h0A1.881,1.881,0,0,1,448,65.642V60h2.508a1.254,1.254,0,0,1,1.254,1.254v4.389A1.881,1.881,0,0,1,449.881,67.523Z" transform="translate(-448 -60)"/></g><g transform="translate(18.057 10.598)"><path class="g" d="M248.3,196H232.627a.627.627,0,0,0-.627.627v12.539a.627.627,0,0,0,.627.627H248.3a.627.627,0,0,0,.627-.627V196.627A.627.627,0,0,0,248.3,196Z" transform="translate(-232 -196)"/></g><g transform="translate(17.538 10.598)"><path class="h" d="M238.868,209.793h3.324a.627.627,0,0,0,.627-.627v-.742L230.4,196h-4.5a.617.617,0,0,0-.519.3Z" transform="translate(-225.372 -196)"/></g><g transform="translate(26.055 10.612)"><path class="i" d="M334.059,196l8.929,8.929v-2.66L336.719,196Z" transform="translate(-334.059 -196)"/></g><g transform="translate(17.43 9.97)"><path class="c" d="M240.927,203.046H225.254A1.256,1.256,0,0,1,224,201.793V189.254A1.256,1.256,0,0,1,225.254,188h15.673a1.256,1.256,0,0,1,1.254,1.254v12.539A1.256,1.256,0,0,1,240.927,203.046Zm-15.673-13.793v12.539h15.675V189.254Z" transform="translate(-224 -188)"/></g><g transform="translate(6.87 11.24)"><path class="g" d="M94.9,210.9H88.627a.627.627,0,0,1-.627-.627v-5.642a.627.627,0,0,1,.627-.627H94.9a.627.627,0,0,1,.627.627v5.642A.627.627,0,0,1,94.9,210.9Z" transform="translate(-88 -204)"/></g><g transform="translate(6.87 11.24)"><path class="h" d="M91.769,204H88.627a.627.627,0,0,0-.627.627v.923l5.346,5.346H94.9a.627.627,0,0,0,.627-.627v-2.515Z" transform="translate(-88 -204)"/></g></svg>