<svg xmlns="http://www.w3.org/2000/svg" width="32" height="32" viewBox="0 0 32 32"><defs><style>.a{fill:none;}.b{fill:#00a09c;}</style></defs><path class="a" d="M0,0H32V32H0Z"/><path class="b" d="M27.787,9.7a1.456,1.456,0,0,0-1.416-1.2H5.629A1.456,1.456,0,0,0,4.213,9.7L3,16v1.5A1.477,1.477,0,0,0,4.444,19v7.5A1.477,1.477,0,0,0,5.889,28H17.444a1.477,1.477,0,0,0,1.444-1.5V19h5.778v7.5a1.445,1.445,0,1,0,2.889,0V19A1.477,1.477,0,0,0,29,17.5V16ZM16,25H7.333V19H16ZM5.889,7H26.111a1.5,1.5,0,0,0,0-3H5.889a1.5,1.5,0,0,0,0,3Z" transform="translate(0)"/></svg>