<svg xmlns="http://www.w3.org/2000/svg" xmlns:xlink="http://www.w3.org/1999/xlink" width="219" height="186" viewBox="0 0 219 186"><defs><style>.a{fill:none;}.b{fill:#f9c402;}.c{fill:#ffe092;}.d{fill:#b78d55;}.e{fill:#7e2081;}.f{opacity:0.35;}.g{fill:#431447;}.h{fill:#efc47f;}.i{fill:#57115b;}.j{fill:#3a2147;}.k{fill:#fff;}.l{fill:#231f20;}.m{fill:#bc5bbc;}.n{clip-path:url(#a);}</style><clipPath id="a"><path class="a" d="M10248.9-706.788c-9.836-.644-18.453,8.759-19.25,21a24.879,24.879,0,0,0,4.759,16.78,13.584,13.584,0,0,1-.184-2.234c0-5.825,3.628-10.546,8.1-10.546s8.1,4.722,8.1,10.546a11.615,11.615,0,0,1-3.656,8.815c9.516.127,17.716-9.1,18.491-21.029C10266.061-695.7,10258.733-706.144,10248.9-706.788Z" transform="translate(-10229.588 706.819)"/></clipPath></defs><g transform="translate(-9906.024 892.917)"><g transform="translate(9942.186 -892.917)"><g transform="translate(0 0)"><ellipse class="b" cx="80.14" cy="80.4" rx="80.14" ry="80.4"/></g></g><g transform="translate(9906.024 -839.527)"><g transform="translate(40.93 12.951)"><path class="c" d="M10106.634-614.654l-28.374,19.866v41.063l28.374-19.866Z" transform="translate(-10078.26 614.654)"/></g><g transform="translate(0)"><g transform="translate(28.375)"><path class="c" d="M10025.428-668.975l40.93,12.958v41.063l-40.93-12.958Z" transform="translate(-10025.428 668.975)"/></g><path class="c" d="M9934.4-668.975l-28.375,19.866v41.063l28.375-19.866Z" transform="translate(-9906.024 668.975)"/><g transform="translate(0 19.858)"><path class="d" d="M9906.024-585.681l40.93,12.958v41.063l-40.93-12.958Z" transform="translate(-9906.024 585.681)"/></g></g></g><g transform="translate(9975.329 -873.611)"><g transform="translate(0 0)"><path class="e" d="M10284.01-763.991h0a44.244,44.244,0,0,0,.233-4.532,43.348,43.348,0,0,0-43.278-43.419,43.344,43.344,0,0,0-43.27,42.746h-.008s-2.287,64.022,37.612,80.671c.279.122.562.24.849.346l.008,0h0a15.277,15.277,0,0,0,5.284.937,15.374,15.374,0,0,0,15.349-15.4h0a60.084,60.084,0,0,1,13.615-27.852c7.733-8.786,11.233-21.056,12.688-28.049a43.577,43.577,0,0,0,.889-5.2C10284-763.9,10284.01-763.991,10284.01-763.991Z" transform="translate(-10197.663 811.941)"/></g><g class="f" transform="translate(7.587 19.914)"><path class="g" d="M10269.724-703.519c0,12.2-8.984,22.088-20.068,22.088s-20.067-9.889-20.067-22.088,7.3-24.893,18.385-24.893S10269.724-715.718,10269.724-703.519Z" transform="translate(-10229.588 728.412)"/></g></g><g transform="translate(9948.933 -782.398)"><g transform="translate(0 0)"><g transform="translate(28.375)"><path class="d" d="M10205.991-429.353l40.93,12.958v41.063l-40.93-12.958Z" transform="translate(-10205.991 429.353)"/></g><path class="c" d="M10114.963-429.353l-28.375,19.866v41.063l28.375-19.866Z" transform="translate(-10086.588 429.353)"/><g transform="translate(0 19.858)"><path class="d" d="M10086.588-346.059l40.93,12.958v41.063L10086.588-305Z" transform="translate(-10086.588 346.059)"/></g></g><g transform="translate(40.93 12.951)"><path class="c" d="M10287.2-375.032l-28.374,19.866V-314.1l28.374-19.866Z" transform="translate(-10258.823 375.032)"/></g><g transform="translate(40.93 32.256)"><path class="d" d="M10258.823-293.5l9.674,17.219,19.114-13.741-.414-4.039Z" transform="translate(-10258.823 294.059)"/></g></g><g transform="translate(9939.036 -762.533)"><g transform="translate(0 0)"><path class="h" d="M10044.941-328.815l9.9-17.212,40.93,12.951-9.9,17.219Z" transform="translate(-10044.941 346.027)"/></g></g><g transform="translate(9989.863 -769.448)"><g transform="translate(0 0)"><path class="c" d="M10287.2-375.032l11.854,12.4-28.374,19.858-11.854-12.4Z" transform="translate(-10258.823 375.032)"/></g></g><g transform="translate(9996.703 -791.726)"><g transform="translate(0)"><path class="i" d="M10296.424-463.743a1.062,1.062,0,0,1-.708-.269c-1.93-1.713-3.643-2.521-4.819-2.275a1.913,1.913,0,0,0-1.249.916,1.068,1.068,0,0,1-1.421.519,1.076,1.076,0,0,1-.518-1.426,4.056,4.056,0,0,1,2.753-2.109c1.907-.4,4.151.534,6.671,2.769a1.074,1.074,0,0,1,.092,1.514A1.061,1.061,0,0,1,10296.424-463.743Z" transform="translate(-10287.608 468.478)"/></g></g><g transform="translate(10026.603 -799.291)"><g transform="translate(0 0)"><path class="i" d="M10414.494-459.42a1.059,1.059,0,0,1-.507-.129,1.076,1.076,0,0,1-.434-1.454c13.11-24.365,12.214-32.638,10.513-35.4a3.24,3.24,0,0,0-2.713-1.661,1.068,1.068,0,0,1-1.121-1.012,1.076,1.076,0,0,1,1.015-1.131,5.364,5.364,0,0,1,4.6,2.608c3.525,5.573.023,18.228-10.408,37.615A1.069,1.069,0,0,1,10414.494-459.42Z" transform="translate(-10413.426 500.21)"/></g></g><g transform="translate(9956.875 -799.291)"><g transform="translate(0 0)"><path class="i" d="M10121.075-468.68a1.069,1.069,0,0,1-.878-.458,1.076,1.076,0,0,1,.264-1.494c.129-.09,12.812-9.077,14.881-18.578,2.25-10.324,5.9-10.973,6.6-11l.076,2.144a.262.262,0,0,0,.067-.005c-.027,0-2.752.569-4.658,9.317-2.25,10.324-15.2,19.493-15.745,19.879A1.064,1.064,0,0,1,10121.075-468.68Z" transform="translate(-10120.005 500.208)"/></g></g><g transform="translate(9988.294 -872.511)"><g transform="translate(0 0)"><path class="j" d="M10252.336-784.937a17.377,17.377,0,0,1,.028-4.2,20.921,20.921,0,0,1,.948-4.183,21.559,21.559,0,0,1,4.494-7.631,20.5,20.5,0,0,1,3.5-3.065,19.076,19.076,0,0,1,4.278-2.213,17.977,17.977,0,0,1,4.868-1.05,17.908,17.908,0,0,1,2.536,0c.425.026.845.093,1.267.142.419.066.835.15,1.252.229.412.1.823.209,1.231.328.4.135.809.258,1.205.413a18.411,18.411,0,0,1,2.3,1.086,18.082,18.082,0,0,1,3.956,3.035,19.73,19.73,0,0,1,4.787,8.11,21.576,21.576,0,0,1,.81,8.83,20.956,20.956,0,0,1-.929,4.189,17.235,17.235,0,0,1-1.771,3.809c-.185-1.39-.365-2.714-.606-4a37.932,37.932,0,0,0-.889-3.7,27.459,27.459,0,0,0-2.806-6.471,17.951,17.951,0,0,0-4.106-4.784,12.636,12.636,0,0,0-5.052-2.475,12.552,12.552,0,0,0-5.623.063,17.868,17.868,0,0,0-5.757,2.562,27.194,27.194,0,0,0-5.294,4.65,37.082,37.082,0,0,0-2.379,2.968C10253.817-787.235,10253.092-786.115,10252.336-784.937Z" transform="translate(-10252.222 807.324)"/></g></g><g transform="translate(9982.916 -848.549)"><g transform="translate(0 0)"><g transform="translate(14.858 31.222)"><path class="a" d="M10295.611-573.672c-.166-1.323-1.077-2.3-2.037-2.176s-1.6,1.291-1.439,2.614,1.078,2.3,2.038,2.176S10295.777-572.349,10295.611-573.672Z" transform="translate(-10292.109 575.858)"/></g><path class="k" d="M10248.9-706.788c-9.836-.644-18.453,8.759-19.25,21a24.879,24.879,0,0,0,4.759,16.78,13.584,13.584,0,0,1-.184-2.234c0-5.825,3.628-10.546,8.1-10.546s8.1,4.722,8.1,10.546a11.615,11.615,0,0,1-3.656,8.815c9.516.127,17.716-9.1,18.491-21.029C10266.061-695.7,10258.733-706.144,10248.9-706.788Z" transform="translate(-10229.588 706.819)"/><g transform="translate(4.634 25.032)"><path class="l" d="M10265.3-591.278c0-5.825-3.628-10.546-8.1-10.546s-8.1,4.722-8.1,10.546a13.693,13.693,0,0,0,.184,2.234,16.046,16.046,0,0,0,11.607,6.553c.254.017.507.025.76.028A11.613,11.613,0,0,0,10265.3-591.278Z" transform="translate(-10249.09 601.824)"/></g></g><g transform="translate(14.858 31.222)"><path class="k" d="M10292.135-573.234c-.165-1.323.479-2.493,1.439-2.614s1.871.853,2.037,2.176-.479,2.493-1.438,2.614S10292.3-571.912,10292.135-573.234Z" transform="translate(-10292.109 575.858)"/></g></g><g transform="translate(10055.72 -812.516)"><g transform="translate(40.93 12.951)"><path class="c" d="M10736.564-501.36l-28.375,19.866v41.063l28.375-19.866Z" transform="translate(-10708.189 501.36)"/></g><g transform="translate(0)"><g transform="translate(28.375)"><path class="c" d="M10655.358-555.681l40.93,12.958v41.063l-40.93-12.958Z" transform="translate(-10655.358 555.681)"/></g><path class="c" d="M10564.329-555.681l-28.374,19.866v41.063l28.374-19.866Z" transform="translate(-10535.955 555.681)"/><g transform="translate(0 19.858)"><path class="d" d="M10535.955-472.387l40.93,12.958v41.063l-40.93-12.958Z" transform="translate(-10535.955 472.387)"/></g></g></g><g transform="translate(10022.326 -780.796)"><g transform="translate(40.93 12.951)"><path class="c" d="M10596.039-368.31l-28.374,19.866v41.063l28.374-19.866Z" transform="translate(-10567.665 368.31)"/></g><g transform="translate(0 0)"><g transform="translate(28.375)"><path class="c" d="M10514.833-422.631l40.93,12.958v41.063l-40.93-12.958Z" transform="translate(-10514.833 422.631)"/></g><path class="c" d="M10423.8-422.631l-28.375,19.866V-361.7l28.375-19.866Z" transform="translate(-10395.43 422.631)"/><g transform="translate(0 19.858)"><path class="d" d="M10395.43-339.337l40.93,12.958v41.063l-40.93-12.958Z" transform="translate(-10395.43 339.337)"/></g></g></g><g transform="translate(10039.407 -857.661)"><g transform="translate(0 0)"><path class="m" d="M10476.225-724.519a2.383,2.383,0,0,1-.532-.061,2.385,2.385,0,0,1-1.787-2.855c1.651-7.24-5.647-13.306-5.722-13.367a2.394,2.394,0,0,1-.347-3.352,2.368,2.368,0,0,1,3.335-.356c.4.321,9.685,7.973,7.367,18.138A2.379,2.379,0,0,1,10476.225-724.519Z" transform="translate(-10467.308 745.037)"/></g></g></g></svg>