<svg xmlns="http://www.w3.org/2000/svg" xmlns:xlink="http://www.w3.org/1999/xlink" width="258" height="225" viewBox="0 0 258 225"><defs><style>.a{fill:none;}.b{fill:#f9c402;}.c{opacity:0.4;}.d{fill:#3a2147;}.e{fill:#57115b;}.f{fill:#6d237f;}.g{clip-path:url(#a);}.h{opacity:0.35;}.i{fill:#431447;}.j{fill:#fff;}.k{fill:#a957b5;}.l{fill:#2a3366;}.m{fill:#828da0;}.n{fill:#cde6f9;}.o{fill:#9bb0c6;}.p{clip-path:url(#b);}.q{opacity:0.61;}.r{clip-path:url(#c);}.s{opacity:0.7;}.t{fill:#5b626d;}.u{fill:#a8c9dd;}.v{fill:#e2eef2;}.w{fill:#889dbc;}.x{fill:#575f7f;}.y{fill:#edd351;}.z{fill:#cfe1e5;}.aa{fill:#9caab5;}</style><clipPath id="a"><path class="a" d="M12366.483-869.916a59.25,59.25,0,0,0-58.886-52.72,59.243,59.243,0,0,0-59.244,59.244c0,5.133,1.881,14.863,1.881,14.864,1.079,12.993,11.571,29.959,18.275,39.611a119.5,119.5,0,0,1,14.657,28.492c3.685,10.47,4.073,15.65,4.073,15.65l.006,0a12.537,12.537,0,0,0-.15,1.912c0,8.9,9.242,16.119,20.645,16.119a24.532,24.532,0,0,0,12.416-3.243h0C12377.964-781.387,12368.152-859.119,12366.483-869.916Z" transform="translate(-12248.354 922.636)"/></clipPath><clipPath id="b"><path class="a" d="M12862.071-650.166h-1.748a12.814,12.814,0,0,1-9.092-3.767,12.811,12.811,0,0,1-3.767-9.092,12.859,12.859,0,0,1,12.858-12.858h1.748c-2.721,0-4.925,5.758-4.925,12.858S12859.351-650.166,12862.071-650.166Z" transform="translate(-12847.465 675.883)"/></clipPath><clipPath id="c"><path class="a" d="M12890.754-650.166h-4.124c-2.723,0-4.925-5.758-4.925-12.858s2.2-12.858,4.925-12.858h4.124a2.769,2.769,0,0,0-2.065,1.182,9.9,9.9,0,0,0-1.562,2.983,17.231,17.231,0,0,0-.5,1.666,29.3,29.3,0,0,0-.8,7.027,29.3,29.3,0,0,0,.8,7.027,17.231,17.231,0,0,0,.5,1.666,9.9,9.9,0,0,0,1.563,2.983A2.769,2.769,0,0,0,12890.754-650.166Z" transform="translate(-12881.705 675.883)"/></clipPath></defs><g transform="translate(-12148.029 932.876)"><g transform="translate(12183.655 -923.196)"><ellipse class="b" cx="103.217" cy="102.908" rx="103.217" ry="102.908" transform="translate(0 0)"/></g><g transform="translate(12148.029 -932.876)"><g class="c" transform="translate(169.041 204.929)"><path class="d" d="M12774.348-204.17l-27.8,9.875c-.473.167-.315.712.2.712h60.518a6.221,6.221,0,0,0,2.056-.344l21.722-7.621,4.051-3.375c.29-.242.061-.636-.368-.626l-60.193,1.345A.6.6,0,0,0,12774.348-204.17Z" transform="translate(-12746.267 205.55)"/></g><g transform="translate(0 0)"><g transform="translate(64.278 109.606)"><g transform="translate(40.1 56.472)"><path class="e" d="M12528.311-298.428a1.206,1.206,0,0,1-.151-.009,10.1,10.1,0,0,1-7.347-4.479c-7.559-10.857-1.171-37.894-.895-39.04a1.273,1.273,0,0,1,1.535-.94,1.272,1.272,0,0,1,.938,1.535c-.064.269-6.4,27.07.509,36.992a7.566,7.566,0,0,0,5.558,3.4,1.273,1.273,0,0,1,1.114,1.414A1.272,1.272,0,0,1,12528.311-298.428Z" transform="translate(-12517.134 342.931)"/></g><g transform="translate(0 62.431)"><path class="e" d="M12376.6-275.816a1.27,1.27,0,0,1-1.26-1.122,1.271,1.271,0,0,1,1.111-1.414,8.468,8.468,0,0,0,5.854-3.482c8-10.262,4.51-38.308,4.475-38.59a1.272,1.272,0,0,1,1.1-1.424,1.271,1.271,0,0,1,1.424,1.1c.153,1.2,3.657,29.389-4.991,40.48a11.032,11.032,0,0,1-7.559,4.444A1.33,1.33,0,0,1,12376.6-275.816Z" transform="translate(-12375.333 321.859)"/></g><g transform="translate(71.438)"><path class="e" d="M12642.352-513.829a20.459,20.459,0,0,1-4.25-.458,26.16,26.16,0,0,1-9.656-4.325,1.274,1.274,0,0,1-.229-1.785,1.274,1.274,0,0,1,1.785-.229,23.987,23.987,0,0,0,8.713,3.868c6.525,1.36,12.176-.8,16.8-6.422,6.418-7.81,5.8-13.23,3.078-15.7-1.436-1.3-3.111-1.44-3.592-.959a3.562,3.562,0,0,0-1.107,1.565,1.273,1.273,0,0,1,.59,1.6,1.27,1.27,0,0,1-1.652.709,2.448,2.448,0,0,1-1.439-1.745c-.242-1.183.348-2.468,1.809-3.929,1.611-1.61,4.8-1.218,7.1.874,3.586,3.255,4.73,10.008-2.826,19.2C12652.518-515.529,12646.994-513.829,12642.352-513.829Zm11.426-24.5h0Zm0,0h0Zm0,0h0Z" transform="translate(-12627.951 542.629)"/></g></g><g transform="translate(28.37 2.896)"><path class="f" d="M12366.483-869.916a59.25,59.25,0,0,0-58.886-52.72,59.243,59.243,0,0,0-59.244,59.244c0,5.133,1.881,14.863,1.881,14.864,1.079,12.993,11.571,29.959,18.275,39.611a119.5,119.5,0,0,1,14.657,28.492c3.685,10.47,4.073,15.65,4.073,15.65l.006,0a12.537,12.537,0,0,0-.15,1.912c0,8.9,9.242,16.119,20.645,16.119a24.532,24.532,0,0,0,12.416-3.243h0C12377.964-781.387,12368.152-859.119,12366.483-869.916Z" transform="translate(-12248.354 922.636)"/></g><g transform="translate(28.37 2.896)"><g class="g"><g transform="translate(22.467 30.039)"><g class="h" transform="translate(0 91.255)"><path class="i" d="M12416.674-475.835q-.892,1-1.8,1.985a.738.738,0,0,0-.136.117c-.211.243-.431.483-.645.725-.2.213-.394.428-.593.641.321-.422.645-.842.958-1.272a.761.761,0,0,0-.175-1.132q.832-1.057,1.652-2.126c.407-.534-.037-1.057-.569-1.139a.624.624,0,0,0-1.008-.108c-.214.23-.428.46-.644.69a.909.909,0,0,0-1.513-.812q-5.464,5.4-10.94,10.787c-2.589,2.537-5.379,5-7.905,7.647a50.2,50.2,0,0,1-17.673,5.828c-5.332.782-11.016.374-15.747-2.4a15.887,15.887,0,0,1-5.454-5.3c-1.528-2.412-2.64-5.067-4.088-7.528a102.157,102.157,0,0,0-9.156-12.661l-.025-.071a1.518,1.518,0,0,0-.743-.867q-.753-.918-1.51-1.832a.961.961,0,0,0-.9-.393c-.861-1.04-1.749-2.058-2.675-3.044-1.816-1.936-3.935-4.414-6.383-5.542-.723-.333-1.634.571-.981,1.184a41.685,41.685,0,0,0,4.435,4.843,1.024,1.024,0,0,0,.135.573q1.583,2.865,3.091,5.769c1.348,12.133,1.468,24.894,8.22,35.526a28.248,28.248,0,0,0,11.732,10.733,23.05,23.05,0,0,0,5.608,1.726,1.627,1.627,0,0,0,2.677.311,28.292,28.292,0,0,0,9.91-1.192,45.716,45.716,0,0,0,14.38-7.768,1.5,1.5,0,0,0,2.411-.013c3.34-4.2,6.821-8.331,9.979-12.672.526-.723,1.035-1.467,1.512-2.23,3.975-4.063,7.78-8.29,11.5-12.587a.452.452,0,0,0-.13-.691q2.117-2.332,4.188-4.7C12418.268-475.516,12417.282-476.517,12416.674-475.835Zm-11.619,7.565a1.684,1.684,0,0,0-.133-.154q2.84-2.859,5.688-5.711Q12407.839-471.2,12405.055-468.269Z" transform="translate(-12327.802 493.716)"/></g><g class="h" transform="translate(25.547)"><path class="i" d="M12474.089-782.593c-.339-.435-.687-.867-1.027-1.3a.886.886,0,0,0-.05-.858q-.939-1.7-1.873-3.39a59.3,59.3,0,0,0-5.808-10.768.812.812,0,0,0-.357-.3c-1.326-2.324-2.647-4.656-3.811-7.052a9.151,9.151,0,0,1-1.056-5.391c.183-1.4.232-2.874-1.025-3.8-1.32-.976-3.3-1.08-5.206-.86a13.759,13.759,0,0,0-8.6,2.83,32.342,32.342,0,0,0-10.485,10.353c-4.073,6.111-13.089,11.614-15.612,18.5-2.6,7.091.143,17.038,3.179,24.46a1.07,1.07,0,0,0,2.091-.283c.015-.119.031-.238.047-.357a1.042,1.042,0,0,0,.266-.2c9.289-9.773,21.478-19.116,34.98-20.584a1.257,1.257,0,0,0,1.835.084c.092-.085.185-.165.278-.249a32.833,32.833,0,0,1,10.967,1.345C12474.189-780.007,12474.829-781.648,12474.089-782.593Z" transform="translate(-12418.141 816.412)"/></g></g></g></g><g transform="translate(70.707)"><path class="d" d="M12450.088-919.667a16.751,16.751,0,0,1-7.688,14.1s0,0,0,0h0a16.691,16.691,0,0,1-3.715,1.79h0c-2.246,1.086-5.26,2.545-8.314,4.021l-13.112,6.346c0,.048-9.271,5.4-11.11,10.477a16.611,16.611,0,0,0-.827,3.311,16.83,16.83,0,0,1-3.081-2.74,16.707,16.707,0,0,1-4.167-11.065,16.687,16.687,0,0,1,1.121-6.035s0-.006,0-.008a12.88,12.88,0,0,1,2.146-3.911,16.988,16.988,0,0,1,3.991-3.86,52.691,52.691,0,0,1,12.256-6.637,93.568,93.568,0,0,1,12.448-4H12430a16.786,16.786,0,0,0,13.163-12.205,16.626,16.626,0,0,0,.487-2.8,17.06,17.06,0,0,1,2.593,2.522A16.7,16.7,0,0,1,12450.088-919.667Z" transform="translate(-12398.063 932.876)"/></g><g transform="translate(81.618 48.108)"><ellipse class="j" cx="26.08" cy="31.639" rx="26.08" ry="31.639"/></g><g transform="translate(109.165 74.796)"><ellipse class="d" cx="10.28" cy="14.869" rx="10.28" ry="14.869"/></g><g transform="translate(123.805 80.645)"><g transform="translate(0 0)"><ellipse class="j" cx="1.366" cy="1.971" rx="1.366" ry="1.971" transform="translate(0 0.937) rotate(-20.045)"/></g></g><g transform="translate(0 29.216)"><path class="e" d="M12191.8-730.517c-24.139,0-43.774-23.061-43.774-51.407,0-14.479.76-25.816,4.47-34.088,4.088-9.12,11.651-13.553,23.121-13.553,8.371,0,13.938,6.482,16.547,19.268a1.271,1.271,0,0,1-.991,1.5,1.275,1.275,0,0,1-1.5-.992c-2.366-11.6-6.962-17.231-14.053-17.231-21.172,0-25.046,15.186-25.046,45.1,0,26.942,18.5,48.862,41.229,48.862,3.965,0,7.188-.015,9.554-.2,3.118-.247,3.609-.74,3.655-.8a1.266,1.266,0,0,1,1.745-.42,1.278,1.278,0,0,1,.422,1.754C12205.89-730.606,12201.536-730.517,12191.8-730.517Z" transform="translate(-12148.03 829.564)"/></g><g transform="translate(96.656 128.372)"><path class="d" d="M12489.824-477.224a8.448,8.448,0,0,1,1.673,1.793,12.237,12.237,0,0,1,1.216,2.138,12.806,12.806,0,0,1,1.1,4.851c.01.21,0,.422-.007.632s-.011.422-.031.632c-.032.421-.093.84-.164,1.256a11.711,11.711,0,0,1-.752,2.407,9.558,9.558,0,0,1-3.031,3.857,42.8,42.8,0,0,0,1.121-4.454c.122-.718.21-1.429.271-2.138.013-.357.051-.709.047-1.066.022-.354.01-.711,0-1.066a28.906,28.906,0,0,0-.458-4.317C12490.553-474.164,12490.208-475.636,12489.824-477.224Z" transform="translate(-12489.824 477.224)"/></g><g transform="translate(98.011 126.45)"><path class="d" d="M12495.888-470.055a1.27,1.27,0,0,1-.857-.334,1.271,1.271,0,0,1-.079-1.8c.416-.457,10.376-11.2,22.86-11.89a1.268,1.268,0,0,1,1.34,1.2,1.273,1.273,0,0,1-1.2,1.34c-11.433.628-21.027,10.962-21.122,11.066A1.272,1.272,0,0,1,12495.888-470.055Z" transform="translate(-12494.617 484.078)"/></g></g><g transform="translate(126.855 28.618)"><path class="k" d="M12606.922-816.323a.99.99,0,0,1-.975-.822c-1.6-9.31-8.236-12.513-8.52-12.645a.991.991,0,0,1-.478-1.314.987.987,0,0,1,1.311-.482c.319.147,7.853,3.731,9.638,14.1a.99.99,0,0,1-.809,1.144A.958.958,0,0,1,12606.922-816.323Z" transform="translate(-12596.857 831.677)"/></g><g transform="translate(85.695 6.996)"><path class="k" d="M12451.236-904.955c0-.992,4.021-3.183,8.824-3.183s9.543,2.784,9.543,3.776-4.741-.183-9.543-.183S12451.236-903.963,12451.236-904.955Z" transform="translate(-12451.236 908.138)"/></g><g transform="translate(151.225 71.923)"><g transform="translate(0 13.565)"><path class="l" d="M12701.084-498.668a1.554,1.554,0,0,1-.361-.043c-7.657-1.826-12.656-10.508-15.287-26.54-2.053-12.51-2.641-29.3-1.8-51.325a45.963,45.963,0,0,1,8.145-24.593,60.782,60.782,0,0,1,16.312-15.766,84.525,84.525,0,0,1,23.154-10.926,1.556,1.556,0,0,1,1.9,1.1,1.555,1.555,0,0,1-1.1,1.9,82.965,82.965,0,0,0-22.283,10.546c-14.69,9.951-22.436,22.686-23.016,37.851-1.8,46.826,3.147,71.966,14.7,74.721a1.557,1.557,0,0,1,1.152,1.874A1.555,1.555,0,0,1,12701.084-498.668Z" transform="translate(-12683.267 627.913)"/></g><g transform="translate(46.433)"><g transform="translate(9.683)"><path class="m" d="M12890.754-650.166h-4.124c-2.723,0-4.925-5.758-4.925-12.858s2.2-12.858,4.925-12.858h4.124a2.769,2.769,0,0,0-2.065,1.182,9.9,9.9,0,0,0-1.562,2.983,17.231,17.231,0,0,0-.5,1.666,29.3,29.3,0,0,0-.8,7.027,29.3,29.3,0,0,0,.8,7.027,17.231,17.231,0,0,0,.5,1.666,9.9,9.9,0,0,0,1.563,2.983A2.769,2.769,0,0,0,12890.754-650.166Z" transform="translate(-12881.705 675.883)"/></g><g transform="translate(13.806)"><path class="n" d="M12906.135-663.025c0,6.391-1.787,11.693-4.127,12.689a1.976,1.976,0,0,1-.795.17,2.764,2.764,0,0,1-2.066-1.182,9.9,9.9,0,0,1-1.564-2.983c-.182-.518-.35-1.075-.5-1.666a29.4,29.4,0,0,1-.8-7.027,29.4,29.4,0,0,1,.8-7.027c.146-.591.314-1.148.5-1.666a9.9,9.9,0,0,1,1.564-2.983,2.764,2.764,0,0,1,2.066-1.182,1.976,1.976,0,0,1,.795.17C12904.348-674.718,12906.135-669.416,12906.135-663.025Z" transform="translate(-12896.285 675.883)"/></g><path class="o" d="M12862.071-650.166h-1.748a12.814,12.814,0,0,1-9.092-3.767,12.811,12.811,0,0,1-3.767-9.092,12.859,12.859,0,0,1,12.858-12.858h1.748c-2.721,0-4.925,5.758-4.925,12.858S12859.351-650.166,12862.071-650.166Z" transform="translate(-12847.465 675.883)"/><g class="p"><g class="q" transform="translate(-0.798 16.568)"><path class="m" d="M12844.642-616.9s8.185,3.593,26.648-.4v7.885S12847.734-605.519,12844.642-616.9Z" transform="translate(-12844.642 617.296)"/></g></g><g transform="translate(9.683)"><g class="r"><g class="s" transform="translate(-10.481 16.568)"><path class="t" d="M12844.642-616.9s8.185,3.593,26.648-.4v7.885S12847.734-605.519,12844.642-616.9Z" transform="translate(-12844.642 617.296)"/></g></g></g><g transform="translate(17.242 7.86)"><path class="t" d="M12924.23-647.242h-15.371a.424.424,0,0,1-.424-.424.424.424,0,0,1,.424-.424h15.371a.424.424,0,0,1,.424.424A.424.424,0,0,1,12924.23-647.242Z" transform="translate(-12908.436 648.09)"/></g><g transform="translate(17.242 18.364)"><path class="t" d="M12924.23-610.095h-15.371a.425.425,0,0,1-.424-.424.424.424,0,0,1,.424-.424h15.371a.424.424,0,0,1,.424.424A.425.425,0,0,1,12924.23-610.095Z" transform="translate(-12908.436 610.943)"/></g></g><g transform="translate(9.157 95.153)"><g transform="translate(6.304)"><path class="u" d="M12779.953-337.205h-42.013l7.386-2.2h42.012Z" transform="translate(-12737.94 339.401)"/></g><g transform="translate(0 38.969)"><path class="v" d="M12767.421-198.043h-51.774l9.668-3.554h51.774Z" transform="translate(-12715.646 201.597)"/></g><g transform="translate(0 46.125)"><path class="u" d="M12767.421-172.739h-51.774l9.668-3.554h51.774Z" transform="translate(-12715.646 176.293)"/></g><g transform="translate(48.317)"><path class="w" d="M12886.506-337.205v39.225l7.385-2.2V-339.4Z" transform="translate(-12886.506 339.401)"/></g><g transform="translate(6.304 2.196)"><rect class="x" width="42.013" height="39.225"/></g><g transform="translate(51.869 6.288)"><path class="y" d="M12899.49-311.443a.424.424,0,0,1-.426-.424v-4.874a.424.424,0,0,1,.426-.424.424.424,0,0,1,.423.424v4.874A.424.424,0,0,1,12899.49-311.443Z" transform="translate(-12899.064 317.165)"/><g transform="translate(0 11.444)"><path class="y" d="M12899.49-270.973a.424.424,0,0,1-.426-.424v-4.874a.424.424,0,0,1,.426-.424.424.424,0,0,1,.423.424v4.874A.424.424,0,0,1,12899.49-270.973Z" transform="translate(-12899.064 276.695)"/></g><g transform="translate(0 22.889)"><path class="y" d="M12899.49-230.5a.424.424,0,0,1-.426-.424V-235.8a.424.424,0,0,1,.426-.424.424.424,0,0,1,.423.424v4.874A.424.424,0,0,1,12899.49-230.5Z" transform="translate(-12899.064 236.225)"/></g></g><g transform="translate(51.775 38.969)"><path class="z" d="M12898.73-198.043v7.156l9.668-3.554V-201.6Z" transform="translate(-12898.73 201.597)"/></g><g transform="translate(0 42.524)"><rect class="aa" width="51.775" height="7.156"/></g></g></g><g class="c" transform="translate(42.311 204.896)"><path class="d" d="M12303.19-198.972a36.861,36.861,0,0,1,16.211-5.439c13.039-1.2,41.568-2.917,62.851,2.351,16.208,4.012,7.306,8.652-3.364,11.9a104.808,104.808,0,0,1-28.425,4.489C12328.1-185.206,12282.046-185.736,12303.19-198.972Z" transform="translate(-12297.773 205.667)"/></g></g><g transform="translate(12240.179 -801.922)"><path class="k" d="M12478.483-463.3q-.1-1.532-.206-3.064a1.357,1.357,0,0,0-1.442-1.362,1.387,1.387,0,0,0-2.445.9c.027.717.059,1.435.086,2.153-.013.031-.027.061-.04.093a5.917,5.917,0,0,0,.411,5.028,1.425,1.425,0,0,0,2.636-.714c-.023-.566-.045-1.131-.069-1.7A1.186,1.186,0,0,0,12478.483-463.3Z" transform="translate(-12474.056 468.184)"/></g></g></svg>