<svg xmlns="http://www.w3.org/2000/svg" xmlns:xlink="http://www.w3.org/1999/xlink" width="218" height="218" viewBox="0 0 218 218"><defs><style>.a{fill:none;}.b{fill:#f9c402;}.c{opacity:0.35;}.d{fill:#431447;}.e{fill:#7e2081;}.f{fill:#3a2147;}.g{fill:#57115b;}.h{fill:#dad7db;}.i{fill:#fff;}.j{fill:#c7bece;}.k{fill:#231f20;}.l{fill:#bc5bbc;}.m{clip-path:url(#a);}.n{fill:#e2dcde;}</style><clipPath id="a"><path class="a" d="M535.423,153.947A58.6,58.6,0,0,0,426.714,123.57h0s-19.014,22.014-10.965,83.063c9,43.076,29.513,60.89,50.427,59.875a20.587,20.587,0,0,0,20.587-20.587s2.749-24.227,28.132-47.428l0,0A58.459,58.459,0,0,0,535.423,153.947Z" transform="translate(-413.763 -95.353)"/></clipPath></defs><g transform="translate(-51.32 -68.167)"><g transform="translate(51.32 68.167)"><circle class="b" cx="109" cy="109" r="109" transform="translate(0 0)"/></g><g transform="translate(68.621 74.246)"><g class="c" transform="translate(0 201.439)"><ellipse class="d" cx="35.706" cy="4.845" rx="35.706" ry="4.845"/></g><g transform="translate(63.209)"><path class="e" d="M535.423,153.947A58.6,58.6,0,0,0,426.714,123.57h0s-19.014,22.014-10.965,83.063c9,43.076,29.513,60.89,50.427,59.875a20.587,20.587,0,0,0,20.587-20.587s2.749-24.227,28.132-47.428l0,0A58.459,58.459,0,0,0,535.423,153.947Z" transform="translate(-413.763 -95.353)"/></g><g transform="translate(88.562 14.307)"><path class="f" d="M526.41,179.831c.081-.41.175-.818.274-1.229a11.994,11.994,0,0,1,.339-1.223A20.749,20.749,0,0,1,527.94,175c.178-.389.352-.785.545-1.171l.635-1.126a11.69,11.69,0,0,1,.681-1.11c.243-.36.494-.716.745-1.077l.189-.27.205-.255.415-.509c.279-.339.557-.683.851-1.012s.611-.635.921-.953l.467-.476c.159-.156.33-.3.5-.444.334-.292.668-.589,1.009-.879.167-.15.345-.284.525-.417l.538-.4c.363-.262.72-.54,1.1-.785s.762-.478,1.147-.714l.579-.355c.2-.11.4-.212.6-.316l1.212-.619a6.209,6.209,0,0,1,.62-.282l.63-.262c.422-.169.839-.359,1.27-.509a29.329,29.329,0,0,1,5.318-1.345c.454-.067.909-.139,1.365-.2.457-.04.915-.066,1.374-.1s.918-.074,1.378-.068l1.38.006c.46.019.92.053,1.38.081.231.011.46.034.689.062l.688.078c.229.028.459.05.687.089l.683.118c.455.078.911.155,1.36.265a29.162,29.162,0,0,1,10.108,4.353,28.541,28.541,0,0,1,7.682,7.687,26.684,26.684,0,0,1,4.1,9.786c.074.433.166.858.221,1.291s.108.864.151,1.295l.075,1.3c.03.427.006.863.006,1.29a20.9,20.9,0,0,1-.693,5.027c-.459-1.621-.946-3.169-1.519-4.652l-.221-.552c-.075-.183-.139-.367-.224-.546l-.474-1.073c-.179-.349-.344-.7-.513-1.044s-.363-.681-.541-1.018a32.006,32.006,0,0,0-5.307-7.131,29.564,29.564,0,0,0-14.592-8.15c-.337-.089-.68-.147-1.024-.21l-.514-.1c-.171-.032-.346-.046-.518-.074l-.518-.075c-.172-.028-.345-.051-.52-.063l-1.044-.1-1.05-.056a5.151,5.151,0,0,0-.526-.008h-.526l-1.055,0c-.349.028-.7.046-1.052.068-.707.018-1.4.135-2.105.213-.175.024-.354.034-.527.07l-.521.1-1.049.193c-.348.073-.69.171-1.038.254l-.521.129c-.174.042-.35.083-.519.142l-1.029.325c-.171.056-.347.1-.518.161l-.505.2c-.338.131-.677.261-1.021.386s-.664.3-1,.445l-.5.223a4.811,4.811,0,0,0-.5.239c-.324.174-.654.341-.984.513-.164.087-.334.167-.5.26l-.479.287-.971.574c-.319.2-.621.423-.94.631l-.476.318-.238.161-.227.173c-.6.47-1.246.91-1.822,1.429l-.9.758-.861.813c-.6.534-1.129,1.127-1.7,1.713-.3.285-.547.6-.823.911S526.7,179.519,526.41,179.831Z" transform="translate(-526.41 -159.342)"/></g><g transform="translate(114.796 169.621)"><path class="g" d="M653.1,887.006a1.087,1.087,0,0,1-.122-.007c-.176-.021-4.348-.555-6.708-3.439-.421-.515-1.54-1.882-2.209-14.349-.323-6.021-.385-11.8-.386-11.856a1.006,1.006,0,0,1,1-1.016h.011a1.006,1.006,0,0,1,1.006,1c.114,11.12.946,23.493,2.14,24.952,1.841,2.25,5.358,2.712,5.394,2.716a1.006,1.006,0,0,1-.121,2.005Z" transform="translate(-643.677 -856.338)"/></g><g transform="translate(91.9 166.289)"><path class="g" d="M542.817,873.39a4.51,4.51,0,0,1-1.085-.114,1.006,1.006,0,1,1,.488-1.952c1.292.321,5.255-.769,7.159-1.294.363-.1.693-.191.98-.267.531-2.343-1-15.386-2.858-27.163a1.006,1.006,0,1,1,1.988-.314c.011.069,1.108,7.029,1.958,13.957.5,4.082.82,7.359.948,9.74.218,4.041-.057,5.358-1.175,5.636-.335.084-.785.208-1.307.351A31.476,31.476,0,0,1,542.817,873.39Z" transform="translate(-540.969 -841.437)"/></g><g transform="translate(49.172 119.95)"><path class="g" d="M350.33,639.9a1.006,1.006,0,0,1-.669-1.758c2.23-1.982,15.628-4.446,18.292-4.92a1.006,1.006,0,0,1,.352,1.982c-6.39,1.137-15.984,3.267-17.307,4.443A1,1,0,0,1,350.33,639.9Z" transform="translate(-349.323 -633.209)"/></g><g transform="translate(35.285 128.245)"><path class="h" d="M297.346,750.227c-.036,0-.069.007-.105.009-.168.016-.34.022-.512.022a6.034,6.034,0,0,1-1.773-.266l-.007,0-.022-.007c-.069-.022-.136-.045-.2-.069-.047-.016-.092-.031-.136-.049a6,6,0,0,1-.932-.454c-.058-.034-.116-.069-.172-.107a5.628,5.628,0,0,1-.606-.447c-.107-.089-.212-.183-.313-.279a.236.236,0,0,0-.034-.033c-.092-.092-.183-.186-.271-.284a5.967,5.967,0,0,1-.637-.854c-.072-.114-.139-.23-.2-.349l-.038-.072c-.043-.085-.085-.172-.125-.262a.855.855,0,0,1-.04-.094c-.063-.139-.116-.28-.165-.425a5.887,5.887,0,0,1-.25-1.017c-.022-.141-.04-.284-.051-.427-.013-.165-.02-.331-.02-.5-.286-1.592,1.317-8.344,2.019-11.448,0-.016.007-.031.011-.047.011-.045.02-.089.029-.132.018-.085.034-.165.047-.244.038-.2.063-.38.076-.528.018-.183.027-.367.027-.555a6,6,0,0,0-4-5.657l-.018,0-.838-.228-1.058-.289a24.6,24.6,0,0,0,2.334-8.6,5.9,5.9,0,0,0,2.314-1c.271-.219.5-.4.729-.613.069-.063.132-.128.195-.195s.13-.143.19-.217c.045-.052.089-.107.13-.161a1.344,1.344,0,0,0,.083-.107,1.761,1.761,0,0,0,.107-.148c.036-.051.074-.105.112-.163s.078-.116.114-.177a.031.031,0,0,0,.007-.011s0,0,0-.007a5.905,5.905,0,0,0,.519-1.109s0,0,0,0c3.727-8.941,5.771-35.1,5.813-35.625v-.007a6,6,0,0,1,8.955-4.917l.013.007c.121.071.239.145.353.221l.013.009a5.819,5.819,0,0,1,.758.6,5.97,5.97,0,0,1,1.836,3.528c.016.259.036.595.056,1,.047.827.1,1.948.163,3.314C312.544,697.171,313.492,748.9,297.346,750.227Z" transform="translate(-287.03 -671.29)"/></g><g transform="translate(13.467 113.555)"><path class="i" d="M232.472,620.6a6,6,0,0,0-8.955,4.917v.007c-.042.521-2.086,26.683-5.813,35.625,0,0,0,0,0,0-.17.407-.342.778-.519,1.109,0,0,0,0,0,.007a.028.028,0,0,1-.007.011c-.036.06-.074.119-.114.177s-.076.112-.112.163a1.793,1.793,0,0,1-.107.148c-.027.038-.054.074-.083.107-.04.054-.085.109-.13.161-.06.074-.125.145-.19.217s-.125.132-.195.194c-.228.215-.458.394-.729.613a5.9,5.9,0,0,1-2.314,1,3.683,3.683,0,0,0-.588.085l-.248.02h-.013q-.513-.01-.986-.034h-.009c-7.012-.311-6.388-.827-6.388-.827,1.541.074,1.183-1.679,1.952-2.01a2.727,2.727,0,0,0,1.836-2.055c-.821.262-1.648.472-2.459.644h0a35.087,35.087,0,0,1-8.244.706,10.043,10.043,0,0,0,2.314-6.4c-1.684,2.314-6.761,3.235-6.761,3.235a13.8,13.8,0,0,0,2.236-4.588c-2.735,1.277-6.312-.226-4.821-.016s2.3-1.894,2.3-1.894a5.52,5.52,0,0,1-4.382-2.276,7.307,7.307,0,0,0,3.278.975c4.261.464,5.5-3.152,5.859-4.988.166-.86.347-1.718.571-2.565,2.461-9.293,4.3-25.635,4.906-31.56a4.924,4.924,0,0,1-.025-.516c0-.1,0-.206.007-.306,0-.04,0-.06,0-.06a5.927,5.927,0,0,1,.221-1.283,6,6,0,0,1,8.622-3.622,5.92,5.92,0,0,1,1.335.988l13.1,9.695Z" transform="translate(-188.93 -605)"/></g><g transform="translate(35.9 173.556)"><path class="a" d="M289.26,873.94q.473.023.986.034-.154.007-.309.007A5.634,5.634,0,0,1,289.26,873.94Z" transform="translate(-289.26 -873.94)"/></g><g transform="translate(37.041 173.485)"><g transform="translate(0 0)"><path class="a" d="M294.84,873.7a3.7,3.7,0,0,1,.588-.085A5.62,5.62,0,0,1,294.84,873.7Z" transform="translate(-294.84 -873.62)"/></g></g><g transform="translate(41.601 169.581)"><path class="a" d="M315.809,856.16a5.913,5.913,0,0,1-.519,1.109C315.467,856.938,315.639,856.567,315.809,856.16Z" transform="translate(-315.29 -856.16)"/></g><g transform="translate(28.732 182.265)"><path class="j" d="M272.078,937.563c-.6-.154-10.341-2.705-14.478-5.945.456-5.261.432-11.848.5-12.729a5.721,5.721,0,0,1,.036-.653c.011-.107.025-.212.042-.318s.038-.21.06-.313.043-.186.067-.275c.018-.063.036-.125.056-.188a4.175,4.175,0,0,1,.141-.407c.033-.092.072-.181.112-.268a.489.489,0,0,1,.02-.051c.007-.018.013-.031.016-.038a.086.086,0,0,1,0-.011A6,6,0,0,1,265.238,913l.838.228.018,0a6,6,0,0,1,4,5.657c0,.188-.009.371-.027.555-.013.148-.038.324-.076.528-.013.078-.029.159-.047.244-.009.042-.018.087-.029.132,0,.016-.007.031-.011.047-.7,3.1-2.305,9.856-2.019,11.448,0,.168.007.333.02.5.011.143.029.286.051.427a5.887,5.887,0,0,0,.25,1.017c.049.145.1.286.165.425a.853.853,0,0,0,.04.094c.04.089.083.177.125.262l.038.072c.06.118.127.235.2.349a5.964,5.964,0,0,0,.637.854c.087.1.179.192.271.284a.239.239,0,0,1,.034.033c.1.1.206.19.313.28a5.649,5.649,0,0,0,.606.447c.056.038.114.074.172.107a5.976,5.976,0,0,0,.932.454c.045.018.089.034.136.049C271.941,937.518,272.008,937.541,272.078,937.563Z" transform="translate(-257.6 -912.89)"/></g><g transform="translate(12.734 177.858)"><g transform="translate(0 0)"><path class="i" d="M209.375,897.7a6,6,0,0,0-6.587,3.367.089.089,0,0,0,0,.011c0,.007-.009.02-.016.038a.5.5,0,0,0-.02.052,2.317,2.317,0,0,0-.112.268,4.151,4.151,0,0,0-.141.407c-.022.063-.04.125-.056.188-.025.089-.047.183-.067.275s-.042.208-.06.313-.031.21-.042.318a5.717,5.717,0,0,0-.036.653c-.065.881-.04,7.468-.5,12.729,0,.007,0,.013,0,.02a28.142,28.142,0,0,1-.821,5.21c-.016.054-.031.107-.051.159a3.528,3.528,0,0,1-3.32,2.352c-.063,0-.123,0-.183-.007a3.6,3.6,0,0,1-1.923-.7.007.007,0,0,1,0,0,3.516,3.516,0,0,1-1.4-2.614c0-.065,0-.13,0-.2s0-.136.007-.2.009-.139.018-.208c0-.049.011-.1.02-.152a14,14,0,0,1,2.111-4.689,4.481,4.481,0,0,0-4.1,1.25s-1.525-3.144,0-5.67a5.083,5.083,0,0,0-4.208,4.526c-2-2.053-.843-5.811-.843-5.811a2.239,2.239,0,0,0-1.38-.022c.284-4.7.275-9.63.329-10.384.011-.148.025-.293.042-.432,0-.043.011-.085.018-.127.034-.259.078-.5.125-.72.02-.092.04-.179.063-.264s.043-.163.063-.239c.007-.025.013-.049.02-.071.011-.04.022-.076.034-.112.06-.208.116-.362.15-.456.009-.02.016-.038.02-.051a.326.326,0,0,1,.016-.036,6,6,0,0,1,5.447-3.488,5.906,5.906,0,0,1,1.661.235h0l14.679,3.993Z" transform="translate(-185.65 -893.18)"/></g></g><g transform="translate(22.52 208.032)"><g transform="translate(0 0)"><path class="a" d="M231.343,1028.825c-.1,0-.195-.013-.291-.027h-.007a3.49,3.49,0,0,1-1.626-.669A3.6,3.6,0,0,0,231.343,1028.825Z" transform="translate(-229.42 -1028.13)"/></g></g><g transform="translate(56.846 129.232)"><path class="a" d="M383.67,674.79l.013.007,1.125.834" transform="translate(-383.67 -674.79)"/></g><g transform="translate(28.289 117.997)"><path class="a" d="M255.22,624.417v-.007" transform="translate(-255.22 -624.41)"/></g><g transform="translate(39.935 171.875)"><g transform="translate(0 0)"><path class="a" d="M308.549,866.42a5.631,5.631,0,0,1-.729.613C308.091,866.814,308.321,866.635,308.549,866.42Z" transform="translate(-307.82 -866.42)"/></g></g><g transform="translate(36.794 173.57)"><path class="a" d="M293.73,874.02a1.33,1.33,0,0,0,.248-.02" transform="translate(-293.73 -874)"/></g><g transform="translate(13.078 157.62)"><path class="a" d="M187.19,802.07s.054.1.161.264v0c.06.089.136.2.228.322" transform="translate(-187.19 -802.07)"/></g><g transform="translate(13.063 181.433)"><path class="a" d="M187.634,909.17c-.034.094-.089.248-.15.456-.011.036-.022.071-.034.112-.007.022-.013.047-.02.072-.02.076-.043.154-.063.239s-.042.172-.063.264c-.047.219-.092.461-.125.72a1.246,1.246,0,0,0-.018.128c-.018.139-.031.284-.043.432A5.885,5.885,0,0,1,187.634,909.17Z" transform="translate(-187.12 -909.17)"/></g><g transform="translate(4.761 193.679)"><g transform="translate(0 0)"><path class="j" d="M169.724,978.994c-7.714.315-16.492-4.123-17.722-4.792l-.154-.085a3.511,3.511,0,0,1-1.762-3.047s-.921-5,3.025-7.13c0,0-1.026,3.027,1.342,3.566,0,0,1.639-2.482,3.513-3.007a2.24,2.24,0,0,1,1.38.023s-1.156,3.758.843,5.811a5.083,5.083,0,0,1,4.208-4.526c-1.525,2.527,0,5.67,0,5.67a4.482,4.482,0,0,1,4.1-1.25,14,14,0,0,0-2.111,4.689c-.009.051-.016.1-.02.152-.009.069-.013.139-.018.208s-.007.136-.007.2,0,.132,0,.2a3.516,3.516,0,0,0,1.4,2.614.007.007,0,0,0,0,0,3.6,3.6,0,0,0,1.923.7Z" transform="translate(-149.993 -963.94)"/></g></g><g transform="translate(13.613 181.333)"><g transform="translate(0 0)"><path class="a" d="M189.584,908.72a.077.077,0,0,0,0,.013" transform="translate(-189.58 -908.72)"/></g></g><g transform="translate(86.349 101.906)"><path class="g" d="M534.587,566.344a1.007,1.007,0,0,1-.969-.735c-.029-.105-3.05-10.583-9.843-11.22a4.252,4.252,0,0,0-3.6,1.105c-2.4,2.372-2.014,7.623-2.01,7.676a1.006,1.006,0,0,1-2.006.164c-.021-.253-.473-6.232,2.6-9.267a6.232,6.232,0,0,1,5.207-1.68c8.171.766,11.457,12.2,11.593,12.682a1.007,1.007,0,0,1-.969,1.277Z" transform="translate(-516.123 -552.346)"/></g><g transform="translate(56.878 123.42)"><path class="g" d="M410.749,666.994a115.171,115.171,0,0,1-25.7-3.131,1.006,1.006,0,0,1,.451-1.961c25.7,5.912,42.785,2.151,52.6-2.045,10.6-4.535,15.221-10.54,15.267-10.6a1.006,1.006,0,0,1,1.609,1.209c-.2.26-4.9,6.424-15.943,11.181a67.668,67.668,0,0,1-21.639,5.1Q414.14,666.994,410.749,666.994Z" transform="translate(-384.264 -648.856)"/></g><g class="c" transform="translate(75.217 21.288)"><g transform="translate(0 0)"><ellipse class="d" cx="33.366" cy="28.509" rx="33.366" ry="28.509" transform="matrix(0.177, -0.984, 0.984, 0.177, 0, 65.678)"/></g></g><g transform="translate(73.435 31.598)"><g transform="translate(0)"><g transform="translate(0)"><ellipse class="i" cx="25.794" cy="24.621" rx="25.794" ry="24.621" transform="translate(0 44.676) rotate(-60)"/></g></g><g transform="translate(13.894 35.558)"><path class="k" d="M531.695,395.706a10.93,10.93,0,1,0,10.93,10.93A10.93,10.93,0,0,0,531.695,395.706Zm6.5,11.561a2.9,2.9,0,1,1,2.9-2.9A2.9,2.9,0,0,1,538.191,407.267Z" transform="translate(-520.765 -395.706)"/></g></g><g transform="translate(159.726 25.422)"><path class="l" d="M854.99,223.416c-2.687,1.667-3.411-1.754-5.763-5.545s-5.441-6.518-2.753-8.185,6.772.055,9.124,3.846S857.677,221.749,854.99,223.416Z" transform="translate(-845.432 -209.05)"/></g><g transform="translate(63.209)"><g class="m"><g class="c" transform="translate(-6.159 102.037)"><path class="d" d="M394.361,560.95s14.678,61.069,63.211,50.179c0,0,6.06-1.379,8.593-14.894l7.269,23.544-60.37,9.579-23.9-39.773-2.944-37.879Z" transform="translate(-386.215 -551.706)"/></g></g></g><g transform="translate(32.395 120.392)"><path class="n" d="M286.267,644.619a.557.557,0,0,1-.323-.1l-11.679-8.291a.559.559,0,1,1,.647-.912l11.679,8.291a.559.559,0,0,1-.324,1.015Z" transform="translate(-274.029 -635.21)"/></g><g transform="translate(30.655 126.525)"><path class="n" d="M278.46,672.121a.556.556,0,0,1-.323-.1l-11.68-8.291a.559.559,0,0,1,.647-.912l11.679,8.291a.559.559,0,0,1-.324,1.015Z" transform="translate(-266.222 -662.712)"/></g><g transform="translate(29.411 133.283)"><path class="n" d="M272.88,702.424a.558.558,0,0,1-.323-.1l-11.679-8.291a.559.559,0,1,1,.647-.912l11.679,8.291a.559.559,0,0,1-.324,1.015Z" transform="translate(-260.642 -693.015)"/></g><g transform="translate(28.751 139.413)"><path class="n" d="M269.92,729.914a.556.556,0,0,1-.323-.1l-11.68-8.291a.559.559,0,0,1,.647-.912l11.679,8.291a.559.559,0,0,1-.324,1.015Z" transform="translate(-257.682 -720.505)"/></g><g transform="translate(26.655 145.461)"><path class="n" d="M260.15,757.034a.557.557,0,0,1-.323-.1l-11.679-8.291a.559.559,0,0,1,.647-.912l11.68,8.291a.559.559,0,0,1-.324,1.015Z" transform="translate(-247.912 -747.625)"/></g><g transform="translate(25.497 151.188)"><path class="n" d="M254.972,782.717a.559.559,0,0,1-.323-.1l-11.679-8.291a.559.559,0,1,1,.647-.912L255.3,781.7a.559.559,0,0,1-.324,1.015Z" transform="translate(-242.734 -773.308)"/></g><g transform="translate(24.267 155.323)"><path class="n" d="M249.47,801.256a.558.558,0,0,1-.323-.1l-11.68-8.291a.559.559,0,1,1,.647-.912l11.679,8.291a.559.559,0,0,1-.324,1.015Z" transform="translate(-237.232 -791.848)"/></g><g transform="translate(17.185 180.874)"><g transform="translate(0 0)"><path class="n" d="M215.588,910.208a.551.551,0,0,1-.139-.018l-9.47-2.421a.559.559,0,0,1,.277-1.083l9.47,2.421a.559.559,0,0,1-.138,1.1Z" transform="translate(-205.558 -906.668)"/></g></g><g transform="translate(15.468 185.166)"><g transform="translate(0 0)"><path class="n" d="M207.908,929.4a.551.551,0,0,1-.139-.018l-9.47-2.422a.559.559,0,0,1,.277-1.083l9.47,2.422a.559.559,0,0,1-.138,1.1Z" transform="translate(-197.878 -925.862)"/></g></g><g transform="translate(14.797 190.315)"><path class="n" d="M204.908,952.433a.557.557,0,0,1-.139-.018l-9.47-2.422a.559.559,0,1,1,.277-1.083l9.47,2.422a.559.559,0,0,1-.138,1.1Z" transform="translate(-194.878 -948.893)"/></g><g class="c" transform="translate(73.151 195.659)"><ellipse class="d" cx="35.706" cy="4.845" rx="35.706" ry="4.845"/></g></g></g></svg>