<svg xmlns="http://www.w3.org/2000/svg" xmlns:xlink="http://www.w3.org/1999/xlink" width="220" height="210" viewBox="0 0 220 210"><defs><style>.a{fill:none;}.b{fill:#f9c402;}.c{opacity:0.35;}.d{fill:#431447;}.e{fill:#57115b;}.f{fill:#7e2081;}.g{clip-path:url(#a);}.h{fill:#231f20;}.i{fill:#fff;}.j{fill:#dad7db;}.k{fill:#e2dcde;}.l{fill:#bc5bbc;}.m{fill:#e7dde8;}</style><clipPath id="a"><path class="a" d="M603.925,277.089C603.925,241.141,574.5,212,538.2,212s-65.722,29.141-65.722,65.089c0,0-13.309,94.358,52.5,129.22a31.2,31.2,0,0,0,3.854,1.934l.009,0h0a32.6,32.6,0,0,0,12.582,2.494c.308,0,.614-.007.919-.016q.493.015.988.016c20.43,0,36.991-19.4,36.991-43.335a50.537,50.537,0,0,0-1.054-10.3c-.336-8.891-1.6-15.882,4.8-26.118a183.161,183.161,0,0,0,14.451-28.038,64.193,64.193,0,0,0,2.731-7.468c.066-.211.1-.323.1-.323h0A64.53,64.53,0,0,0,603.925,277.089Z" transform="translate(-471.377 -212)"/></clipPath></defs><g transform="translate(-180.054 -200.119)"><g transform="translate(180.054 200.119)"><g transform="translate(0 0)"><ellipse class="b" cx="103.794" cy="104.143" rx="103.794" ry="104.143"/></g></g><g class="c" transform="translate(232.254 382.005)"><g transform="translate(0 0)"><ellipse class="d" cx="69.08" cy="14.057" rx="69.08" ry="14.057"/></g></g><g transform="translate(244.876 323.592)"><g transform="translate(0 0)"><path class="e" d="M394.42,621.936a1.856,1.856,0,0,1-1.768-2.418c2.26-7.03,7.868-12.058,16.217-14.539a40.132,40.132,0,0,1,11.795-1.627,1.852,1.852,0,1,1-.143,3.7h0c-.2-.007-19.782-.565-24.335,13.6A1.857,1.857,0,0,1,394.42,621.936Z" transform="translate(-392.564 -603.342)"/></g></g><g transform="translate(267.507 203.786)"><g transform="translate(0 0)"><path class="f" d="M603.924,277.089C603.924,241.141,574.5,212,538.2,212c-35.566,0-64.533,27.979-65.686,62.925-.047,1.412-.131,2.823-.28,4.229-1.479,13.993-7.306,95.344,52.747,127.155a31.191,31.191,0,0,0,3.854,1.934l.009,0h0a32.6,32.6,0,0,0,12.582,2.494c.308,0,.614-.007.919-.016q.493.015.988.016c20.429,0,36.991-19.4,36.991-43.335a50.8,50.8,0,0,0-.523-7.288c-.34-2.343-.607-4.7-.723-7.061-.35-7.105-.4-13.431,4.994-22.066a183.148,183.148,0,0,0,14.451-28.038,64.193,64.193,0,0,0,2.731-7.468c.066-.211.1-.323.1-.323h0A64.53,64.53,0,0,0,603.924,277.089Z" transform="translate(-471.377 -212)"/></g></g><g transform="translate(267.507 203.786)"><g class="g" transform="translate(0 0)"><g class="c" transform="translate(-20.146 124.244)"><path class="d" d="M434.478,631.542s14.677,41.043,46.534,49.153c13.56,3.452,33.811-1.376,51.236-14.554L524.567,695l-60.582,12.725-57.744-90.1Z" transform="translate(-406.24 -617.626)"/></g></g></g><g class="c" transform="translate(315.227 326.516)"><g transform="translate(0)"><path class="d" d="M637.052,617.342a8.2,8.2,0,0,1-13.9-4.579,8.193,8.193,0,1,0,15.945,1.183A8.138,8.138,0,0,1,637.052,617.342Z" transform="translate(-622.794 -612.763)"/></g></g><g transform="translate(312.984 320.813)"><g transform="translate(0 0)"><path class="e" d="M625.033,611.922a9.564,9.564,0,0,1-5.481-17.419,1.39,1.39,0,1,1,1.593,2.278,6.8,6.8,0,1,0,8.32,10.725,1.39,1.39,0,1,1,1.814,2.107A9.6,9.6,0,0,1,625.033,611.922Z" transform="translate(-615.445 -594.253)"/></g></g><g transform="translate(291.812 334.299)"><g transform="translate(0 0)"><path class="e" d="M559.083,650.953a15.828,15.828,0,0,1-12.4-6.047,1.391,1.391,0,0,1,2.177-1.731,13.055,13.055,0,0,0,10.219,5,13.4,13.4,0,0,0,12.468-9.043,1.391,1.391,0,0,1,2.622.932A16.182,16.182,0,0,1,559.083,650.953Z" transform="translate(-546.383 -638.208)"/></g></g><g transform="translate(281.972 218.929)"><g transform="translate(0 0)"><path class="h" d="M514.946,283.466a1.8,1.8,0,0,0,.228-.644c.053-.224.1-.452.144-.682.089-.46.189-.919.287-1.384.211-.922.446-1.852.743-2.769a26.968,26.968,0,0,1,2.367-5.406,23.736,23.736,0,0,1,3.772-4.917,22.013,22.013,0,0,1,5.244-3.865,23.223,23.223,0,0,1,6.288-2.231,25.724,25.724,0,0,1,3.291-.435,26.34,26.34,0,0,1,3.271-.034c.272.009.54.027.808.047s.548.036.794.068l1.512.174c.5.051,1.013.151,1.518.232l.759.128.761.16c1.015.2,2.026.488,3.039.769.5.161,1.006.333,1.509.5s1,.381,1.5.572.986.433,1.476.655c.244.116.491.223.732.347l.721.381.716.39c.236.137.467.283.7.425.465.287.934.565,1.378.889a28.837,28.837,0,0,1,4.932,4.3,31.661,31.661,0,0,1,6.337,10.764,37.894,37.894,0,0,1,1.557,5.725,44.636,44.636,0,0,1,.745,5.728,48.658,48.658,0,0,1,.059,5.693,41.386,41.386,0,0,1-.608,5.657c-.893-1.7-1.654-3.4-2.439-5.068l-1.154-2.487c-.4-.815-.762-1.637-1.161-2.437-.766-1.611-1.554-3.181-2.368-4.694s-1.65-2.977-2.543-4.349a33.754,33.754,0,0,0-5.927-7.1,26.212,26.212,0,0,0-7.4-4.549,32.315,32.315,0,0,0-4.331-1.448l-.564-.158-.578-.133-.578-.134c-.192-.049-.384-.1-.583-.133l-1.181-.24c-.385-.068-.738-.145-1.105-.2a20.91,20.91,0,0,0-8.529.265,19.659,19.659,0,0,0-4.152,1.591,25.917,25.917,0,0,0-4.046,2.635,42.84,42.84,0,0,0-3.89,3.489c-.633.642-1.275,1.3-1.916,1.979-.33.335-.65.681-.993,1.018-.172.168-.344.337-.527.5-.092.081-.188.16-.288.234A.872.872,0,0,1,514.946,283.466Z" transform="translate(-514.946 -261.064)"/></g></g><g transform="translate(276.558 369.77)"><g transform="translate(0 0)"><path class="e" d="M502.566,792.2a13.739,13.739,0,0,1-4.356-.773,1.852,1.852,0,1,1,1.181-3.511c7.235,2.424,9.568-2.968,13.07-12.7,3.286-9.136,7.376-20.507,19.96-20.507,4.588,0,8.187,1.537,10.7,4.569,5.682,6.86,3.449,18.908,3.351,19.418a1.856,1.856,0,0,1-3.645-.7c.03-.157,1.989-10.873-2.571-16.368-1.8-2.165-4.359-3.218-7.832-3.218-9.973,0-13.274,9.178-16.467,18.054-1.666,4.635-3.241,9.012-5.739,12A9.643,9.643,0,0,1,502.566,792.2Z" transform="translate(-496.944 -754.706)"/></g></g><g transform="translate(249.506 352.87)"><g transform="translate(0)"><path class="e" d="M413.787,737.444a13.739,13.739,0,0,1-4.356-.773,1.852,1.852,0,1,1,1.181-3.511c7.236,2.424,9.568-2.968,13.07-12.7,3.286-9.136,7.375-20.507,19.96-20.507a15.054,15.054,0,0,1,11.4,4.6c6.264,6.61,5.707,17.917,5.681,18.395a1.856,1.856,0,0,1-3.706-.2h0c.005-.1.486-10.216-4.681-15.655a11.336,11.336,0,0,0-8.7-3.431c-9.973,0-13.274,9.178-16.467,18.054-1.667,4.635-3.241,9.012-5.739,12A9.644,9.644,0,0,1,413.787,737.444Z" transform="translate(-408.165 -699.948)"/></g></g><g transform="translate(185.69 324.914)"><g transform="translate(0 0)"><path class="i" d="M252.081,623.981c-13,1.056-24.13,6.886-30.337,15.151.019-.355.025-.713.025-1.071,0-13.17-10.219-24.062-23.493-25.824a57.246,57.246,0,0,1,18.2-2.867C232.287,609.37,245.908,615.361,252.081,623.981Z" transform="translate(-198.276 -609.37)"/></g><g transform="translate(61.946 41.54)"><path class="j" d="M436.066,749.846q.037.657.037,1.324c0,9.29-5.437,17.608-14.01,23.2a.189.189,0,0,0,.015-.037,7.237,7.237,0,0,0-.053-4.83c-1.194-3.509-4.723-6.858-9.538-8.571-5.437-1.938-10.924-1.235-13.952,1.432,3.012-10.6,13.116-18.4,25.113-18.4a26.928,26.928,0,0,1,8.852,1.484c.68.235,1.345.5,2,.787,0,0,0,0,.006,0v0a3.927,3.927,0,0,1,1.37,1.87,3.79,3.79,0,0,1,.161,1.738Z" transform="translate(-398.566 -743.96)"/></g><g transform="translate(23.462 14.438)"><path class="i" d="M349.959,687.4a3.926,3.926,0,0,0-1.37-1.87v0s0,0-.006,0c-.653-.287-1.318-.552-2-.787a26.924,26.924,0,0,0-8.852-1.485c-12,0-22.1,7.8-25.114,18.4-.022.08-.047.164-.068.244l.037-.216a25.523,25.523,0,0,0,.384-4.4,26.111,26.111,0,0,0-8.954-19.555,29.4,29.4,0,0,0-19.562-7.318,30.255,30.255,0,0,0-4.584.346,29.737,29.737,0,0,0-5.184,1.272.414.414,0,0,1-.552-.408V671.6a.417.417,0,0,1,.084-.235c6.222-8.21,17.314-14,30.259-15.047q2.1-.171,4.265-.173c18.829,0,34.612,9.981,38.788,23.4a.358.358,0,0,0,.021.052,24.808,24.808,0,0,1,2.193,6.466Q349.871,686.729,349.959,687.4Z" transform="translate(-274.137 -656.15)"/></g></g><g transform="translate(279.863 347.115)"><g transform="translate(0 0)"><path class="e" d="M530.2,724.19c-7.157,0-12.538-1.458-16.078-4.37-5.186-4.266-5.117-10.414-5.084-13.368,0-.438.011-.977-.013-1.182a1.855,1.855,0,0,1,3.506-1.208,6.77,6.77,0,0,1,.217,2.432c-.031,2.742-.083,7.33,3.733,10.468,5,4.116,15.012,4.664,29.744,1.631,16.274-3.351,28.46-10.552,35.239-20.826a31.715,31.715,0,0,0,5.416-14.676,1.856,1.856,0,0,1,3.71.117c-.009.315-.3,7.807-5.893,16.394-5.1,7.824-15.78,18.1-37.721,22.618A84.627,84.627,0,0,1,530.2,724.19Zm-21.137-18.811h0Z" transform="translate(-508.944 -681.304)"/></g></g><g transform="translate(223.937 345.279)"><g transform="translate(0 0)"><path class="k" d="M358.587,696.531a.774.774,0,0,1-.719-.489c-4.07-10.305-10.854-16.776-20.164-19.234a30.519,30.519,0,0,0-12.793-.616.772.772,0,1,1-.325-1.509,31.634,31.634,0,0,1,13.514.633c6.746,1.781,15.9,6.724,21.207,20.16a.773.773,0,0,1-.719,1.055Z" transform="translate(-323.975 -674.24)"/></g></g><g transform="translate(233.071 341.085)"><g transform="translate(0)"><path class="k" d="M388.546,682.832a.774.774,0,0,1-.719-.489c-4.06-10.281-10.823-16.747-20.1-19.218a30.68,30.68,0,0,0-12.856-.633.772.772,0,1,1-.325-1.509,31.642,31.642,0,0,1,13.514.633c6.746,1.781,15.9,6.724,21.207,20.16a.773.773,0,0,1-.719,1.055Z" transform="translate(-353.934 -660.542)"/></g></g><g transform="translate(202.225 326.703)"><path class="k" d="M269.541,631.892a.774.774,0,0,1-.728-.513c-.056-.156-5.688-15.579-16.355-16.337a.772.772,0,1,1,.11-1.539c11.677.831,17.462,16.684,17.7,17.359a.773.773,0,0,1-.729,1.03Z" transform="translate(-251.74 -613.501)"/></g><g transform="translate(213.866 326.719)"><g transform="translate(0)"><path class="k" d="M306.114,628.859a.773.773,0,0,1-.75-.585c-.032-.125-3.244-12.477-13.847-13.232a.772.772,0,1,1,.11-1.539c11.732.834,15.2,14.263,15.238,14.4a.772.772,0,0,1-.564.935A.78.78,0,0,1,306.114,628.859Z" transform="translate(-290.799 -613.501)"/></g></g><g transform="translate(319.445 322.973)"><ellipse class="l" cx="3.602" cy="2.548" rx="3.602" ry="2.548"/></g><g transform="translate(366.929 228.424)"><g transform="translate(0 0)"><path class="l" d="M805.057,302.176c-1.7,2.3-3.458-.329-6.709-2.724s-6.764-3.648-5.063-5.948,5.715-2.223,8.966.172S806.758,299.877,805.057,302.176Z" transform="translate(-792.841 -291.829)"/></g></g><g class="c" transform="translate(278.622 236.771)"><g transform="translate(0)"><path class="d" d="M503.79,351.4s1.309-30.2,21.152-31.323c16.573-.94,32.219,7.407,31.164,39.216S503.79,351.4,503.79,351.4Z" transform="translate(-503.79 -320.01)"/></g></g><g transform="translate(276.212 248.955)"><g transform="translate(0 0)"><ellipse class="i" cx="27.371" cy="32.407" rx="27.371" ry="32.407"/></g><g transform="translate(0.487 38.509)"><path class="m" d="M513.22,504.809c-10.658-5.5-11.874-9.976-15.7-20.038,2.411,14.98,13.53,26.305,26.885,26.305,10.807,0,20.15-7.417,24.6-18.185-7.01,8.943-13.237,12.578-19.345,14.026A23.894,23.894,0,0,1,513.22,504.809Z" transform="translate(-497.519 -484.771)"/></g><g transform="translate(9.897 20.062)"><path class="h" d="M539.08,425c-6.149,0-11.134,8.084-11.134,18.055s4.985,18.055,11.134,18.055,11.134-8.084,11.134-18.055S545.229,425,539.08,425Zm4.485,18.21a4.475,4.475,0,1,1,4.485-4.475A4.48,4.48,0,0,1,543.565,443.21Z" transform="translate(-527.946 -425)"/></g></g></g></svg>