<svg xmlns="http://www.w3.org/2000/svg" xmlns:xlink="http://www.w3.org/1999/xlink" width="225" height="237" viewBox="0 0 225 237"><defs><style>.a{fill:none;}.b{fill:#f9c402;}.c{fill:#7e2081;}.d{fill:#ddebf2;}.e{fill:#84b2d8;}.f{fill:#9babb2;}.g{fill:#231f20;}.h{fill:#3b4144;}.i{fill:#57115b;}.j{fill:#3a2147;}.k{fill:#bc5bbc;}.l{opacity:0.35;}.m{fill:#431447;}.n{fill:#fff;}.o{clip-path:url(#a);}.p{fill:#e7dde8;}.q{clip-path:url(#b);}.r{fill:#c7e8ff;}</style><clipPath id="a"><ellipse class="a" cx="29.374" cy="38.661" rx="29.374" ry="38.661"/></clipPath><clipPath id="b"><path class="a" d="M493.618,279.379q0,2.185-.125,4.339v0c-.318,15.072-3.093,41.38-16.939,63.214-16.725,26.381-28.7,49.632-42.329,57.511a.063.063,0,0,1-.018.012,21.533,21.533,0,0,1-5.667,2.328c-.129.034-.257.061-.389.089-.009,0-.018,0-.031.006a19.741,19.741,0,0,1-4.069.419q-.955,0-1.888-.089a19.362,19.362,0,0,1-2.212-.337q-.243-.05-.486-.11a20.99,20.99,0,0,1-3.231-1.083c-.073-.031-.144-.061-.217-.095-20.871-9.118-40.511-53.445-46.156-88.2a147.093,147.093,0,0,1,.918-49.663c5.058-31.76,30.426-55.908,60.959-55.908,31.73,0,57.884,26.078,61.461,59.674l.009.089a.461.461,0,0,0,.006.061.646.646,0,0,1,.006.076A72.662,72.662,0,0,1,493.618,279.379Z" transform="translate(-368.164 -211.82)"/></clipPath></defs><g transform="translate(-198.569 -211.82)"><g transform="translate(198.569 211.82)"><g transform="translate(2.832 14.904)"><ellipse class="b" cx="111.084" cy="111.048" rx="111.084" ry="111.048"/></g><g transform="translate(0 0)"><g transform="translate(51.892)"><path class="c" d="M493.618,279.379q0,2.185-.125,4.339v0c-.318,15.072-3.093,41.38-16.939,63.214-16.725,26.381-28.7,49.632-42.329,57.511a.063.063,0,0,1-.018.012,21.533,21.533,0,0,1-5.667,2.328c-.129.034-.257.061-.389.089-.009,0-.018,0-.031.006a19.741,19.741,0,0,1-4.069.419q-.955,0-1.888-.089a19.362,19.362,0,0,1-2.212-.337q-.243-.05-.486-.11a20.99,20.99,0,0,1-3.231-1.083c-.073-.031-.144-.061-.217-.095-20.871-9.118-40.511-53.445-46.156-88.2a147.093,147.093,0,0,1,.918-49.663c5.058-31.76,30.426-55.908,60.959-55.908,31.73,0,57.884,26.078,61.461,59.674l.009.089a.461.461,0,0,0,.006.061.646.646,0,0,1,.006.076A72.662,72.662,0,0,1,493.618,279.379Z" transform="translate(-368.164 -211.82)"/></g><g transform="translate(6.935 89.825)"><path class="d" d="M244.071,519.558c-4.813-9.136-12.677-14.558-17.991-12.585a.052.052,0,0,0-.015.006,1.833,1.833,0,0,0-.181.073c-.021.012-.046.021-.073.034-.077.034-.165.073-.269.122-.012.006-.024.009-.037.015a1.344,1.344,0,0,0-.15.073,7.119,7.119,0,0,0-3.225,3.806c-1.793,4.486-.9,11.642,2.742,18.56,3.571,6.78,8.818,11.514,13.46,12.7a7.234,7.234,0,0,0,5.257-.438C248.887,539.137,249.1,529.123,244.071,519.558Zm-2.7,21.317a5.01,5.01,0,0,1-2.821.514c-4.241-.382-9.654-5.125-13.35-12.141s-4.538-14.176-2.445-17.884a4.994,4.994,0,0,1,2.013-2.026c4.345-2.286,11.584,2.919,16.168,11.627S245.72,538.587,241.375,540.875Z" transform="translate(-221.234 -506.569)"/></g><g transform="translate(7.337 92.053)"><path class="e" d="M242.288,545.936a5.009,5.009,0,0,1-2.821.514c-4.241-.382-9.654-5.125-13.35-12.141s-4.538-14.176-2.445-17.884a4.994,4.994,0,0,1,2.013-2.026c4.345-2.286,11.584,2.919,16.168,11.627S246.633,543.647,242.288,545.936Z" transform="translate(-222.549 -513.861)"/></g><g transform="translate(0 90.471)"><path class="f" d="M227.857,543.414l-2.1,1.077c-.162-.352-1.729.251-3.571,1.092-.15.067-.294.135-.434.205-1.619.786-2.76,1.628-2.613,1.952.009.018.015.034.024.052-4.544,1.319-11.676-4.443-16.449-13.512-5.07-9.632-5.563-19.347-1.1-21.7,0,0,.107-.052.3-.141,1.264-.609,6.162-2.95,7.854-3.73a1.344,1.344,0,0,0-.15.073,7.119,7.119,0,0,0-3.225,3.806c-1.793,4.486-.9,11.642,2.742,18.56,3.571,6.78,8.818,11.514,13.46,12.7A7.234,7.234,0,0,0,227.857,543.414Z" transform="translate(-198.569 -508.71)"/></g><g transform="translate(27.517 149.636)"><path class="g" d="M293,704.937c-2.347.884-4.357,1.307-4.495.942a.086.086,0,0,0,0-.018.105.105,0,0,0,0-.027c.015-.4,1.756-1.359,4.005-2.209,2.264-.851,4.216-1.273,4.47-.973a.286.286,0,0,1,.021.034C297.135,703.047,295.345,704.056,293,704.937Z" transform="translate(-288.5 -702.556)"/></g><g transform="translate(20.561 126.035)"><path class="h" d="M281.2,649.045c-.254-.3-2.206.122-4.47.973-2.249.851-3.99,1.811-4.005,2.209a93.634,93.634,0,0,0-6.918-23.508.018.018,0,0,0,.012,0,.188.188,0,0,1-.037-.049c-.147-.324.994-1.166,2.613-1.952.141-.07.285-.138.435-.205,1.842-.841,3.409-1.444,3.571-1.092a.289.289,0,0,0,.012.049A81.459,81.459,0,0,0,281.2,649.045Z" transform="translate(-265.768 -625.316)"/></g><g transform="translate(91.651 145.742)"><path class="i" d="M518.722,698.55a1.369,1.369,0,0,1-.828-.278l-6.728-5.076a3.064,3.064,0,0,0-3.38-.21l-7.617,4.382a1.377,1.377,0,1,1-1.374-2.387l7.618-4.383a5.815,5.815,0,0,1,6.411.4l6.728,5.076a1.377,1.377,0,0,1-.83,2.476Z" transform="translate(-498.105 -689.821)"/></g><g transform="translate(78.224 6.895)"><path class="j" d="M454.225,263.6a26.749,26.749,0,0,1,.691-5.568,32.346,32.346,0,0,1,1.73-5.424,31.946,31.946,0,0,1,6.431-9.82,29.3,29.3,0,0,1,4.718-3.969,27.036,27.036,0,0,1,5.683-2.9,25.262,25.262,0,0,1,6.4-1.463,26.105,26.105,0,0,1,3.322-.086l.831.041c.277.021.552.055.828.083l.827.091.822.135c.274.047.547.093.819.15l.81.191c.543.119,1.073.279,1.6.44a26.163,26.163,0,0,1,8.587,4.6,30.177,30.177,0,0,1,7.769,9.527,34.2,34.2,0,0,1,3.558,11.1,32.564,32.564,0,0,1,.31,5.672,27.762,27.762,0,0,1-.7,5.566c-.793-1.7-1.532-3.348-2.31-4.939s-1.589-3.123-2.444-4.592a51.3,51.3,0,0,0-5.637-8,31.4,31.4,0,0,0-6.722-5.892,20.763,20.763,0,0,0-7.531-2.975,19.2,19.2,0,0,0-7.978.29,24.216,24.216,0,0,0-4.029,1.381,30.6,30.6,0,0,0-3.962,2.148,44.083,44.083,0,0,0-7.489,6.157q-1.787,1.8-3.5,3.824C456.514,260.724,455.4,262.141,454.225,263.6Z" transform="translate(-454.225 -234.355)"/></g><g transform="translate(138.172 126.085)"><path class="i" d="M674.85,657.117a1.378,1.378,0,0,1-1.338-1.7c.043-.18,4.257-18.141-3.2-25.639a4.435,4.435,0,0,0-3.894-1.464c-5.316.708-11.689,10.006-13.7,13.529a1.377,1.377,0,0,1-2.393-1.362c.322-.565,7.969-13.861,15.723-14.9a7.113,7.113,0,0,1,6.212,2.252c5.474,5.5,5.624,15.215,4.975,21.692,3.614-5.006,9.7-12.035,17.169-15.146a1.377,1.377,0,1,1,1.059,2.542c-11.075,4.614-19.329,19.334-19.411,19.482A1.377,1.377,0,0,1,674.85,657.117Z" transform="translate(-650.147 -625.517)"/></g><g transform="translate(122.715 185.8)"><path class="i" d="M614.2,870.356a1.376,1.376,0,0,1-.379-.053l-4.435-1.267a5.244,5.244,0,0,1-3.73-4.22c-.644-4.13-2.293-14.744-3.683-24.09-.766-5.154-1.353-9.238-1.743-12.137-.8-5.943-.748-5.989-.127-6.559a1.377,1.377,0,0,1,2.284,1.271c.034,1.856,2.368,17.872,5.99,41.091a2.483,2.483,0,0,0,1.766,2l4.435,1.267a1.377,1.377,0,0,1-.378,2.7Zm-12.234-46.3h0Zm0,0h0Zm0,0h0Zm0,0h0Zm0,0h0Zm0,0h0Zm0,0h0Zm0,0Zm0,0h0Z" transform="translate(-599.63 -821.666)"/></g><g transform="translate(86.336 187.451)"><path class="i" d="M482.112,870.536a1.377,1.377,0,0,1,0-2.754c.858,0,4.145-1.612,6.979-3.257l-3.036-35.971a1.377,1.377,0,0,1,2.744-.231l3.108,36.833a1.377,1.377,0,0,1-.664,1.3C489.647,867.411,484.269,870.536,482.112,870.536Z" transform="translate(-480.735 -827.062)"/></g><g transform="translate(30.392 127.458)"><path class="i" d="M316.987,663.495a1.377,1.377,0,0,1-1.344-1.086l-.01-.044c-.159-.712-3.373-14.255-16.819-19.018a1.377,1.377,0,1,1,.919-2.6,28.316,28.316,0,0,1,14.807,12.066c-.156-9.232,2.313-17.633,6.729-21.471a5.025,5.025,0,0,1,4.321-1.22c5.4.988,10.513,10.221,11.078,11.271a1.377,1.377,0,0,1-2.425,1.306c-1.363-2.529-5.664-9.231-9.15-9.867a2.268,2.268,0,0,0-2.018.59c-5.121,4.45-7.206,16.861-4.765,28.293.013.06.022.1.027.125a1.378,1.378,0,0,1-1.351,1.653Z" transform="translate(-297.896 -630.037)"/></g><g transform="translate(147.503 25.379)"><path class="k" d="M691.8,313.916a3.06,3.06,0,0,1-3.033-2.689c-.957-7.836-6.33-10.616-6.384-10.642a3.06,3.06,0,0,1,2.645-5.519c.344.165,8.439,4.165,9.814,15.419a3.062,3.062,0,0,1-3.041,3.431Z" transform="translate(-680.645 -294.765)"/></g><g class="l" transform="translate(73.495 33.478)"><ellipse class="m" cx="29.884" cy="40.146" rx="29.884" ry="40.146"/></g><g transform="translate(71.73 46.418)"><ellipse class="n" cx="29.374" cy="38.661" rx="29.374" ry="38.661"/><g transform="translate(19.87 21.382)"><path class="g" d="M510.468,434.176c-6.918,0-12.527,7.784-12.527,17.387s5.609,17.386,12.527,17.386,12.527-7.784,12.527-17.386S517.387,434.176,510.468,434.176Zm6.326,15.119c-2.3,0-4.166-2.224-4.166-4.967s1.865-4.967,4.166-4.967,4.166,2.224,4.166,4.967S519.095,449.295,516.794,449.295Z" transform="translate(-497.941 -434.176)"/></g><g class="o"><g transform="translate(-4.32 33.045)"><path class="p" d="M453.05,508.515c-18.571,0-29.144-18.716-29.848-36.221-1.789,3.964-4.32,12.044-4.32,16.631,0,18.1,13.03,35.708,31.858,33.011,26.793-3.838,29.917-32.156,29.9-32.579C475.371,501.029,467.248,508.515,453.05,508.515Z" transform="translate(-418.882 -472.294)"/></g></g></g><g transform="translate(51.892)"><g class="q"><g class="l" transform="translate(15.108 118.735)"><path class="m" d="M420.295,637.944c1.536,3.142,22.621,39.137,42.094,31.17s56.647-69.239,56.647-69.239l8.85,78.417-67.532,34.24S421.406,687.4,418.49,685.676,420.295,637.944,420.295,637.944Z" transform="translate(-417.54 -599.875)"/></g></g></g><g transform="translate(15.713 95.025)"><path class="r" d="M260.906,547.371a1.377,1.377,0,0,1-1.375-1.329c-.5-14.637-8.6-19.717-8.944-19.926A1.377,1.377,0,0,1,252,523.753c.4.236,9.723,5.97,10.283,22.194a1.376,1.376,0,0,1-1.328,1.423Z" transform="translate(-249.922 -523.559)"/></g></g></g><g class="l" transform="translate(270.468 439.893)"><ellipse class="m" cx="40.016" cy="4.104" rx="40.016" ry="4.104"/></g></g></svg>