<svg xmlns="http://www.w3.org/2000/svg" xmlns:xlink="http://www.w3.org/1999/xlink" width="223" height="264" viewBox="0 0 223 264"><defs><style>.a,.l{fill:none;}.b{fill:#f9c402;}.c{fill:#57115b;}.d{fill:#00a09c;}.e{fill:#6d237f;}.f{clip-path:url(#a);}.g{opacity:0.35;}.h{fill:#431447;}.i{fill:#3a2147;}.j{fill:#fff;}.k{opacity:0.4;}.l{stroke:#431447;stroke-miterlimit:10;}</style><clipPath id="a"><path class="a" d="M452.009,181.479a71.727,71.727,0,0,0-38.37,12.109c-.208.137-.412.278-.617.418-.308.211-.614.421-.919.635-.058.04-.116.079-.171.122-28.608,20.077-47.173,52.133-47.173,88.261,0,39.465,22.1,74.082,55.3,93.523,1.079.632,2.126,1.318,3.171,2.006a15.809,15.809,0,0,0,4.13,1.936s.006,0,.009,0a15.955,15.955,0,0,0,20.28-12.214q.1-.487.16-.983c.136-1.042.262-2.086.453-3.12a62.584,62.584,0,0,1,32.7-43.767c.638-.336,1.295-.635,1.954-.927q1.532-.68,3.025-1.431a72.108,72.108,0,0,0-33.936-136.571Z" transform="translate(-364.76 -181.461)"/></clipPath></defs><g transform="translate(-197.981 -140.624)"><g transform="translate(197.981 173.32)"><g transform="translate(0)"><ellipse class="b" cx="111.5" cy="111.492" rx="111.5" ry="111.492"/></g></g><g transform="translate(209.751 140.625)"><g transform="translate(4.627 53.419)"><path class="c" d="M291.67,411.671a2.129,2.129,0,0,1-.728-.129c-.536-.194-13.251-4.923-24.149-19a70.944,70.944,0,0,1-13.137-28.963c-2.9-13.621-2.585-29.184.941-46.258a2.137,2.137,0,0,1,4.186.864c-6.059,29.344-2.17,54.087,11.245,71.553,10.131,13.189,22.254,17.742,22.375,17.786a2.138,2.138,0,0,1-.733,4.145Z" transform="translate(-251.693 -315.617)"/></g><g transform="translate(111.916 208.076)"><path class="c" d="M623.712,850.564a8.871,8.871,0,0,1-2.614-.431c-11.977-3.711-17.657-24.314-17.893-25.189a2.137,2.137,0,0,1,4.127-1.112c1.443,5.332,6.956,19.716,15.032,22.219a2.764,2.764,0,0,0,2.126.06c1.163-.69,1.771-3.7,2.307-6.348,1.093-5.408,2.743-13.578,11.915-12.843a2.137,2.137,0,1,1-.342,4.26c-4.861-.394-6.028,2.725-7.383,9.43-.781,3.867-1.519,7.519-4.316,9.177A5.7,5.7,0,0,1,623.712,850.564Z" transform="translate(-603.131 -822.251)"/></g><g transform="translate(86.274 199.618)"><path class="c" d="M530.44,852.809a2.137,2.137,0,0,1-.65-4.173c1.7-.548,6.345-2.541,7.678-5.216.071-.706-.175-4.6-7.909-23.04-4.418-10.531-9.2-20.827-10.18-22.714a2.137,2.137,0,0,1,3.792-1.971c1.058,2.036,6.1,12.9,10.654,23.81,9.206,22.063,8.145,24.362,7.575,25.6-2.268,4.914-9.493,7.344-10.31,7.6A2.129,2.129,0,0,1,530.44,852.809Zm7.019-9.324Z" transform="translate(-519.138 -794.544)"/></g><g transform="translate(0 0)"><g transform="translate(0 0)"><path class="d" d="M10.183,0h0A10.181,10.181,0,0,1,20.364,10.181V44.649A10.182,10.182,0,0,1,0,44.65V10.182A10.182,10.182,0,0,1,10.183,0Z" transform="matrix(0.956, 0.292, -0.292, 0.956, 16.003, 0)"/></g><g transform="translate(9.114 10.447)"><g transform="translate(8.889)"><ellipse class="b" cx="4.182" cy="4.182" rx="4.182" ry="4.182"/></g><g transform="translate(0 29.129)"><ellipse class="b" cx="4.182" cy="4.182" rx="4.182" ry="4.182"/></g><g transform="translate(4.444 14.564)"><ellipse class="b" cx="4.182" cy="4.182" rx="4.182" ry="4.182"/></g></g></g><g transform="translate(39.145 12.466)"><path class="e" d="M452.009,181.479a71.727,71.727,0,0,0-38.37,12.109c-.208.137-.412.278-.617.418-.308.211-.614.421-.919.635-.058.04-.116.079-.171.122-28.608,20.077-47.173,52.133-47.173,88.261,0,39.465,22.1,74.082,55.3,93.523,1.079.632,2.126,1.318,3.171,2.006a15.809,15.809,0,0,0,4.13,1.936s.006,0,.009,0a15.955,15.955,0,0,0,20.28-12.214q.1-.487.16-.983c.136-1.042.262-2.086.453-3.12a62.584,62.584,0,0,1,32.7-43.767c.638-.336,1.295-.635,1.954-.927q1.532-.68,3.025-1.431a72.108,72.108,0,0,0-33.936-136.571Z" transform="translate(-364.76 -181.461)"/><g class="f"><g class="g" transform="translate(0.541 114.844)"><path class="h" d="M454.181,615.459c-.605-1.6-3.322-1.541-3.209.434.09,1.56-1.907,2.532-3.075,3.172a19.53,19.53,0,0,1-4.937,1.854,25.014,25.014,0,0,1-10.164.161c-7.059-1.3-13.329-5.152-18.88-9.555a167.221,167.221,0,0,1-30.091-31.2,165.292,165.292,0,0,1-13.1-20.652,1.089,1.089,0,0,0-1.084-.623c-.337-1.842-3.287-1.864-3.1.116,2.119,23.065,12.682,44.473,24.1,64.252,5.357,9.28,11.09,19.152,20.771,24.51a28.455,28.455,0,0,0,15.544,3.714c5.671-.378,11.014-2.509,16.02-5.083a49.07,49.07,0,0,0,7.8-4.58,13.175,13.175,0,0,0,4.489-7.437A31.812,31.812,0,0,0,454.181,615.459ZM370.5,564.9c-.026-.151-.054-.3-.079-.453.071.128.144.254.214.382C370.588,564.848,370.543,564.872,370.5,564.9Z" transform="translate(-366.532 -557.675)"/></g><g class="g" transform="translate(51.742 27.166)"><path class="h" d="M573.017,303.266a52.481,52.481,0,0,0-3.125-13.722,39.005,39.005,0,0,0-14.594-18.86,1.3,1.3,0,0,0-1.99,1.169,2.542,2.542,0,0,0-1.606.419,1.071,1.071,0,0,0-.884.612,31.1,31.1,0,0,1-15.687,14.291c-1.214.494-1.248,2.745.345,2.551,7.879-.955,14.877,5.246,20.331,10.154a45.329,45.329,0,0,1,7.3,8.056,32.985,32.985,0,0,1,4.221,9.875,1.222,1.222,0,0,0,2.39-.324v-.011a2.686,2.686,0,0,0,.553-.2c.007.059.01.119.017.178a1.163,1.163,0,0,0,2.272.307,28.061,28.061,0,0,0,.741-7.121A66.755,66.755,0,0,0,573.017,303.266Z" transform="translate(-534.248 -270.454)"/></g></g><g transform="translate(92.143 138.511)"><path class="c" d="M694.585,669.022a2.137,2.137,0,0,1-1.95-3.012,30.858,30.858,0,0,0,2.247-9.72c.345-6.612-2.067-11.435-7.171-14.335-4.1-2.326-7.752-3.016-10.865-2.05a11.32,11.32,0,0,0-6.194,5.319,2.137,2.137,0,0,1-3.858-1.839,15.525,15.525,0,0,1,8.721-7.541c4.3-1.359,9.118-.553,14.307,2.4,6.57,3.733,9.793,10.1,9.321,18.4a33.1,33.1,0,0,1-.889,5.852,67.576,67.576,0,0,0,15.082-13.132,2.137,2.137,0,1,1,3.227,2.8c-10.884,12.532-20.775,16.543-21.191,16.708A2.136,2.136,0,0,1,694.585,669.022Z" transform="translate(-666.588 -635.203)"/></g><g transform="translate(37.811 8.727)"><path class="i" d="M516.573,223c19.3,0,34.951,14.809,34.951,33.076a31.662,31.662,0,0,1-.217,3.684,32.226,32.226,0,0,0,4.609-16.632c0-18.267-15.232-33.076-34.023-33.076-16.354,0-30.011,11.218-33.278,26.171A35.588,35.588,0,0,1,516.573,223Z" transform="translate(-488.616 -210.049)"/></g><g transform="translate(35.674 53.46)"><path class="i" d="M532.141,379.941A2.137,2.137,0,0,0,530,382.077c0,2.852-1.6,4.839-3.035,4.839-2.042,0-3.035-1.116-3.035-3.412,0-14.842-9.492-26.917-21.159-26.917s-21.159,12.075-21.159,26.917a2.137,2.137,0,0,0,4.274,0c0-12.486,7.575-22.644,16.885-22.644s16.885,10.158,16.885,22.644c0,4.669,2.869,7.685,7.309,7.685,4.1,0,7.309-4,7.309-9.113A2.137,2.137,0,0,0,532.141,379.941Z" transform="translate(-481.616 -356.588)"/></g><g transform="translate(34.491 127.029)"><path class="j" d="M514.652,598.918c0,8.847-10.154,16.017-22.677,16.017a38.838,38.838,0,0,1-14.235-2.256,20.784,20.784,0,0,0,1.713-8.59,23.433,23.433,0,0,0-.513-4.933,69.546,69.546,0,0,0,15.371,1.557c8.554,0,16.055-1.248,20.262-3.123A10.7,10.7,0,0,1,514.652,598.918Z" transform="translate(-477.74 -597.59)"/></g><g transform="translate(54.539 126.572)"><path class="i" d="M543.867,607.457a.458.458,0,0,1-.055-.912c6.573-.814,8.12-4.579,8.182-4.739a.463.463,0,0,1,.235-.251l1.867-.862a.46.46,0,0,1,.192-.042h1.8c3.506-1.035,3.142-3.914,3.125-4.036a.458.458,0,0,1,.906-.134c.006.038.518,3.823-3.84,5.069a.461.461,0,0,1-.126.017h-1.767l-1.619.747c-.4.848-2.436,4.346-8.846,5.139A.516.516,0,0,1,543.867,607.457Z" transform="translate(-543.409 -596.091)"/></g><g transform="translate(35.648 135.244)"><path class="i" d="M485.535,627.193a.458.458,0,0,1-.318-.129l-1.708-1.649h-1.52a.458.458,0,0,1,0-.916h1.705a.458.458,0,0,1,.318.128l1.585,1.53,1.133-.7a.458.458,0,0,1,.482.779l-1.436.889A.458.458,0,0,1,485.535,627.193Z" transform="translate(-481.531 -624.5)"/></g><g transform="translate(65.674 120.187)"><path class="i" d="M592.148,589.578a12.278,12.278,0,0,1-12.265-12.264,2.137,2.137,0,0,1,4.274,0,8,8,0,0,0,7.991,7.991,2.137,2.137,0,1,1,0,4.274Z" transform="translate(-579.883 -575.177)"/></g><g transform="translate(29.618 125.329)"><path class="i" d="M482.846,597.842a49.45,49.45,0,0,1-20.535-4.073.916.916,0,0,1,.763-1.665c17.363,7.949,39.048,1.172,39.264,1.1a.916.916,0,0,1,.558,1.745A72.044,72.044,0,0,1,482.846,597.842Z" transform="translate(-461.777 -592.02)"/></g><g transform="translate(30.26 130.66)"><path class="i" d="M482.322,624.011a61.521,61.521,0,0,1-17.792-3.025.916.916,0,1,1,.536-1.751c12.809,3.92,23,3.929,30.306.027a17.269,17.269,0,0,0,8.317-9.125.916.916,0,0,1,1.756.521c-.075.255-1.928,6.3-9.157,10.191A29.12,29.12,0,0,1,482.322,624.011Z" transform="translate(-463.882 -609.484)"/></g></g></g><g class="k" transform="translate(260.477 389.184)"><g transform="translate(0)"><path class="i" d="M408.541,960.013a51.5,51.5,0,0,1,17.5-4.177c14.076-.922,44.877-2.24,67.851,1.806,17.5,3.081,7.886,6.645-3.632,9.143a155.8,155.8,0,0,1-30.686,3.448C435.431,970.585,385.717,970.178,408.541,960.013Z" transform="translate(-402.694 -954.871)"/></g></g><g transform="translate(420.724 141.764)"><path class="l" d="M927.6,144.356" transform="translate(-927.604 -144.356)"/></g></g></svg>