<svg xmlns="http://www.w3.org/2000/svg" xmlns:xlink="http://www.w3.org/1999/xlink" width="220" height="232" viewBox="0 0 220 232"><defs><style>.a{fill:none;}.b{fill:#f9c402;}.c{fill:#7e2081;}.d{clip-path:url(#a);}.e{opacity:0.35;}.f{fill:#431447;}.g{fill:#fff;}.h{fill:#231f20;}.i{fill:#57115b;}.j{fill:#00918b;}.k{fill:#ffc32c;}.l{fill:#8e0000;}.m{fill:#3e719b;}.n{fill:#3f5a89;}.o{fill:#fabbff;}.p{fill:#bc5bbc;}</style><clipPath id="a"><path class="a" d="M401.164,113.47a65.133,65.133,0,0,0-62.524,46.776.317.317,0,0,1-.01.03c-.646,1.773-29.724,83.053,39.023,143.39h0a21.593,21.593,0,0,0,36.119-14.374,34.062,34.062,0,0,1,.624-4.522c1.391-6.754,5.416-23.329,13.156-33.73l0,0a66.477,66.477,0,0,1,10.58-17.19c.659-.776,1.356-1.521,2.081-2.236q1.207-1.191,2.527-2.259a61.141,61.141,0,0,0,5.952-5.507A65.651,65.651,0,0,0,401.164,113.47Z" transform="translate(-331.978 -113.47)"/></clipPath></defs><g transform="translate(-64 -113.47)"><g transform="translate(64.336 115.622)"><ellipse class="b" cx="109.832" cy="109.654" rx="109.832" ry="109.654" transform="translate(0 0)"/></g><g transform="translate(64 113.47)"><g transform="translate(68.179)"><path class="c" d="M401.164,113.47a65.133,65.133,0,0,0-62.524,46.776.317.317,0,0,1-.01.03c-.646,1.773-29.724,83.053,39.023,143.39h0a21.593,21.593,0,0,0,36.119-14.374,34.062,34.062,0,0,1,.624-4.522c1.391-6.754,5.416-23.329,13.156-33.73l0,0a66.477,66.477,0,0,1,10.58-17.19c.659-.776,1.356-1.521,2.081-2.236q1.207-1.191,2.527-2.259a61.141,61.141,0,0,0,5.952-5.507A65.651,65.651,0,0,0,401.164,113.47Z" transform="translate(-331.978 -113.47)"/></g><g transform="translate(68.179)"><g class="d"><g class="e" transform="translate(19.461 163.098)"><path class="f" d="M408.471,755.568s18.5,28.036,48.669,21.043,22.269-16.854,22.269-16.854-1.581,46.08-35,33.17S408.471,755.568,408.471,755.568Z" transform="translate(-408.471 -755.568)"/></g></g></g><g class="e" transform="translate(116.457 118.338)"><path class="f" d="M522.908,579.353s-1.972,5.857-.808,10.531c1.523,6.117,7.118,10.856,16.433,4.351C538.532,594.235,522.908,599.255,522.908,579.353Z" transform="translate(-521.732 -579.353)"/></g><g class="e" transform="translate(79.918 40.679)"><path class="f" d="M429.883,307.015c0-18.444-11.588-33.4-25.882-33.4s-25.883,14.952-25.883,33.4a41.685,41.685,0,0,0,2.17,13.4c1.518-9.58,8.06-16.785,15.9-16.785,8.966,0,16.234,9.419,16.234,21.038a24.178,24.178,0,0,1-5.253,15.492C419.969,338.145,429.883,324.075,429.883,307.015Z" transform="translate(-378.118 -273.619)"/></g><g transform="translate(79.918 49.487)"><path class="g" d="M423.645,338.82c0-16.859-10.192-30.526-22.763-30.526s-22.763,13.667-22.763,30.526a39.469,39.469,0,0,0,1.908,12.249c1.335-8.756,7.089-15.342,13.985-15.342,7.885,0,14.278,8.61,14.278,19.23a22.657,22.657,0,0,1-4.62,14.161C414.926,367.274,423.645,354.413,423.645,338.82Z" transform="translate(-378.118 -308.294)"/><g transform="translate(1.908 27.433)"><path class="h" d="M399.6,416.294c-6.9,0-12.65,6.585-13.985,15.342,3.519,10.76,11.532,18.277,20.855,18.277a17.237,17.237,0,0,0,2.788-.228,22.657,22.657,0,0,0,4.62-14.161C413.882,424.9,407.49,416.294,399.6,416.294Z" transform="translate(-385.619 -416.294)"/></g></g><g transform="translate(99.584 86.333)"><ellipse class="g" cx="4.041" cy="4.034" rx="4.041" ry="4.034"/></g><g transform="translate(115.679 125.628)"><path class="i" d="M529.076,619.579a10.4,10.4,0,0,1-10.4-10.383,1.145,1.145,0,0,1,2.29,0,8.113,8.113,0,0,0,8.11,8.1,1.143,1.143,0,1,1,0,2.286Z" transform="translate(-518.676 -608.053)"/></g><g transform="translate(87.236 130.249)"><path class="i" d="M423.461,637.26a19.746,19.746,0,0,1-16.4-9.249,1.144,1.144,0,0,1,1.917-1.25,17.466,17.466,0,0,0,14.479,8.213,17.21,17.21,0,0,0,13.9-7.379,1.144,1.144,0,0,1,1.851,1.346A19.476,19.476,0,0,1,423.461,637.26Z" transform="translate(-406.879 -626.243)"/></g><g transform="translate(73.952 19.493)"><path class="h" d="M354.666,220.206a28.313,28.313,0,0,1,.731-5.93,36.793,36.793,0,0,1,1.78-5.789,32.393,32.393,0,0,1,6.76-10.555,26.6,26.6,0,0,1,5.215-4.12l.735-.426c.246-.141.489-.288.749-.405.511-.25,1.028-.491,1.547-.731.526-.222,1.067-.409,1.6-.612.271-.092.537-.208.814-.277l.829-.227.832-.223c.139-.035.278-.077.418-.107l.422-.075,1.693-.29c.565-.082,1.132-.109,1.7-.157l.852-.063c.283-.013.564,0,.845-.005.564,0,1.128.012,1.692.023.558.034,1.11.1,1.666.147a31.382,31.382,0,0,1,3.272.511c.553.092,1.049.235,1.56.363l1.526.393c.5.15,1,.317,1.507.476s1.007.306,1.5.506c.984.384,1.978.738,2.935,1.194.48.223.966.428,1.438.666s.94.486,1.407.733a40.024,40.024,0,0,1,5.324,3.426c.423.314.841.633,1.24.978s.809.672,1.2,1.018l1.151,1.073.286.268.274.281.545.564a38.889,38.889,0,0,1,7.041,10.119,36.3,36.3,0,0,1,2.172,5.659,25.185,25.185,0,0,1,1.048,5.9,63.388,63.388,0,0,0-6.963-9.059q-1.886-2.04-3.9-3.857a52.524,52.524,0,0,0-4.178-3.37c-.711-.528-1.451-1.012-2.179-1.5-.751-.46-1.48-.943-2.25-1.361l-.568-.326c-.187-.111-.378-.217-.574-.313-.39-.2-.773-.4-1.157-.605s-.788-.371-1.177-.562-.778-.383-1.184-.542-.8-.336-1.2-.51-.812-.309-1.216-.466c-.8-.325-1.637-.582-2.46-.859-.407-.149-.833-.252-1.249-.378s-.835-.246-1.256-.36l-1.273-.313c-.423-.1-.855-.222-1.253-.282a24.469,24.469,0,0,0-2.425-.406c-.4-.046-.8-.11-1.206-.147-.4-.015-.8-.028-1.195-.054-.2-.009-.4-.03-.6-.03l-.589.02-.59.016c-.2.009-.4-.009-.59.019l-1.165.121-.293.028c-.1.012-.191.034-.287.051l-.574.1-.577.1a5.831,5.831,0,0,0-.566.141c-.376.1-.76.183-1.135.3-.369.131-.74.26-1.116.381a4.59,4.59,0,0,0-.553.216l-.549.233a24.4,24.4,0,0,0-4.271,2.408,39.192,39.192,0,0,0-7.6,7.374A75.517,75.517,0,0,0,354.666,220.206Z" transform="translate(-354.666 -190.212)"/></g><g transform="translate(66.653 143.172)"><path class="i" d="M366.452,704.152a84.832,84.832,0,0,1-20.578-2.782c-13.547-3.408-19.525-16.975-19.772-17.552a1.526,1.526,0,0,1,2.8-1.2c.054.125,5.654,12.765,17.713,15.8,19.566,4.923,35.551,2.994,46.228-5.577a31.983,31.983,0,0,0,10.384-14.6,1.526,1.526,0,0,1,2.944.807A34.416,34.416,0,0,1,394.9,695.1a40.307,40.307,0,0,1-18.476,8.2A55.943,55.943,0,0,1,366.452,704.152Z" transform="translate(-325.977 -677.121)"/></g><g transform="translate(54.415 161.575)"><path class="i" d="M289.019,772.427q-.529,0-1.063-.024c-3.581-.108-6.307-1.13-8.081-3.036a7.3,7.3,0,0,1-2-5.007,1.527,1.527,0,0,1,3.05.132c-.009.46.113,4.653,7.141,4.866,6.861.311,12.917-2.7,18.024-8.962a38.567,38.567,0,0,0,5.78-9.825,1.526,1.526,0,0,1,2.869,1.043,40.94,40.94,0,0,1-6.223,10.635C303.1,768.924,296.377,772.427,289.019,772.427Z" transform="translate(-277.878 -749.569)"/></g><g transform="translate(32.344 114.868)"><path class="j" d="M6.877-.006,33.229-.027A6.863,6.863,0,0,1,40.1,6.844l-.007,8.318a6.89,6.89,0,0,1-6.882,6.882l-26.353.021A6.863,6.863,0,0,1-.012,15.2l.007-8.318A6.89,6.89,0,0,1,6.877-.006Z" transform="translate(15.62) rotate(45)"/><g transform="translate(8.953 3.804)"><path class="h" d="M0,0,40.106-.033,40.1,4,0,4.038Z" transform="translate(2.857) rotate(45)"/></g><g transform="translate(24.821 33.656)"><ellipse class="k" cx="3.053" cy="3.048" rx="3.053" ry="3.048"/></g><g transform="translate(21.71 30.55)"><ellipse class="l" cx="3.053" cy="3.048" rx="3.053" ry="3.048"/></g></g><g transform="translate(11.133 178.04)"><path class="i" d="M107.839,814.4h-.079v-.005C107.785,814.393,107.813,814.4,107.839,814.4Z" transform="translate(-107.76 -814.39)"/></g><g transform="translate(63.023 173.003)"><path class="i" d="M311.959,795.06a.624.624,0,0,0-.249-.5" transform="translate(-311.71 -794.56)"/></g><g transform="translate(132.385 193.64)"><path class="i" d="M592.48,908.534a1.522,1.522,0,0,1-.669-.155l-6.62-3.227a1.524,1.524,0,0,1-.857-1.37V877.332a1.527,1.527,0,0,1,3.053,0v25.5l5.763,2.81a1.524,1.524,0,0,1-.671,2.894Z" transform="translate(-584.335 -875.808)"/></g><g transform="translate(108.563 191.995)"><path class="i" d="M498.967,900.2h-6.735a1.524,1.524,0,1,1,0-3.048h5.3l1.728-26.4a1.526,1.526,0,0,1,3.046.2l-1.821,27.827A1.526,1.526,0,0,1,498.967,900.2Z" transform="translate(-490.706 -869.328)"/></g><g transform="translate(51.953 170.473)"><path class="i" d="M268.307,784.61a.507.507,0,0,0-.107-.01h.069Z" transform="translate(-268.2 -784.6)"/></g><g transform="translate(62.852 172.909)"><path class="i" d="M311.21,794.284a.562.562,0,0,0-.17-.094" transform="translate(-311.04 -794.19)"/></g><g transform="translate(11.133 173.003)"><path class="m" d="M159.9,795.06v3.909a.633.633,0,0,1-.633.632H107.839c-.025,0-.053,0-.079-.005V794.56h51.889A.624.624,0,0,1,159.9,795.06Z" transform="translate(-107.76 -794.56)"/></g><g transform="translate(0 170.549)"><path class="n" d="M75.133,787.354V792.4L64.506,789.98l-.061-.015a.632.632,0,0,1-.445-.6v-3.9a.628.628,0,0,1,.336-.556l.807.183Z" transform="translate(-64 -784.9)"/></g><g transform="translate(0.336 170.473)"><path class="o" d="M128.007,787.13H76.118l-9.991-2.271-.807-.183,0,0a.653.653,0,0,1,.3-.074h51.317a.507.507,0,0,1,.107.01.023.023,0,0,1,.013,0,.339.339,0,0,1,.069.015L127.679,787h.008l.15.036A.562.562,0,0,1,128.007,787.13Z" transform="translate(-65.32 -784.6)"/></g></g><g transform="translate(188.421 233.86)"><path class="p" d="M556.762,587.639a1.192,1.192,0,0,0-.636-.193c-.02,0-.038-.008-.058-.01a2.236,2.236,0,0,0-1.4.372c-1.457.722-1.853,2.363-1.526,3.983a3.839,3.839,0,0,0,.666,1.781,4.409,4.409,0,0,0,2.829,2.281,3.193,3.193,0,0,0,3.575-1.966c.032-.052.065-.1.1-.16C561.544,591.425,558.45,588.7,556.762,587.639Z" transform="translate(-553.033 -587.431)"/></g><g class="e" transform="translate(147.017 331.155)"><ellipse class="f" cx="41.403" cy="7.157" rx="41.403" ry="7.157" transform="translate(0 0)"/></g></g></svg>