<svg xmlns="http://www.w3.org/2000/svg" width="32" height="32" viewBox="0 0 32 32"><defs><style>.a{fill:none;}.b{fill:#00a09c;}</style></defs><rect class="a" width="32" height="32" transform="translate(0 0)"/><path class="b" d="M22.2,27.231H1a1,1,0,0,1-1-1V1A1,1,0,0,1,1,0H22.2a1,1,0,0,1,1,1V26.23A1,1,0,0,1,22.2,27.231ZM12.97,13.514a2.865,2.865,0,0,0-2.857,2.934c0,2.016,1.765,3.66,4.437,6.148l0,0,.753.7.752-.7.019-.018c2.663-2.486,4.422-4.128,4.422-6.14a2.865,2.865,0,0,0-2.857-2.934,3.076,3.076,0,0,0-2.337,1.115A3.079,3.079,0,0,0,12.97,13.514ZM3.314,20.423v1.7H9.942v-1.7Zm0-8.509v1.7H9.942v-1.7Zm0-3.4v1.7h16.57V8.51Zm0-3.4v1.7h16.57v-1.7Z" transform="translate(4 2)"/><g transform="translate(13.968 14.667)"><path class="a" d="M0,0H10.032V10.032H0Z"/></g></svg>