<svg xmlns="http://www.w3.org/2000/svg" xmlns:xlink="http://www.w3.org/1999/xlink" width="220" height="250" viewBox="0 0 220 250"><defs><style>.a{fill:none;}.b{fill:#f9c402;}.c{fill:#7e2081;}.d{clip-path:url(#a);}.e{opacity:0.35;}.f{fill:#431447;}.g{fill:#bc5bbc;}.h{fill:#fff;}.i{fill:#231f20;}.j{fill:#57115b;}.k{fill:#3a2147;}</style><clipPath id="a"><path class="a" d="M444.361,256.111h-.005a68.872,68.872,0,0,0-137.3,7.791c-.069,67.908,44.644,134.886,44.644,134.886h0a20.73,20.73,0,0,0,27.137,11.136l0,0C467.471,377.349,444.361,256.111,444.361,256.111Z" transform="translate(-307.059 -195.08)"/></clipPath></defs><g transform="translate(-162.353 -195.08)"><g transform="translate(162.353 209.395)"><ellipse class="b" cx="110" cy="109.926" rx="110" ry="109.926" transform="translate(0 0)"/></g><g transform="translate(205.135 195.08)"><path class="c" d="M444.361,256.111h-.005a68.872,68.872,0,0,0-137.3,7.791c-.069,67.908,44.644,134.886,44.644,134.886h0a20.73,20.73,0,0,0,27.137,11.136l0,0C467.471,377.349,444.361,256.111,444.361,256.111Z" transform="translate(-307.059 -195.08)"/></g><g transform="translate(205.135 195.08)"><g class="d" transform="translate(0 0)"><g class="e" transform="translate(18.286 153.24)"><path class="f" d="M463.813,745.928a1.843,1.843,0,0,0-.322-.135c-.331-1.658-2.874-2.228-3.327-.253-.678,2.96-3.7,4.375-6.331,5.279-3.767,1.291-7.666,2.274-11.484,3.411-4.089,1.218-8.172,2.461-12.271,3.649-3.99,1.157-8.085,2.217-12.276,1.969-5.923-.351-10.585-4.057-14.724-8.068a85.674,85.674,0,0,1-11.787-10.74,103.782,103.782,0,0,1-9.077-10.1c-1.266-1.617-2.5-3.287-3.66-5.008a79.335,79.335,0,0,1-6.279-7.66q-1.617-2.215-3.111-4.531a1.75,1.75,0,0,0-.028,1.776c.56,1.065,1.145,2.113,1.748,3.152-.191,2.545-.122,5.124-.084,7.494A85.683,85.683,0,0,0,386.347,773.9c3.053,4.316,6.623,9.527,11.492,11.932,5.391,2.663,11.87,1.324,17.436-.073,11.658-2.926,22.408-8.654,32.562-14.948,2.956-1.832,5.875-3.722,8.783-5.627a45.17,45.17,0,0,0,7.538-5.482,10.2,10.2,0,0,0,3.255-7.34A7.325,7.325,0,0,0,463.813,745.928Z" transform="translate(-368.908 -713.74)"/></g><g class="e" transform="translate(59.402 41.057)"><path class="f" d="M571.108,383.781a45.588,45.588,0,0,0-.807-5.6,57.443,57.443,0,0,0-9.184-20.511,64.132,64.132,0,0,0-7.3-9.129c-3.155-3.277-6.76-6.248-11.349-6.883q2.773-1.845,5.574-3.65a1.391,1.391,0,0,0-1.068-2.53c-1.248.316-3.593-1.848-4.761-1.366a152.065,152.065,0,0,0-28.723,27.7c-.175.412.791,3.4.624,3.814q-.116.25-.227.5c-.346.664-.68,1.335-.985,2.019a38.051,38.051,0,0,0-2.112,5.906,30.957,30.957,0,0,0-.749,5.512c-.564,1.727-1.066,3.474-1.462,5.236-.685,3.046-1.174,6.825.843,9.488a1.137,1.137,0,0,0,2.068-.871,24.221,24.221,0,0,1-.326-2.625c.648.141,1.427-.223,1.324-1a21.7,21.7,0,0,1,.3-8.1,36.389,36.389,0,0,1,1.457-4.435,1.389,1.389,0,0,0,.349-.654c.046-.2.1-.388.147-.582.269-.653.545-1.3.822-1.95.645-1.508,1.318-3,2.008-4.491a47.823,47.823,0,0,1,8.439-10.44,46.073,46.073,0,0,1,5.275-4.31,2.066,2.066,0,0,0,.425-.154c1.544-.756,3.043-1.583,4.522-2.444.3-.107.6-.207.909-.3s.633-.166.953-.229a1.241,1.241,0,0,0,.772.859,11.989,11.989,0,0,0,7.424.835,1.391,1.391,0,0,0,1.131-1.53l1.364-.16a1.432,1.432,0,0,0,.464.442,21.969,21.969,0,0,1,3.184,2.37q1.439,1.589,2.782,3.263c1.02,1.275,1.985,2.6,2.916,3.941l0,0a54.343,54.343,0,0,1,3.2,6.738c.476,1.182.943,2.369,1.411,3.555a7.668,7.668,0,0,0,1.549,3.044,1.427,1.427,0,0,0,.347.241c1.156,3.859,1.7,7.887,3.029,11.68a1.9,1.9,0,0,0,.3.561,4.75,4.75,0,0,0,.652,2.076,1.334,1.334,0,0,0,2.274,0C571.827,388.066,571.271,385.513,571.108,383.781Z" transform="translate(-507.979 -334.041)"/></g><g class="e" transform="translate(69.795 156.712)"><path class="f" d="M557.394,725.987c-.061.258-.135.511-.217.76a.767.767,0,0,0-.246.263,10.466,10.466,0,0,1-11.541,4.845.764.764,0,0,0-.668.138c-.154-.08-.307-.166-.461-.263a.757.757,0,0,0-1.131.648c.046,2.319,2.263,2.734,4.5,2.547,4.551.5,10.139-.9,10.574-6.312a.641.641,0,0,0-.018-.206,8.718,8.718,0,0,0,.54-1.98c.005-.023.012-.046.017-.069h-.005c.009-.063.022-.122.03-.186C558.866,725.386,557.574,725.229,557.394,725.987Z" transform="translate(-543.131 -725.494)"/></g></g></g><g transform="translate(279.617 345.731)"><path class="g" d="M564.711,705.519c-1.448-.827-3.769-.836-4.429.912a3.705,3.705,0,0,0-1.17,3.709,3.8,3.8,0,0,0,.038.437,4.053,4.053,0,0,0,3.961,3.392,4.415,4.415,0,0,0,4.016-3.38A4.813,4.813,0,0,0,564.711,705.519Z" transform="translate(-558.98 -704.979)"/></g><g transform="translate(307.754 211.59)"><path class="g" d="M672.242,264.59c-.2-2.071-1.69-4.088-2.893-5.706a27.679,27.679,0,0,0-4.578-4.855,1.376,1.376,0,0,0-.709-.315q-1.336-1.2-2.765-2.3a1.047,1.047,0,0,0-1.308.027c-.045-.008-.09-.013-.135-.019a3.55,3.55,0,0,0-3.729.131,2.739,2.739,0,0,0-1.6,2.743,1.5,1.5,0,0,0,.223,2.2l.036.027.007.026a.915.915,0,0,0,.59.594,10.238,10.238,0,0,0,2.414,2.294.91.91,0,0,0,.726.129q.254.188.507.369,1.462,1.289,2.839,2.671c.9.911,1.788,1.846,2.669,2.78a.948.948,0,0,0,.107.252,4.564,4.564,0,0,0,2.016,1.982,3.706,3.706,0,0,0,1.382.794.6.6,0,0,0,.646-.24,3.767,3.767,0,0,0,.564-.012,2.865,2.865,0,0,0,.292.161.619.619,0,0,0,.913-.487A3.161,3.161,0,0,0,672.242,264.59Z" transform="translate(-654.149 -250.96)"/></g><g transform="translate(266.562 248.968)"><ellipse class="h" cx="29.635" cy="42.493" rx="29.635" ry="42.493" transform="translate(0)"/></g><g transform="translate(294.238 276.08)"><path class="i" d="M627.893,482.28a4.247,4.247,0,1,1,.621-8.443c-2.132-2.848-5.03-4.6-8.226-4.6-6.547,0-11.854,7.35-11.854,16.416s5.307,16.417,11.854,16.417,11.854-7.35,11.854-16.417a22.163,22.163,0,0,0-.651-5.366A4.243,4.243,0,0,1,627.893,482.28Z" transform="translate(-608.434 -469.235)"/></g><g transform="translate(285.303 345.946)"><path class="j" d="M579.542,721.767a1.329,1.329,0,0,1-.947-2.264c6.413-6.49,4.689-11.808,4.613-12.031a1.33,1.33,0,0,1,2.505-.9c.1.284,2.435,7.043-5.225,14.8A1.326,1.326,0,0,1,579.542,721.767Z" transform="translate(-578.212 -705.705)"/></g><g transform="translate(287.986 345.941)"><path class="j" d="M588.619,718.5a1.331,1.331,0,0,1-1.169-1.962c4.746-8.769,20.474-10.758,21.141-10.838a1.33,1.33,0,1,1,.319,2.64c-.15.018-15.029,1.905-19.12,9.464A1.331,1.331,0,0,1,588.619,718.5Z" transform="translate(-587.29 -705.689)"/></g><g transform="translate(307.673 352.201)"><path class="j" d="M674.648,751.928a36.791,36.791,0,0,1-8.334-1.112,72.026,72.026,0,0,1-11.385-3.792,1.773,1.773,0,0,1-.969-2.159l4.25-13.305a1.774,1.774,0,0,1,3.38,1.078L657.833,744.4c6.054,2.448,18.442,6.246,22.916,2.294.246-7.549-2.276-17.5-2.3-17.605a1.774,1.774,0,0,1,3.437-.88c.116.453,2.836,11.178,2.379,19.345a1.774,1.774,0,0,1-.441,1.074C681.882,750.827,678.811,751.928,674.648,751.928Z" transform="translate(-653.877 -726.878)"/></g><g transform="translate(249.966 409.492)"><path class="j" d="M460.468,950.28a1.773,1.773,0,0,1-.647-3.424c7.655-2.994,11.789-18.758,12.736-24.58a1.774,1.774,0,0,1,3.5.567c-.152.936-3.841,22.972-14.945,27.314A1.77,1.77,0,0,1,460.468,950.28Z" transform="translate(-458.693 -920.787)"/></g><g transform="translate(282.639 402.67)"><path class="j" d="M582.761,934.01a1.767,1.767,0,0,1-.465-.062c-.033-.009-3.384-.917-9.587-2.688a4.116,4.116,0,0,1-2.51-2.119c-1.533-2.85-1.3-8.682.709-17.83,1.424-6.48,3.206-12.139,3.281-12.376A1.774,1.774,0,0,1,577.572,900c-2.721,8.611-6.281,23.68-4.247,27.459.121.225.241.355.359.389,6.176,1.764,9.507,2.667,9.54,2.676a1.773,1.773,0,0,1-.463,3.484Z" transform="translate(-569.202 -897.695)"/></g><g transform="translate(259.265 379.112)"><path class="j" d="M501.42,839.051a10.6,10.6,0,0,1-6.19-1.722c-3.933-2.715-5.518-8.338-4.988-17.695a1.774,1.774,0,0,1,3.542.2c-.441,7.783.724,12.687,3.463,14.577,4.439,3.064,13.856-.709,24.8-5.568,19.118-8.493,33.788-10.769,34.4-10.862a1.773,1.773,0,1,1,.53,3.506h0c-.146.022-14.841,2.311-33.491,10.6C514.728,835.973,507.191,839.051,501.42,839.051Z" transform="translate(-490.143 -817.962)"/></g><g transform="translate(264.689 200.708)"><path class="k" d="M562.881,227.93a17.5,17.5,0,0,1-8.039,14.731,0,0,0,0,1,0,0h0a17.449,17.449,0,0,1-3.885,1.87h0c-2.347,1.135-5.5,2.659-8.692,4.2l-13.709,6.63c0,.05-9.694,5.637-11.616,10.947a17.283,17.283,0,0,0-.863,3.46,17.529,17.529,0,0,1-6.407-20.729s0-.006,0-.009a13.431,13.431,0,0,1,2.244-4.086,17.722,17.722,0,0,1,4.172-4.033,55.118,55.118,0,0,1,12.814-6.934,97.744,97.744,0,0,1,13.015-4.175h-.03a17.543,17.543,0,0,0,13.763-12.752,17.045,17.045,0,0,0,.509-2.925,17.727,17.727,0,0,1,2.711,2.635A17.449,17.449,0,0,1,562.881,227.93Z" transform="translate(-508.49 -214.129)"/></g><g transform="translate(269.015 431.32)"><path class="k" d="M523.135,994.667a.015.015,0,0,0,0,.029A.015.015,0,0,0,523.135,994.667Z" transform="translate(-523.12 -994.667)"/></g><g class="e" transform="translate(222.854 428.43)"><ellipse class="f" cx="48.113" cy="8.325" rx="48.113" ry="8.325"/></g></g></svg>